<?xml version="1.0" encoding="iso-8859-1"?>
<!-- Generator: Adobe Illustrator 19.0.0, SVG Export Plug-In . SVG Version: 6.00 Build 0)  -->
<svg version="1.1" id="Layer_1" xmlns="http://www.w3.org/2000/svg" xmlns:xlink="http://www.w3.org/1999/xlink" x="0px" y="0px"
	 viewBox="0 0 512 512" style="enable-background:new 0 0 512 512;" xml:space="preserve">
<g id="XMLID_1183_">
	<path id="XMLID_1184_" d="M421.82,0H189.862c-4.674,0-9.068,1.82-12.375,5.125l-99.682,99.682c-3.306,3.305-5.126,7.7-5.126,12.375
		V494.5c0,9.649,7.851,17.5,17.5,17.5h331.64c9.649,0,17.5-7.851,17.5-17.5v-43.17c0-4.142-3.358-7.5-7.5-7.5s-7.5,3.358-7.5,7.5
		v43.17c0,1.378-1.122,2.5-2.5,2.5H90.18c-1.378,0-2.5-1.122-2.5-2.5V120.48l87.847-0.181c9.588-0.035,17.417-7.864,17.453-17.464
		L193.161,15H421.82c1.378,0,2.5,1.122,2.5,2.5v83.17c0,4.142,3.358,7.5,7.5,7.5s7.5-3.358,7.5-7.5V17.5
		C439.32,7.851,431.469,0,421.82,0z M175.484,105.3l-77.116,0.159l79.77-79.77l-0.159,77.104
		C177.975,104.17,176.85,105.295,175.484,105.3z"/>
	<path id="XMLID_1187_" d="M431.82,125.83c-4.142,0-7.5,3.358-7.5,7.5v31.34c0,4.142,3.358,7.5,7.5,7.5s7.5-3.358,7.5-7.5v-31.34
		C439.32,129.188,435.962,125.83,431.82,125.83z"/>
	<path id="XMLID_1188_" d="M431.82,189.83c-4.142,0-7.5,3.358-7.5,7.5v221.34c0,4.142,3.358,7.5,7.5,7.5s7.5-3.358,7.5-7.5V197.33
		C439.32,193.188,435.962,189.83,431.82,189.83z"/>
	<path id="XMLID_1189_" d="M300.938,102.405c-56.243,0-102,45.757-102,102c0,27.243,10.61,52.857,29.877,72.124
		c19.266,19.266,44.88,29.876,72.123,29.876c56.243,0,102-45.757,102-102S357.181,102.405,300.938,102.405z M387.611,196.905
		h-79.173v-79.173C350.439,121.336,384.007,154.905,387.611,196.905z M293.438,117.732v83.567l-59.081,59.082
		c-13.207-15.656-20.419-35.258-20.419-55.975C213.938,158.96,248.964,121.548,293.438,117.732z M300.938,291.405
		c-20.718,0-40.319-7.211-55.975-20.418l59.081-59.082h83.567C383.795,256.379,346.383,291.405,300.938,291.405z"/>
	<path id="XMLID_1194_" d="M374.242,54c0-4.142-3.358-7.5-7.5-7.5h-0.078c-4.142,0-7.461,3.358-7.461,7.5s3.397,7.5,7.539,7.5
		S374.242,58.142,374.242,54z"/>
	<path id="XMLID_1195_" d="M394.482,54c0-4.142-3.358-7.5-7.5-7.5h-0.078c-4.142,0-7.461,3.358-7.461,7.5s3.397,7.5,7.539,7.5
		S394.482,58.142,394.482,54z"/>
	<path id="XMLID_1196_" d="M339.938,61.5c4.142,0,7.5-3.358,7.5-7.5s-3.358-7.5-7.5-7.5h-39c-4.142,0-7.5,3.358-7.5,7.5
		s3.358,7.5,7.5,7.5H339.938z"/>
	<path id="XMLID_1197_" d="M126,203.52h42.04c4.142,0,7.5-3.358,7.5-7.5s-3.358-7.5-7.5-7.5H126c-4.142,0-7.5,3.358-7.5,7.5
		S121.858,203.52,126,203.52z"/>
	<path id="XMLID_1198_" d="M126,224.52h42.04c4.142,0,7.5-3.358,7.5-7.5s-3.358-7.5-7.5-7.5H126c-4.142,0-7.5,3.358-7.5,7.5
		S121.858,224.52,126,224.52z"/>
	<path id="XMLID_1199_" d="M126,245.52h42.04c4.142,0,7.5-3.358,7.5-7.5s-3.358-7.5-7.5-7.5H126c-4.142,0-7.5,3.358-7.5,7.5
		S121.858,245.52,126,245.52z"/>
	<path id="XMLID_1200_" d="M126,266.52h42.04c4.142,0,7.5-3.358,7.5-7.5s-3.358-7.5-7.5-7.5H126c-4.142,0-7.5,3.358-7.5,7.5
		S121.858,266.52,126,266.52z"/>
	<path id="XMLID_1201_" d="M114.26,342c0,4.142,3.358,7.5,7.5,7.5h15.175c4.142,0,7.5-3.358,7.5-7.5s-3.358-7.5-7.5-7.5H121.76
		C117.618,334.5,114.26,337.858,114.26,342z"/>
	<path id="XMLID_1202_" d="M390.24,334.5H160.95c-4.142,0-7.5,3.358-7.5,7.5s3.358,7.5,7.5,7.5h229.29c4.142,0,7.5-3.358,7.5-7.5
		S394.382,334.5,390.24,334.5z"/>
	<path id="XMLID_1203_" d="M390.24,359.5H121.76c-4.142,0-7.5,3.358-7.5,7.5s3.358,7.5,7.5,7.5H390.24c4.142,0,7.5-3.358,7.5-7.5
		S394.382,359.5,390.24,359.5z"/>
	<path id="XMLID_1204_" d="M397.74,392c0-4.142-3.358-7.5-7.5-7.5H121.76c-4.142,0-7.5,3.358-7.5,7.5s3.358,7.5,7.5,7.5H390.24
		C394.382,399.5,397.74,396.142,397.74,392z"/>
	<path id="XMLID_1205_" d="M126.039,176.5c4.142,0,7.5-3.358,7.5-7.5s-3.358-7.5-7.5-7.5h-0.078c-4.142,0-7.461,3.358-7.461,7.5
		S121.897,176.5,126.039,176.5z"/>
	<path id="XMLID_1206_" d="M248.5,450.332v13c0,4.142,3.358,7.5,7.5,7.5s7.5-3.358,7.5-7.5v-13c0-4.142-3.358-7.5-7.5-7.5
		S248.5,446.189,248.5,450.332z"/>
	<path id="XMLID_1207_" d="M276.739,449.332c-4.142,0-7.5,3.358-7.5,7.5s3.358,7.5,7.5,7.5h14.405c4.142,0,7.5-3.358,7.5-7.5
		s-3.358-7.5-7.5-7.5H276.739z"/>
	<path id="XMLID_1208_" d="M220.856,449.332c-4.142,0-7.5,3.358-7.5,7.5s3.358,7.5,7.5,7.5h14.405c4.142,0,7.5-3.358,7.5-7.5
		s-3.358-7.5-7.5-7.5H220.856z"/>
</g>
<g>
</g>
<g>
</g>
<g>
</g>
<g>
</g>
<g>
</g>
<g>
</g>
<g>
</g>
<g>
</g>
<g>
</g>
<g>
</g>
<g>
</g>
<g>
</g>
<g>
</g>
<g>
</g>
<g>
</g>
</svg>
