<svg xmlns="http://www.w3.org/2000/svg" viewBox="0 0 512 512"><title>Retail - Lineal</title><g id="_1_Shopping_cart" data-name="1 Shopping cart"><path d="M141.08,316.38a15.32,15.32,0,0,0,15.3-15.3v-54.2a15.32,15.32,0,0,0-15.3-15.3H58.14a15.32,15.32,0,0,0-15.3,15.3v54.2a15.32,15.32,0,0,0,15.3,15.3Zm-83.24-15.3v-54.2a.3.3,0,0,1,.3-.3h82.94a.3.3,0,0,1,.3.3v54.2a.3.3,0,0,1-.3.3H58.14A.3.3,0,0,1,57.84,301.08Z"/><path d="M75.61,269.78h16a7.5,7.5,0,0,0,0-15h-16a7.5,7.5,0,0,0,0,15Z"/><path d="M75.61,293.18h48a7.5,7.5,0,1,0,0-15h-48a7.5,7.5,0,0,0,0,15Z"/><path d="M475.63,204.3a7.5,7.5,0,1,0-10.09,11.1A96.23,96.23,0,0,1,497,286.47v12.84H407.3a9.87,9.87,0,0,1-8.28-4.47l-14.36-21.9a24.83,24.83,0,0,0-20.83-11.25h-10a9.91,9.91,0,0,1-9.9-9.9V190.46h57a95.12,95.12,0,0,1,41.57,9.44,7.5,7.5,0,0,0,6.5-13.52A110,110,0,0,0,401,175.46H305.17a21.3,21.3,0,0,0-6.37,1V73.24a21.52,21.52,0,0,0-21.5-21.5H31.76a21.52,21.52,0,0,0-21.5,21.5V336.76A11.51,11.51,0,0,0,0,348.19v39.07a11.51,11.51,0,0,0,11.5,11.5H25.69a7.5,7.5,0,0,0,0-15H15V351.69H65.2a64.83,64.83,0,1,0,112.58,47.07H312.43a7.5,7.5,0,1,0,0-15H298.8v-39.5s0,0,0-.07V196.76a6.38,6.38,0,0,1,6.37-6.31h23.77v61.33a24.93,24.93,0,0,0,24.9,24.9h10a9.87,9.87,0,0,1,8.28,4.47l14.36,21.9a24.83,24.83,0,0,0,20.83,11.25H497v63.07a6.39,6.39,0,0,1-6.38,6.38H463.07a64.78,64.78,0,1,0,1,15h26.56A21.4,21.4,0,0,0,512,377.38V286.47A111.26,111.26,0,0,0,475.63,204.3ZM160.86,351.69H283.8v32.07h-107A64.68,64.68,0,0,0,160.86,351.69Zm-135.6-15V73.24a6.51,6.51,0,0,1,6.5-6.5h72.66v27.7a7.5,7.5,0,1,0,15,0V66.74h70.21V145l-8.24-6.2a9.28,9.28,0,0,0-11.11,0l-15.74,11.84-15.75-11.85a9.28,9.28,0,0,0-11.11,0l-8.25,6.21V124.44a7.5,7.5,0,1,0-15,0v32.15a9.24,9.24,0,0,0,14.8,7.39l14-10.54L149,165.29a9.29,9.29,0,0,0,11.11,0l15.74-11.84,14,10.53a9.24,9.24,0,0,0,14.8-7.38V66.74H277.3a6.51,6.51,0,0,1,6.5,6.5V196.76s0,0,0,.07V336.69H140.47a64.66,64.66,0,0,0-54.88,0H25.26ZM113,445.26a49.84,49.84,0,1,1,49.84-49.84A49.9,49.9,0,0,1,113,445.26Zm286.27,0a49.84,49.84,0,1,1,49.84-49.84A49.9,49.9,0,0,1,399.3,445.26Z"/><path d="M399.3,367.74A27.68,27.68,0,1,0,427,395.42,27.71,27.71,0,0,0,399.3,367.74Zm0,40.36A12.68,12.68,0,1,1,412,395.42,12.69,12.69,0,0,1,399.3,408.1Z"/><path d="M113,367.74a27.68,27.68,0,1,0,27.68,27.68A27.71,27.71,0,0,0,113,367.74Zm0,40.36a12.68,12.68,0,1,1,12.68-12.68A12.69,12.69,0,0,1,113,408.1Z"/></g></svg>