<?xml version="1.0" encoding="iso-8859-1"?>
<!-- Generator: Adobe Illustrator 22.0.0, SVG Export Plug-In . SVG Version: 6.00 Build 0)  -->
<svg version="1.1" id="Capa_1" xmlns="http://www.w3.org/2000/svg" xmlns:xlink="http://www.w3.org/1999/xlink" x="0px" y="0px"
	 viewBox="0 0 512 512" style="enable-background:new 0 0 512 512;" xml:space="preserve">
<g>
	<path d="M160.19,35.384c-4.072,0-8.145,1.462-8.145,4.907v25.582h-20.778V40.291c0-3.446-4.072-4.907-8.144-4.907
		s-8.145,1.462-8.145,4.907v66.408c0,3.342,4.073,5.012,8.145,5.012s8.144-1.67,8.144-5.012V78.403h20.778v28.296
		c0,3.342,4.072,5.012,8.145,5.012c4.072,0,8.144-1.67,8.144-5.012V40.291C168.334,36.846,164.262,35.384,160.19,35.384z"/>
	<path d="M204.361,35.384c-14.409,0-25.581,6.683-25.581,24.642v27.67c0,17.959,11.173,24.642,25.581,24.642
		c14.41,0,25.687-6.683,25.687-24.642v-27.67C230.048,42.067,218.771,35.384,204.361,35.384z M213.76,87.696
		c0,7.205-3.551,10.442-9.398,10.442c-5.847,0-9.292-3.237-9.292-10.442v-27.67c0-7.205,3.446-10.442,9.292-10.442
		c5.847,0,9.398,3.237,9.398,10.442V87.696z"/>
	<path d="M284.558,35.384h-45.107c-3.446,0-4.908,3.759-4.908,7.205c0,3.967,1.775,7.413,4.908,7.413h14.409v56.697
		c0,3.342,4.073,5.012,8.144,5.012c4.073,0,8.144-1.67,8.144-5.012V50.002h14.41c3.132,0,4.907-3.446,4.907-7.413
		C289.466,39.143,288.004,35.384,284.558,35.384z"/>
	<path d="M340.216,49.584c3.133,0,4.909-3.341,4.909-7.205c0-3.341-1.463-6.995-4.909-6.995h-37.171
		c-3.551,0-7.101,1.67-7.101,5.011v66.304c0,3.342,3.551,5.012,7.101,5.012h37.171c3.446,0,4.909-3.654,4.909-6.996
		c0-3.863-1.775-7.205-4.909-7.205h-27.983V79.76h15.663c3.446,0,4.907-3.341,4.907-6.16c0-3.341-1.775-6.37-4.907-6.37h-15.663
		V49.584H340.216z"/>
	<path d="M392.323,97.511h-23.807v-57.22c0-3.446-4.071-4.907-8.144-4.907c-4.071,0-8.144,1.462-8.144,4.907v66.408
		c0,3.342,3.551,5.012,7.101,5.012h32.994c3.134,0,4.699-3.55,4.699-7.101C397.022,101.061,395.457,97.511,392.323,97.511z"/>
	<path d="M139.739,324.436h-38.936c-9.547,0-17.313,7.767-17.313,17.313v38.936c0,9.547,7.767,17.313,17.313,17.313h38.936
		c9.547,0,17.313-7.767,17.313-17.313v-38.936C157.052,332.202,149.286,324.436,139.739,324.436z M142.052,380.685
		c0,1.276-1.038,2.313-2.313,2.313h-38.936c-1.276,0-2.313-1.038-2.313-2.313v-38.936c0-1.276,1.038-2.313,2.313-2.313h38.936
		c1.276,0,2.313,1.038,2.313,2.313V380.685z"/>
	<path d="M157.052,226.438c0-9.547-7.767-17.313-17.313-17.313h-38.936c-9.547,0-17.313,7.767-17.313,17.313v38.936
		c0,9.547,7.767,17.313,17.313,17.313h38.936c9.547,0,17.313-7.767,17.313-17.313V226.438z M142.052,265.374
		c0,1.276-1.038,2.313-2.313,2.313h-38.936c-1.276,0-2.313-1.038-2.313-2.313v-38.936c0-1.276,1.038-2.313,2.313-2.313h38.936
		c1.276,0,2.313,1.038,2.313,2.313V265.374z"/>
	<path d="M236.532,209.124c-9.547,0-17.313,7.767-17.313,17.313v38.936c0,9.547,7.767,17.313,17.313,17.313h38.936
		c9.547,0,17.313-7.767,17.313-17.313v-38.936c0-9.547-7.767-17.313-17.313-17.313H236.532z M277.781,226.438v38.936
		c0,1.276-1.038,2.313-2.313,2.313h-38.936c-1.276,0-2.313-1.038-2.313-2.313v-38.936c0-1.276,1.038-2.313,2.313-2.313h38.936
		C276.744,224.124,277.781,225.162,277.781,226.438z"/>
	<path d="M411.197,324.436h-38.936c-9.547,0-17.313,7.767-17.313,17.313v38.936c0,9.547,7.767,17.313,17.313,17.313h38.936
		c9.547,0,17.313-7.767,17.313-17.313v-38.936C428.51,332.202,420.744,324.436,411.197,324.436z M413.51,380.685
		c0,1.276-1.038,2.313-2.313,2.313h-38.936c-1.276,0-2.313-1.038-2.313-2.313v-38.936c0-1.276,1.038-2.313,2.313-2.313h38.936
		c1.276,0,2.313,1.038,2.313,2.313V380.685z"/>
	<path d="M428.51,226.438c0-9.547-7.767-17.313-17.313-17.313h-38.936c-9.547,0-17.313,7.767-17.313,17.313v38.936
		c0,9.547,7.767,17.313,17.313,17.313h38.936c9.547,0,17.313-7.767,17.313-17.313V226.438z M413.51,265.374
		c0,1.276-1.038,2.313-2.313,2.313h-38.936c-1.276,0-2.313-1.038-2.313-2.313v-38.936c0-1.276,1.038-2.313,2.313-2.313h38.936
		c1.276,0,2.313,1.038,2.313,2.313V265.374z"/>
	<path d="M462.924,235.128c4.142,0,7.5-3.358,7.5-7.5v-55.902c0-18.941-13.574-34.766-31.504-38.273V33.443
		C438.92,15.002,423.917,0,405.476,0H106.524c-18.44,0-33.443,15.002-33.443,33.443v100.01
		c-17.93,3.507-31.504,19.332-31.504,38.273V329.1c0,4.142,3.358,7.5,7.5,7.5s7.5-3.358,7.5-7.5V171.726
		c0-13.236,10.768-24.004,24.004-24.004H431.42c13.236,0,24.004,10.768,24.004,24.004v55.902
		C455.424,231.771,458.781,235.128,462.924,235.128z M88.081,132.722V33.443C88.081,23.273,96.354,15,106.524,15h298.953
		c10.169,0,18.443,8.273,18.443,18.443v99.279H88.081z"/>
	<path d="M470.424,434.678V256.734c0-4.142-3.358-7.5-7.5-7.5s-7.5,3.358-7.5,7.5v177.031H328.035v-97.971
		c0-17.453-14.199-31.652-31.652-31.652h-80.765c-17.453,0-31.652,14.199-31.652,31.652v97.971H56.577v-75.223
		c0-4.142-3.358-7.5-7.5-7.5s-7.5,3.358-7.5,7.5v76.135c-13.694,3.371-23.882,15.75-23.882,30.469v28.809
		c0,9.949,8.095,18.044,18.044,18.044h440.523c9.949,0,18.044-8.095,18.044-18.044v-28.809
		C494.305,450.428,484.117,438.049,470.424,434.678z M198.966,335.794c0-9.182,7.47-16.652,16.652-16.652h80.765
		c9.182,0,16.652,7.47,16.652,16.652v97.971H198.966V335.794z M479.305,493.956c0,1.678-1.366,3.044-3.044,3.044H35.739
		c-1.678,0-3.044-1.366-3.044-3.044v-28.809c0-9.033,7.349-16.382,16.382-16.382h0h413.846c9.033,0,16.382,7.349,16.382,16.382
		V493.956z"/>
</g>
<g>
</g>
<g>
</g>
<g>
</g>
<g>
</g>
<g>
</g>
<g>
</g>
<g>
</g>
<g>
</g>
<g>
</g>
<g>
</g>
<g>
</g>
<g>
</g>
<g>
</g>
<g>
</g>
<g>
</g>
</svg>
