<?xml version="1.0" encoding="iso-8859-1"?>
<!-- Generator: Adobe Illustrator 23.0.3, SVG Export Plug-In . SVG Version: 6.00 Build 0)  -->
<svg version="1.1" id="Capa_1" xmlns="http://www.w3.org/2000/svg" xmlns:xlink="http://www.w3.org/1999/xlink" x="0px" y="0px"
	 viewBox="0 0 512 512" style="enable-background:new 0 0 512 512;" xml:space="preserve">
<g>
	<path style="fill:#ACD5DF;" d="M504.5,301v-90l-53.26-8.877c-4.48-16.269-10.933-31.718-19.096-46.072l31.391-43.948l-63.64-63.64
		l-43.948,31.391c-14.354-8.162-29.803-14.616-46.072-19.096L301,7.5h-90l-8.877,53.26c-16.269,4.48-31.718,10.933-46.072,19.096
		l-43.948-31.391l-63.64,63.64l31.391,43.948c-8.162,14.354-14.616,29.803-19.096,46.072L7.5,211v90l53.26,8.877
		c4.48,16.269,10.933,31.718,19.096,46.072l-31.391,43.948l63.64,63.64l43.948-31.391c14.354,8.162,29.803,14.616,46.072,19.096
		L211,504.5h90l8.877-53.26c16.265-4.478,31.696-10.956,46.046-19.114l43.974,31.41l63.64-63.64l-31.41-43.974
		c8.159-14.35,14.636-29.781,19.114-46.046L504.5,301z M256,353.5c-53.848,0-97.5-43.652-97.5-97.5s43.652-97.5,97.5-97.5
		s97.5,43.652,97.5,97.5S309.848,353.5,256,353.5z"/>
	<path style="fill:#83A3AB;" d="M257.84,83.51C352.26,84.5,428.5,161.34,428.5,256s-76.24,171.5-170.66,172.49L368.5,256
		L257.84,83.51z"/>
	<path style="fill:#93B7C0;" d="M257.84,83.51C335.69,84.71,398.5,161.47,398.5,256s-62.81,171.29-140.66,172.49
		c-0.61,0.01-1.23,0.01-1.84,0.01c-95.27,0-172.5-77.23-172.5-172.5S160.73,83.5,256,83.5C256.61,83.5,257.23,83.5,257.84,83.51z
		 M338.5,256c0-45.56-36.94-82.5-82.5-82.5s-82.5,36.94-82.5,82.5s36.94,82.5,82.5,82.5S338.5,301.56,338.5,256z"/>
	<path style="fill:#ACD5DF;" d="M256,158.5c-53.848,0-97.5,43.652-97.5,97.5s43.652,97.5,97.5,97.5s97.5-43.652,97.5-97.5
		S309.848,158.5,256,158.5z M256,323.5c-37.279,0-67.5-30.221-67.5-67.5s30.221-67.5,67.5-67.5s67.5,30.221,67.5,67.5
		S293.279,323.5,256,323.5z"/>
	<path d="M331,256c0-41.355-33.645-75-75-75c-41.355,0-75,33.645-75,75s33.645,75,75,75C297.355,331,331,297.355,331,256z M196,256
		c0-33.084,26.916-60,60-60s60,26.916,60,60s-26.916,60-60,60S196,289.084,196,256z"/>
	<path d="M361,256c0-57.897-47.103-105-105-105c-57.897,0-105,47.103-105,105s47.103,105,105,105C313.897,361,361,313.897,361,256z
		 M166,256c0-49.626,40.374-90,90-90s90,40.374,90,90s-40.374,90-90,90S166,305.626,166,256z"/>
	<path d="M505.733,203.602l-48.595-8.099c-4.05-13.479-9.463-26.54-16.141-38.942l28.641-40.098c2.132-2.983,1.793-7.07-0.799-9.663
		L405.2,43.161c-2.593-2.593-6.68-2.931-9.663-0.8l-40.098,28.641c-12.402-6.678-25.463-12.091-38.942-16.141l-8.1-48.594
		C307.795,2.65,304.666,0,301,0h-90c-3.667,0-6.795,2.65-7.398,6.267l-8.099,48.594c-13.479,4.049-26.541,9.463-38.942,16.141
		l-40.098-28.641c-2.982-2.131-7.07-1.793-9.663,0.8L43.161,106.8c-2.593,2.592-2.931,6.679-0.8,9.663l28.641,40.098
		c-6.678,12.402-12.092,25.463-16.141,38.942l-48.594,8.099C2.65,204.205,0,207.333,0,211v90c0,3.667,2.65,6.795,6.267,7.398
		l48.594,8.099c4.049,13.479,9.463,26.541,16.141,38.942l-28.641,40.098c-2.131,2.983-1.793,7.07,0.8,9.663l63.639,63.639
		c2.593,2.592,6.679,2.931,9.663,0.8l40.098-28.641c12.402,6.678,25.463,12.092,38.942,16.141l8.099,48.594
		C204.205,509.35,207.333,512,211,512h90c3.666,0,6.795-2.65,7.397-6.267l8.1-48.595c13.424-4.037,26.477-9.456,38.917-16.158
		l40.123,28.659c2.983,2.131,7.07,1.793,9.663-0.8l63.64-63.639c2.592-2.592,2.931-6.679,0.8-9.663l-28.66-40.124
		c6.702-12.442,12.122-25.494,16.158-38.917l48.596-8.099C509.35,307.795,512,304.667,512,301v-90
		C512,207.333,509.35,204.205,505.733,203.602z M497,294.646l-46.993,7.832c-2.881,0.48-5.222,2.59-5.997,5.407
		c-4.237,15.388-10.43,30.303-18.403,44.33c-1.444,2.54-1.282,5.688,0.417,8.066l27.717,38.804l-54.654,54.654l-38.804-27.717
		c-2.378-1.698-5.525-1.863-8.066-0.417c-14.025,7.974-28.94,14.166-44.33,18.403c-2.816,0.776-4.927,3.116-5.407,5.998L294.646,497
		h-77.293l-7.832-46.993c-0.48-2.882-2.59-5.223-5.407-5.998c-15.469-4.259-30.393-10.445-44.355-18.384
		c-2.541-1.444-5.689-1.282-8.067,0.417l-38.778,27.698L58.26,399.086l27.698-38.778c1.699-2.378,1.861-5.526,0.417-8.067
		c-7.939-13.962-14.125-28.886-18.384-44.355c-0.775-2.817-3.116-4.927-5.998-5.407L15,294.646v-77.293l46.993-7.832
		c2.882-0.48,5.223-2.59,5.998-5.407c4.259-15.469,10.445-30.393,18.384-44.355c1.445-2.541,1.282-5.689-0.417-8.067L58.26,112.914
		l54.654-54.654l38.778,27.698c2.378,1.699,5.526,1.86,8.067,0.417c13.962-7.939,28.886-14.125,44.355-18.384
		c2.817-0.775,4.927-3.116,5.407-5.998L217.354,15h77.293l7.832,46.993c0.48,2.882,2.591,5.222,5.407,5.998
		c15.47,4.26,30.394,10.445,44.355,18.384c2.541,1.445,5.688,1.282,8.066-0.417l38.778-27.698l54.654,54.654l-27.698,38.778
		c-1.699,2.378-1.861,5.526-0.417,8.067c7.939,13.962,14.125,28.886,18.385,44.355c0.775,2.817,3.116,4.927,5.997,5.407L497,217.354
		V294.646z"/>
	<path d="M256,76c-41.597,0-82.172,14.527-114.25,40.905c-3.199,2.631-3.66,7.357-1.029,10.557c2.631,3.198,7.357,3.66,10.557,1.029
		C180.678,104.314,217.87,91,256,91c90.981,0,165,74.019,165,165s-74.019,165-165,165S91,346.981,91,256
		c0-39.409,14.123-77.56,39.768-107.426c2.698-3.143,2.338-7.877-0.805-10.576c-3.142-2.698-7.877-2.338-10.576,0.805
		C91.408,171.387,76,213.008,76,256c0,99.252,80.748,180,180,180c99.252,0,180-80.748,180-180S355.252,76,256,76z"/>
</g>
<g>
</g>
<g>
</g>
<g>
</g>
<g>
</g>
<g>
</g>
<g>
</g>
<g>
</g>
<g>
</g>
<g>
</g>
<g>
</g>
<g>
</g>
<g>
</g>
<g>
</g>
<g>
</g>
<g>
</g>
</svg>
