<?xml version="1.0" encoding="iso-8859-1"?>
<!-- Generator: Adobe Illustrator 23.1.0, SVG Export Plug-In . SVG Version: 6.00 Build 0)  -->
<svg version="1.1" id="Layer_1" xmlns="http://www.w3.org/2000/svg" xmlns:xlink="http://www.w3.org/1999/xlink" x="0px" y="0px"
	 viewBox="0 0 512 512" style="enable-background:new 0 0 512 512;" xml:space="preserve">
<g>
	<g>
		<circle style="fill:#FFD027;" cx="256" cy="256" r="248.5"/>
		<path style="fill:#F7C407;" d="M255.045,7.502c-6.438,0.025-12.818,0.294-19.132,0.799
			c127.517,10.11,228.084,116.531,228.584,246.744c0.503,130.803-100.148,238.391-228.412,248.653
			c6.883,0.546,13.84,0.826,20.868,0.799c137.242-0.527,248.071-112.211,247.543-249.453
			C503.971,117.803,392.287,6.975,255.045,7.502z"/>
		<g>
			<path style="fill:#E0A100;" d="M366.172,204.288l24.227,62.268l-27.656,9.26l10.628,56.664
				c1.987,10.593-4.985,20.801-15.58,22.776c-13.487,2.514-30.544,4.764-38.585,2.05c0,0-8.388,51.595,4.518,84.492
				c1.155,2.943-1.013,6.118-4.174,6.145c-21.802,0.183-90.955-1.993-141.637-34.396c-1.949-1.246-2.66-3.768-1.615-5.832
				c3.848-7.606,11.299-27.521,3.641-57.34c-9.467-36.861-92.948-106.815-54.091-193.863
				c35.642-79.845,124.868-65.558,160.286-80.957c65.6-28.523,124.368,61.574,74.966,91.147L366.172,204.288"/>
			<g>
				<path style="fill:#F7B900;" d="M362.744,275.816l27.656-9.26l-24.228-62.268l-5.071-37.586
					c-28.823-1.969-54.121,11.376-72.625,43.374c-10.92,18.883-26.501,54.975-42.774,45.74c-10.785-6.12-2.838-32.628-24.339-32.709
					c-15.289-0.058-34.33,27.119-12.319,52.128c23.234,26.399-34.973,54.719-34.973,54.719l-2.946,1.284
					c4.195,7.111,7.37,13.512,8.815,19.138c7.658,29.818,0.207,49.734-3.641,57.34c-1.044,2.064-0.333,4.586,1.615,5.832
					c50.682,32.403,119.835,34.579,141.637,34.396c3.161-0.026,5.329-3.202,4.174-6.145c-12.907-32.897-4.518-84.492-4.518-84.492
					c8.041,2.714,25.098,0.464,38.585-2.05c10.596-1.975,17.567-12.183,15.581-22.776L362.744,275.816z"/>
			</g>
		</g>
	</g>
	<g>
		<path d="M436.322,74.287C388.022,26.356,324.034,0,256.027,0c-0.333,0-0.678,0-1.012,0.002
			C186.637,0.265,122.452,27.14,74.286,75.678C26.121,124.215-0.261,188.604,0.002,256.983s27.139,132.564,75.676,180.73
			C123.978,485.644,187.966,512,255.973,512c0.333,0,0.678,0,1.011-0.002c23.062-0.088,45.915-3.245,67.927-9.382
			c9.04-2.522,5.426-17.077-4.029-14.449c-20.719,5.777-42.236,8.748-63.955,8.831C256.608,497,256.292,497,255.974,497
			c-64.018,0-124.263-24.814-169.73-69.934c-45.693-45.343-70.994-105.767-71.241-170.14S39.59,131.937,84.934,86.243
			s105.768-70.994,170.141-71.241C255.392,15,255.708,15,256.026,15c64.018,0,124.263,24.814,169.73,69.934
			c45.693,45.343,70.994,105.767,71.241,170.14c0.18,46.779-13.061,92.192-38.29,131.328c-24.588,38.14-59.23,68.49-100.183,87.768
			c-8.492,3.997-2.489,17.752,6.389,13.571c43.497-20.476,80.29-52.708,106.401-93.211c26.806-41.582,40.874-89.824,40.683-139.513
			C511.735,186.637,484.859,122.453,436.322,74.287z"/>
		<path d="M425.882,375.138c3.342,2.159,8.224,1.093,10.37-2.23c22.531-34.875,34.44-75.301,34.44-116.908
			c0-38.618-10.363-76.544-29.968-109.677c-4.779-8.077-17.907-0.807-12.91,7.639c18.238,30.821,27.878,66.105,27.878,102.038
			c0,38.713-11.079,76.324-32.04,108.768C421.404,368.247,422.403,372.89,425.882,375.138z"/>
		<path d="M81.55,143.688c-3.562-2.109-8.164-0.93-10.274,2.635C51.671,179.456,41.308,217.382,41.308,256
			c0,41.607,11.909,82.033,34.44,116.908c5.074,7.851,17.936,0.119,12.6-8.14C67.387,332.324,56.308,294.713,56.308,256
			c0-35.933,9.64-71.217,27.878-102.038C86.295,150.397,85.114,145.797,81.55,143.688z"/>
		<path d="M173.874,419.866c51.009,32.612,120.219,35.586,143.551,35.586c8.54,0,16.957-7.024,13.282-16.393
			c-9.2-23.451-6.741-58.046-5.063-73.101c6.284,0.344,16.555-0.166,33.521-3.329c14.486-2.7,24.293-17.056,21.577-31.532
			l-9.423-50.243l21.46-7.186c3.843-1.286,6.162-5.839,4.608-9.832l-23.903-61.436l-4.327-32.067
			c9.469-7.015,15.389-16.661,17.224-28.159c1.839-11.533-0.528-24.127-6.848-36.422c-8.177-15.909-22.107-29.27-38.219-36.656
			c-18.832-8.634-38.947-8.778-58.17-0.42c-8.637,3.755-21.489,5.66-36.371,7.865c-21.979,3.257-49.335,7.312-73.762,19.699
			c-8.371,4.245-1.967,17.816,6.785,13.378C202.05,98.334,226.98,94.64,248.974,91.38c15.936-2.362,29.697-4.401,40.152-8.947
			c32.679-14.208,64.097,4.943,77.067,30.178c7.766,15.111,9.771,34.975-7.11,46.48c-39.232-1.566-65.213,25.009-82.624,57.244
			c-6.694,12.393-16.811,31.122-24.469,33.321c-4.339,1.249-5.533-7.606-5.995-9.574c-1.168-4.976-2.772-11.776-7.042-16.947
			l16.019-2.526c9.271-1.461,7.359-16.345-2.336-14.816l-12.633,1.992c3.862-4.204,7.987-8.816,12.218-13.736l29.403-4.762
			c9.265-1.5,7.288-16.378-2.398-14.807l-12.626,2.045c3.754-4.818,7.445-9.778,10.966-14.81l28.886-8.324
			c9.019-2.598,5.275-17.133-4.154-14.413l-12.499,3.602c2.963-5.175,5.607-10.328,7.812-15.381
			c3.753-8.603-9.826-14.992-13.748-5.998c-1.895,4.343-4.168,8.794-6.719,13.288l-1.52-10.086
			c-1.396-9.278-16.294-7.47-14.832,2.234l4.073,27.033c-3.229,4.579-6.616,9.111-10.068,13.534l-0.306-10.388
			c-0.289-9.792-15.283-9.356-14.994,0.442l0.813,27.551c-4.188,4.851-8.269,9.401-12.074,13.533l-0.262-10.317
			c-0.239-9.387-15.244-9.428-14.996,0.38l0.641,25.262c-4.652,4.704-9.406,9.285-14.253,13.787l-0.391-15.429
			c-0.249-9.794-15.243-9.419-14.996,0.38l0.715,28.204c-6.276,5.425-12.104,10.208-17.361,14.354l1.272-15.874
			c0.75-9.356-14.167-10.976-14.951-1.198l-2.332,29.106c-3.154,2.247-5.811,4.063-7.917,5.465
			c-17.452-32.273-29.528-70.727-10.706-112.893c4.185-9.373,9.375-17.803,15.427-25.055c6.014-7.206-5.229-17.145-11.516-9.611
			c-6.938,8.312-12.861,17.918-17.608,28.551c-13.16,29.481-14.434,59.525-3.894,91.848c8.828,27.072,24.649,51.186,37.362,70.562
			c17.184,26.192,32.907,57.299,17.139,88.462C166.814,409.845,168.648,416.525,173.874,419.866z M256.131,264.073
			c13.719-3.94,24.241-23.422,33.525-40.61c13.916-25.758,33.24-48.911,64.866-49.428l4.217,31.256
			c0.005,0.038,0.015,0.073,0.02,0.111c0.018,0.12,0.042,0.24,0.066,0.36c0.026,0.129,0.053,0.257,0.085,0.383
			c0.024,0.094,0.051,0.188,0.079,0.281c0.046,0.156,0.097,0.309,0.153,0.46c0.015,0.041,0.025,0.082,0.041,0.122l21.374,54.935
			l-20.193,6.762c-3.551,1.189-5.681,4.814-4.99,8.495l10.628,56.664c1.207,6.437-3.111,12.981-9.584,14.02
			C337,351,321.605,350.2,321.605,350.2c-4.605-0.7-9.103,1.608-9.801,5.902c-0.343,2.104-7.936,50.061,3.459,84.342
			c-23.619-0.181-85.126-3.575-131.094-31.827c10.121-22.722,8.74-52.199-2.633-74.09c10.543-5.731,36.044-21.419,39.961-40.93
			c1.664-8.29-0.695-16.353-6.825-23.317c-10.974-12.469-8.484-23.417-6.024-28.833c7.098-15.622,19.369-12.313,22.744,2.063
			C234.208,255.499,241.413,268.299,256.131,264.073z M150.896,285.511c2.828-1.858,6.681-4.479,11.417-7.904l22.294,7.355
			c8.713,2.873,14.14-11.13,4.699-14.245l-12.467-4.113c4.578-3.617,9.561-7.692,14.894-12.246c0.803,9,4.759,17.967,11.68,25.831
			c3.995,4.539,3.843,8.136,3.38,10.446c-2.226,11.127-20.098,24.101-32.787,30.918
			C166.435,309.454,158.285,297.729,150.896,285.511z"/>
	</g>
</g>
<g>
</g>
<g>
</g>
<g>
</g>
<g>
</g>
<g>
</g>
<g>
</g>
<g>
</g>
<g>
</g>
<g>
</g>
<g>
</g>
<g>
</g>
<g>
</g>
<g>
</g>
<g>
</g>
<g>
</g>
</svg>
