<?xml version="1.0" encoding="iso-8859-1"?>
<!-- Generator: Adobe Illustrator 23.0.6, SVG Export Plug-In . SVG Version: 6.00 Build 0)  -->
<svg version="1.1" id="Capa_1" xmlns="http://www.w3.org/2000/svg" xmlns:xlink="http://www.w3.org/1999/xlink" x="0px" y="0px"
	 viewBox="0 0 512 512" style="enable-background:new 0 0 512 512;" xml:space="preserve">
<g>
	<path d="M509.617,74.162l-51.532-48.097c-1.389-1.296-3.217-2.017-5.117-2.017H315.548c-1.9,0-3.729,0.721-5.117,2.017
		l-51.532,48.097c-2.801,2.614-3.181,6.918-0.883,9.983l120.242,160.323c1.417,1.889,3.639,3,6,3s4.583-1.111,6-3L510.5,84.145
		C512.798,81.08,512.418,76.776,509.617,74.162z M402.365,39.049h40.233l-9.975,30.258L402.365,39.049z M414.249,72.145h-59.981
		l29.991-29.99L414.249,72.145z M335.893,69.307l-9.975-30.258h40.234L335.893,69.307z M321.035,72.145h-37.991l29.052-27.115
		L321.035,72.145z M325.98,87.145l36.835,111.731L279.016,87.145H325.98z M423.604,120.62c-3.933-1.295-8.174,0.84-9.471,4.775
		l-29.874,90.618L341.774,87.145h84.968l-2.038,6.182c-1.297,3.934,0.841,8.174,4.775,9.471c0.78,0.257,1.571,0.379,2.35,0.379
		c3.149,0,6.082-2,7.122-5.154l3.586-10.878H489.5l-83.797,111.731l22.676-68.784C429.675,126.158,427.538,121.917,423.604,120.62z
		 M447.481,72.145l8.939-27.115l29.052,27.115H447.481z"/>
	<path d="M19.784,202.376l104.209,60.121c1.16,0.669,2.454,1.003,3.748,1.003s2.588-0.334,3.748-1.003l104.21-60.121
		c2.321-1.34,3.752-3.816,3.752-6.497V75.637c0-2.68-1.431-5.157-3.752-6.497L131.49,9.02c-2.319-1.338-5.177-1.338-7.496,0
		L19.784,69.141c-2.322,1.34-3.752,3.816-3.752,6.497V195.88C16.032,198.56,17.462,201.036,19.784,202.376z M63.653,181.42
		l56.589,32.647v28.948l-81.667-47.115L63.653,181.42z M135.242,214.067l56.589-32.647l25.078,14.479l-81.668,47.115V214.067z
		 M199.371,168.453v-16.662c0-4.142-3.358-7.5-7.5-7.5s-7.5,3.358-7.5,7.5v16.616l-56.629,32.67l-56.629-32.67v-65.296l56.629-32.67
		l56.629,32.67v16.615c0,4.142,3.358,7.5,7.5,7.5s7.5-3.358,7.5-7.5v-16.662l25.081-14.48v94.35L199.371,168.453z M191.83,90.097
		L135.242,57.45V28.502l81.667,47.116L191.83,90.097z M120.242,57.45L63.653,90.097L38.575,75.618l81.667-47.116V57.45z
		 M56.113,103.064v65.39l-25.081,14.48v-94.35L56.113,103.064z"/>
	<path d="M134.326,284.315c-1.34-2.32-3.815-3.75-6.495-3.75c-2.679,0-5.156,1.43-6.495,3.75L1.005,492.734
		c-1.34,2.32-1.34,5.18,0,7.5s3.815,3.75,6.495,3.75h240.661c2.68,0,5.155-1.43,6.495-3.75s1.34-5.18,0-7.5L134.326,284.315z
		 M119.657,361.658l-53.192,92.131l-38.652,22.511l91.844-159.078V361.658z M75.737,465.747c1.172-0.683,2.085-1.637,2.716-2.733
		l0.004,0.003l49.373-85.516l42.877,74.266h-58.998c-4.142,0-7.5,3.358-7.5,7.5s3.358,7.5,7.5,7.5h69.926l37.343,22.217H35.841
		L75.737,465.747z M189.214,453.822l-54.558-94.498v-44.435l93.636,162.183L189.214,453.822z"/>
	<path d="M453.689,282.761c-1.407-1.406-3.314-2.196-5.303-2.196h-128.26c-1.989,0-3.897,0.79-5.303,2.197l-40.078,40.078
		c-1.407,1.406-2.197,3.314-2.197,5.303v128.26c0,1.989,0.79,3.897,2.197,5.303l40.082,40.082c1.406,1.406,3.314,2.196,5.303,2.196
		h128.26c1.989,0,3.897-0.79,5.304-2.197l40.078-40.081c1.406-1.407,2.196-3.314,2.196-5.303v-128.26
		c0-1.989-0.79-3.897-2.197-5.304L453.689,282.761z M447.871,440.887v-97.226h33.097v97.226H447.871z M432.871,488.984h-97.226
		v-33.096h97.226V488.984z M335.645,440.887v-97.226h56.628c4.142,0,7.5-3.358,7.5-7.5s-3.358-7.5-7.5-7.5h-56.628v-33.097h97.226
		v33.097h-8.53c-4.142,0-7.5,3.358-7.5,7.5s3.358,7.5,7.5,7.5h8.53v97.226H335.645z M287.548,343.661h33.097v97.226h-33.097V343.661
		z M478.38,328.661h-30.509v-30.506L478.38,328.661z M320.645,298.152v30.509h-30.509L320.645,298.152z M290.14,455.887h30.505
		v30.505L290.14,455.887z M447.871,486.396v-30.509h30.506L447.871,486.396z"/>
</g>
<g>
</g>
<g>
</g>
<g>
</g>
<g>
</g>
<g>
</g>
<g>
</g>
<g>
</g>
<g>
</g>
<g>
</g>
<g>
</g>
<g>
</g>
<g>
</g>
<g>
</g>
<g>
</g>
<g>
</g>
</svg>
