<?xml version="1.0" encoding="iso-8859-1"?>
<!-- Generator: Adobe Illustrator 22.0.0, SVG Export Plug-In . SVG Version: 6.00 Build 0)  -->
<svg version="1.1" id="Capa_1" xmlns="http://www.w3.org/2000/svg" xmlns:xlink="http://www.w3.org/1999/xlink" x="0px" y="0px"
	 viewBox="0 0 512.001 512.001" style="enable-background:new 0 0 512.001 512.001;" xml:space="preserve">
<g>
	<g>
		<path style="fill:#FF8086;" d="M442.446,7.501l-81.821,37.184c-8.087,3.679-14.334,10.623-17.144,19.046l-27.004,81.016
			l33.552,0.749l23.872-71.627l81.813-37.184L442.446,7.501z"/>
		<circle style="fill:#FFC269;" cx="152.48" cy="103.695" r="96.194"/>
		<circle style="fill:#FFA95F;" cx="152.48" cy="103.695" r="64.129"/>
		<polygon style="fill:#EDF4FF;" points="449.076,103.695 128.431,103.695 288.754,328.146 		"/>
		<path style="fill:#C3DDFF;" d="M128.431,103.695l62.844,87.982c33.787-14.923,57.398-48.672,57.398-87.982H128.431z"/>
		<path style="fill:#A4CCFF;" d="M172.048,164.758c25.842-8.275,44.56-32.474,44.56-61.063h-88.177L172.048,164.758z"/>
		<polygon style="fill:#C3DDFF;" points="363.962,103.695 330.161,103.695 316.478,144.747 350.029,145.496 		"/>
		<path style="fill:#C3DDFF;" d="M288.754,424.34c0,44.272-35.89,80.161-80.161,80.161h160.323
			C324.643,504.501,288.754,468.612,288.754,424.34z"/>
		<polygon style="fill:#FF8086;" points="231.496,247.985 288.754,328.146 346.012,247.985 		"/>
		<path style="fill:#E5646E;" d="M231.496,247.985l57.258,80.161c0,0-6.529-36.56-14.314-80.161H231.496z"/>
		<polygon style="fill:#FFC269;" points="380.366,199.888 197.141,199.888 231.496,247.985 346.012,247.985 		"/>
		<path style="fill:#FFA95F;" d="M231.496,247.985h42.944c-2.785-15.589-5.724-32.053-8.59-48.097h-68.71L231.496,247.985z"/>
		<path style="fill:#FFE09F;" d="M420.446,143.776h-3.435c-21.393,0-21.393,8.016-42.785,8.016s-21.393-8.016-42.785-8.016
			c-21.377,0-21.377,8.016-42.755,8.016c-21.359,0-21.359-8.016-42.718-8.016c-21.371,0-21.371,8.016-42.742,8.016
			c-21.365,0-21.365-8.016-42.73-8.016h-3.436l40.081,56.113h183.225L420.446,143.776z"/>
		<path style="fill:#F6D190;" d="M255.961,144.508c-2.774-0.454-6.011-0.733-9.993-0.733c-21.371,0-21.371,8.016-42.742,8.016
			c-21.365,0-21.365-8.016-42.73-8.016h-3.436l40.081,56.113h68.71C262.27,179.837,258.822,160.532,255.961,144.508z"/>
	</g>
	<path d="M462.543,33.581L449.274,4.397c-1.714-3.771-6.16-5.436-9.931-3.724L357.52,37.859
		c-9.975,4.538-17.685,13.104-21.153,23.501l-11.611,34.834H223.714c-3.762-35.984-34.271-64.129-71.235-64.129
		c-39.496,0-71.629,32.133-71.629,71.629c0,39.496,32.133,71.629,71.629,71.629c5.583,0,11.133-0.652,16.523-1.925l10.56,14.783
		c-8.705,2.793-17.78,4.206-27.083,4.206c-48.906,0-88.693-39.788-88.693-88.694s39.788-88.693,88.693-88.693
		c37.515,0,71.125,23.747,83.635,59.091c1.382,3.905,5.668,5.948,9.573,4.568c3.905-1.382,5.95-5.668,4.568-9.573
		C235.629,27.765,196.336,0.001,152.48,0.001c-57.177,0-103.693,46.517-103.693,103.693S95.303,207.388,152.48,207.388
		c12.485,0,24.624-2.183,36.168-6.487l92.606,129.648v93.79c0,40.065-32.596,72.661-72.661,72.661c-4.142,0-7.5,3.358-7.5,7.5
		s3.358,7.5,7.5,7.5h160.323c4.142,0,7.5-3.358,7.5-7.5s-3.358-7.5-7.5-7.5c-40.066,0-72.662-32.596-72.662-72.661v-93.79
		l158.926-222.496c1.633-2.286,1.851-5.293,0.566-7.791c-1.286-2.498-3.859-4.068-6.669-4.068h-74.709l5.616-16.851l78.835-35.831
		c1.811-0.823,3.221-2.332,3.919-4.194C463.436,37.455,463.366,35.391,462.543,33.581z M376.507,192.388h-23.624
		c-4.142,0-7.5,3.358-7.5,7.5s3.358,7.5,7.5,7.5h12.909l-23.641,33.097H235.355l-23.64-33.097h109.101c4.142,0,7.5-3.358,7.5-7.5
		s-3.358-7.5-7.5-7.5H201.001l-28.421-39.79c2.394,0.612,4.456,1.385,6.647,2.207c5.604,2.103,11.957,4.486,24,4.486
		c12.046,0,18.399-2.383,24.005-4.486c5.05-1.895,9.412-3.53,18.736-3.53c9.319,0,13.677,1.636,18.724,3.53
		c5.603,2.103,11.954,4.486,23.994,4.486c12.049,0,18.404-2.383,24.011-4.485c5.052-1.895,9.416-3.531,18.745-3.531
		c9.337,0,13.704,1.636,18.761,3.531c5.61,2.102,11.969,4.485,24.024,4.485s18.414-2.383,24.024-4.485
		c2.202-0.825,4.274-1.601,6.681-2.214L376.507,192.388z M288.754,315.243l-42.684-59.758h85.368L288.754,315.243z M240.858,111.195
		c-0.743,8.94-2.815,17.628-6.199,25.931c-5.346,0.882-9.17,2.314-12.695,3.636c-5.05,1.894-9.412,3.53-18.737,3.53
		c-9.322,0-13.682-1.636-18.73-3.53c-5.536-2.077-11.812-4.424-23.572-4.481l-17.919-25.086H240.858z M344.789,137.501
		c-3.587-0.732-7.876-1.226-13.347-1.226c-1.51,0-2.93,0.038-4.271,0.107l8.396-25.188h17.989L344.789,137.501z M310.245,139.727
		c-0.97,0.345-1.904,0.693-2.814,1.034c-5.052,1.895-9.416,3.531-18.745,3.531c-9.318,0-13.677-1.636-18.724-3.53
		c-4.782-1.795-10.123-3.789-19.068-4.336c2.718-8.16,4.395-16.598,5.008-25.231h63.853L310.245,139.727z M152.48,160.324
		c-31.225,0-56.629-25.404-56.629-56.629c0-31.226,25.404-56.629,56.629-56.629c28.681,0,52.434,21.438,56.117,49.129h-80.165
		c-2.81,0-5.383,1.57-6.669,4.068c-1.285,2.498-1.067,5.505,0.566,7.791l37.034,51.848
		C157.085,160.177,154.787,160.324,152.48,160.324z M319.924,497.001h-62.341c13.574-9.182,24.452-22.066,31.17-37.189
		C295.472,474.935,306.35,487.819,319.924,497.001z M434.503,111.195l-17.919,25.086c-11.772,0.057-18.054,2.403-23.596,4.48
		c-5.057,1.895-9.423,3.531-18.761,3.531c-7.089,0-11.312-0.944-15.147-2.227l10.288-30.87H434.503z M370.799,67.041
		c-1.899,0.863-3.353,2.478-4.012,4.456l-8.231,24.697h-17.989l10.03-30.089c2.154-6.456,6.941-11.775,13.132-14.592l74.994-34.082
		l7.06,15.529L370.799,67.041z"/>
</g>
<g>
</g>
<g>
</g>
<g>
</g>
<g>
</g>
<g>
</g>
<g>
</g>
<g>
</g>
<g>
</g>
<g>
</g>
<g>
</g>
<g>
</g>
<g>
</g>
<g>
</g>
<g>
</g>
<g>
</g>
</svg>
