<?xml version="1.0" encoding="iso-8859-1"?>
<!-- Generator: Adobe Illustrator 23.0.6, SVG Export Plug-In . SVG Version: 6.00 Build 0)  -->
<svg version="1.1" id="Capa_1" xmlns="http://www.w3.org/2000/svg" xmlns:xlink="http://www.w3.org/1999/xlink" x="0px" y="0px"
	 viewBox="0 0 511.996 511.996" style="enable-background:new 0 0 511.996 511.996;" xml:space="preserve">
<g>
	<path d="M159.807,176.351h-32.064c-12.976,0-23.533,10.557-23.533,23.532v232.468c0,1.049,0.22,2.087,0.646,3.046l32.065,72.145
		c1.204,2.709,3.89,4.454,6.854,4.454s5.65-1.745,6.854-4.454l32.064-72.145c0.426-0.959,0.646-1.997,0.646-3.046V199.883
		C183.339,186.907,172.782,176.351,159.807,176.351z M163.814,440.883h-40.081c-0.008,0-0.016,0.001-0.024,0.001l-4.5-10.125v-6.424
		c0-4.705,3.828-8.532,8.533-8.532c4.705,0,8.532,3.828,8.532,8.532c0,4.142,3.358,7.5,7.5,7.5s7.5-3.358,7.5-7.5
		c0-4.705,3.828-8.532,8.532-8.532s8.532,3.828,8.532,8.532v6.424l-4.5,10.125C163.831,440.884,163.823,440.883,163.814,440.883z
		 M159.807,400.802c-3.009,0-5.884,0.577-8.532,1.611v-18.16c0-4.142-3.358-7.5-7.5-7.5s-7.5,3.358-7.5,7.5v18.16
		c-2.648-1.034-5.523-1.611-8.532-1.611c-3.009,0-5.885,0.574-8.533,1.608V231.431h17.065v120.757c0,4.142,3.358,7.5,7.5,7.5
		s7.5-3.358,7.5-7.5V231.431h17.064V402.41C165.691,401.376,162.816,400.802,159.807,400.802z M127.742,191.351h32.064
		c4.705,0,8.532,3.828,8.532,8.532v16.548h-49.129v-16.548C119.209,195.178,123.037,191.351,127.742,191.351z M143.774,486.029
		l-13.398-30.146h26.797L143.774,486.029z"/>
	<path d="M279.532,129.992c0-4.142-3.358-7.5-7.5-7.5s-7.5,3.358-7.5,7.5c0,13.859,13.586,25.057,32.064,27.469v2.34
		c0,4.142,3.358,7.5,7.5,7.5s7.5-3.358,7.5-7.5v-2.34c18.479-2.412,32.065-13.61,32.065-27.469
		c0-19.611-17.679-27.206-32.065-31.829V65.103c10.135,1.87,17.065,7.316,17.065,12.284c0,4.142,3.358,7.5,7.5,7.5
		s7.5-3.358,7.5-7.5c0-13.86-13.586-25.058-32.065-27.47v-2.34c0-4.142-3.358-7.5-7.5-7.5s-7.5,3.358-7.5,7.5v2.34
		c-18.478,2.412-32.064,13.61-32.064,27.47c0,19.611,17.679,27.206,32.064,31.829v33.061
		C286.462,140.405,279.532,134.96,279.532,129.992z M328.662,129.992c0,4.968-6.93,10.413-17.065,12.283v-28.187
		C324.296,118.82,328.662,123.172,328.662,129.992z M279.532,77.386c0-4.968,6.93-10.413,17.064-12.284V93.29
		C283.897,88.559,279.532,84.207,279.532,77.386z"/>
	<path d="M377.424,30.371C354.686,7.63,323.191-3.146,291.008,0.8c-47.873,5.875-85.794,45.12-90.169,93.315
		c-0.818,9.013-0.479,18.048,1.011,26.854c0.69,4.083,4.562,6.834,8.646,6.144c4.084-0.691,6.835-4.562,6.144-8.646
		c-1.274-7.532-1.564-15.269-0.863-22.996c3.741-41.209,36.148-74.763,77.058-79.783c27.561-3.383,54.53,5.834,73.981,25.289
		c19.451,19.454,28.666,46.42,25.28,73.984c-5.024,40.906-38.58,73.309-79.786,77.048c-18.018,1.636-35.839-2.158-51.531-10.968
		c-1.668-0.937-3.632-1.201-5.49-0.736l-37.078,9.27l9.27-37.078c1.005-4.018-1.438-8.09-5.457-9.095
		c-4.014-1.003-8.09,1.438-9.095,5.457l-12.301,49.204c-0.639,2.556,0.11,5.259,1.973,7.122c1.424,1.424,3.339,2.197,5.304,2.197
		c0.605,0,1.216-0.073,1.818-0.224l46.375-11.594c17.689,9.269,37.529,13.201,57.568,11.383
		c48.193-4.372,87.439-42.289,93.318-90.157C410.936,84.611,400.162,53.112,377.424,30.371z"/>
</g>
<g>
</g>
<g>
</g>
<g>
</g>
<g>
</g>
<g>
</g>
<g>
</g>
<g>
</g>
<g>
</g>
<g>
</g>
<g>
</g>
<g>
</g>
<g>
</g>
<g>
</g>
<g>
</g>
<g>
</g>
</svg>
