<svg id="Capa_1" enable-background="new 0 0 512.02 512.02" height="512" viewBox="0 0 512.02 512.02" width="512" xmlns="http://www.w3.org/2000/svg"><g><g id="_x3C_Group_x3E__40_"><path d="m261.276 438.54-20.224-16.73 10.011-165.8-10.011-182.456h30l-4.329 22.222 4.329 7.624v298.14z" fill="#6d7c84"/><path d="m259.842 105.35c3.859-.265 7.608-.931 11.21-1.95v-29.85h-15-15v29.85 298.14 20.27l14.969 7.498 15.031-7.498v-20.27h-11c-2.209 0-4-1.791-4-4v-288.197c0-2.127 1.668-3.847 3.79-3.993z" fill="#5f6c75"/><g><path d="m175.633 158.171c-38.468-38.468-100.837-38.468-139.306 0-22.711 22.711-26.133 57.562-18.237 89.511 5.478 22.166 38.128 59.413 38.128 59.413s80.947 28.85 119.415-9.618 38.468-100.837 0-139.306z" fill="#b3e59f"/><path d="m181.834 290.68c-1.94 2.34-4.01 4.61-6.2 6.8-38.47 38.46-100.84 38.46-139.31 0-38.46-38.47-38.46-100.84 0-139.31 2.2-2.2 4.47-4.27 6.82-6.21-32.16 38.7-30.09 96.24 6.18 132.52 36.28 36.27 93.81 38.34 132.51 6.2z" fill="#95d6a4"/></g><g><g><path d="m475.711 158.171c-38.468-38.468-100.837-38.468-139.306 0-22.711 22.711-26.133 57.562-18.237 89.511 5.478 22.166 38.128 59.413 38.128 59.413s80.947 28.85 119.415-9.618 38.468-100.837 0-139.306z" fill="#f7f9fa"/><path d="m481.912 290.68c-1.94 2.34-4.01 4.61-6.2 6.8-38.47 38.46-100.84 38.46-139.31 0-38.46-38.47-38.46-100.84 0-139.31 2.2-2.2 4.47-4.27 6.82-6.21-32.16 38.7-30.09 96.24 6.18 132.52 36.28 36.27 93.81 38.34 132.51 6.2z" fill="#e9edf1"/></g></g><g><path d="m424.464 387.351-41.785-2.809c-33.088 0-55.66-17.337-55.66-50.426 0 0 2.235-5.091 4.993-5.091l10.73-2.698h140.827c2.757 0 4.993 2.235 4.993 4.993v.098c0 16.829-6.939 32.037-18.111 42.92-10.795 10.516-29.728 13.013-45.987 13.013z" fill="#bed9fd"/><path d="m470.442 374.33c-10.79 10.53-25.53 17-41.79 17h-45.19c-33.08 0-59.91-26.82-59.91-59.91v-.1c0-2.76 2.24-4.99 5-4.99h14.19c5.52 27.38 29.72 48 58.72 48z" fill="#9ec8fc"/></g><path d="m436.382 64.053-362.34-.823c-8.284 0-12.085-4.47-12.085-12.754 0-7.249 1.737-13.297 8.572-14.695.976-.2 1.987-.305 3.023-.305h129.58l51.3 10.257 54.54-10.257h129.58c8.284 0 15 6.716 15 15 0 .239-.006.477-.017.714-.373 7.953-9.108 12.863-17.153 12.863z" fill="#6d7c84"/><path d="m450.552 51.48h-135.577c-2.11 0-3.887-1.637-3.99-3.744-.205-4.21-.909-8.348-2.013-12.256h-105.84c-1.104 3.907-1.808 8.046-2.013 12.256-.103 2.107-1.88 3.744-3.99 3.744h-111.577c-8.28 0-15-6.72-15-15 0-.24.01-.48.02-.71-6.842 1.386-11.992 7.407-12.02 14.651-.032 8.285 7.138 15.059 15.423 15.059h129.157 105.84 129.58c8.04 0 14.61-6.34 14.98-14.29-.96.19-1.96.29-2.98.29z" fill="#5f6c75"/><path d="m291.052 50.477c0-19.33-15.67-35-35-35-6.509 0-12.603 1.777-17.824 4.872-10.283 6.096-13.123 17.307-13.123 30.128 0 19.33 11.585 28.959 30.915 28.959 12.694 0 23.841-.717 29.977-10.831 3.208-5.288 5.055-11.492 5.055-18.128z" fill="#bed9fd"/><path d="m287.812 65.21c-5.57 11.97-17.69 20.27-31.76 20.27-19.33 0-35-15.67-35-35 0-13.26 7.37-24.79 18.24-30.73-2.08 4.47-3.24 9.46-3.24 14.73 0 19.33 15.67 35 35 35 6.08 0 11.79-1.55 16.76-4.27z" fill="#9ec8fc"/><path d="m283.552 421.544h-52l-3.382 2.573c-5.523 0-7.532 4.69-7.532 10.213l-.638 18.894 70.085 1.915 3.468-16.598v-6.996c-.001-5.524-4.478-10.001-10.001-10.001z" fill="#6d7c84"/><path d="m293.552 438.54v13h-75v-20c0-5.523 4.477-10 10-10h3v13c0 2.209 1.791 4 4 4z" fill="#5f6c75"/><path d="m331.552 451.544h-151c-4.898 0-9.591.88-13.928 2.492-15.224 5.656-17.348 33.485-17.348 33.485 0 2.761 2.239 5 5 5l206.745.787c2.761 0 5-2.239 5-5 0 0 4.771-5.691 3.37-9.767-5.397-15.709-20.3-26.997-37.839-26.997z" fill="#6d7c84"/><path d="m371.552 491.54c0 2.76-2.24 5-5 5h-221c-1.38 0-2.63-.56-3.53-1.47-.91-.9-1.47-2.15-1.47-3.53 0-17.19 10.85-31.85 26.07-37.51-3.23 5.77-5.07 12.42-5.07 19.51v2c0 1.66 1.34 3 3 3h204.84c1.4 4.07 2.16 8.45 2.16 13z" fill="#5f6c75"/><g><path d="m124.389 387.351-41.785-2.809c-33.088 0-55.66-17.337-55.66-50.426 0 0 2.235-5.091 4.993-5.091l10.73-2.698h140.827c2.757 0 4.993 2.235 4.993 4.993v.098c0 16.829-6.939 32.037-18.111 42.92-10.795 10.516-29.727 13.013-45.987 13.013z" fill="#bed9fd"/><path d="m170.367 374.33c-10.79 10.53-25.53 17-41.79 17h-45.19c-33.08 0-59.91-26.82-59.91-59.91v-.1c0-2.76 2.24-4.99 5-4.99h14.19c5.52 27.38 29.72 48 58.72 48z" fill="#9ec8fc"/></g></g><g><path d="m371.191 216.901c6.125 0 12.25-2.331 16.912-6.993 9.326-9.326 9.326-24.499 0-33.825-9.325-9.324-24.499-9.325-33.824 0-9.326 9.326-9.326 24.499 0 33.825 4.663 4.662 10.787 6.993 16.912 6.993zm-6.305-30.211c2.771-2.556 7.907-4.053 12.611 0 3.477 3.477 3.477 9.134 0 12.61-3.478 3.478-9.135 3.478-12.611 0-3.477-3.476-3.477-9.134 0-12.61z"/><path d="m423.933 245.736c-8.461 8.176-9.755 24.313 0 33.825 8.6 8.517 23.889 9.792 33.824-.001 4.517-4.518 7.005-10.523 7.005-16.912s-2.488-12.395-7.005-16.912c-9.325-9.324-24.498-9.325-33.824 0zm23.217 23.218c-3.477 3.479-9.134 3.476-12.61.001-2.525-2.656-4.063-8.023 0-12.611 2.771-2.557 7.907-4.055 12.611 0 1.685 1.684 2.612 3.923 2.612 6.305s-.929 4.621-2.613 6.305z"/><path d="m457.373 176.474c-2.929-2.928-7.678-2.928-10.606 0l-92.097 92.097c-2.929 2.93-2.929 7.678 0 10.607 1.464 1.464 3.384 2.196 5.303 2.196s3.839-.732 5.303-2.196l92.097-92.097c2.93-2.929 2.93-7.677 0-10.607z"/><path d="m105.434 262.891c-8.734.06-11.688-.411-18.511-4.865-3.466-2.265-8.115-1.286-10.38 2.181-2.264 3.469-1.287 8.116 2.182 10.38 7.738 5.051 13.102 6.675 19.802 7.138v7.173c0 4.143 3.358 7.5 7.5 7.5s7.5-3.357 7.5-7.5v-8.052c12.783-3.358 20.971-14.31 22.784-25.114 2.379-14.181-5.047-26.506-18.919-31.398-2.889-1.019-5.532-1.804-7.864-2.497-6.959-2.067-10.163-3.134-13.189-6.734-1.672-1.99-2.294-5.542-1.583-9.049.867-4.276 3.442-7.79 7.067-9.641 7.319-3.738 14.785 1.922 16.208 3.095 3.197 2.634 7.923 2.18 10.558-1.017 2.635-3.195 2.18-7.923-1.016-10.558-3.753-3.095-8.637-5.774-14.045-7.031v-6.002c0-4.143-3.358-7.5-7.5-7.5s-7.5 3.357-7.5 7.5v6.656c-8.386 2.609-16.707 11.691-18.473 21.518-1.632 8.055.163 16.158 4.801 21.679 6.049 7.198 13.02 9.27 20.4 11.463 2.268.674 4.613 1.37 7.147 2.265 9.879 3.484 9.666 11.489 9.115 14.77-1.095 6.525-6.595 13.578-16.084 13.64z"/><path d="m483.528 318.824h-23.132c7.34-4.385 14.263-9.73 20.578-16.045 20.021-20.021 31.046-46.64 31.046-74.953s-11.026-54.932-31.046-74.952c-12.593-12.593-27.797-21.624-44.39-26.594l-15.939-53.292h17.869c12.406 0 22.5-10.093 22.5-22.499s-10.093-22.499-22.5-22.499h-58.678c-4.142 0-7.5 3.357-7.5 7.5s3.358 7.5 7.5 7.5h58.678c4.135 0 7.5 3.364 7.5 7.499s-3.364 7.499-7.5 7.499c-25.325 0-114.038 0-140.668 0 .436-2.436.676-4.939.676-7.499s-.24-5.063-.676-7.499h46.949c4.142 0 7.5-3.357 7.5-7.5s-3.358-7.5-7.5-7.5h-52.742c-7.519-12-20.854-20-36.029-20s-28.51 8-36.029 19.999h-146.46c-12.406 0-22.499 10.093-22.499 22.499s10.093 22.499 22.499 22.499h17.935l-15.96 53.363c-14.08 4.235-27.33 11.404-38.798 21.3-3.136 2.706-3.484 7.441-.778 10.578 2.707 3.136 7.442 3.485 10.578.777 22.74-19.623 53.632-26.79 82.642-19.167 23.503 6.176 43.195 21.134 55.447 42.119 12.251 20.985 15.597 45.485 9.42 68.987-12.752 48.519-62.601 77.62-111.122 64.868-23.504-6.176-43.195-21.134-55.447-42.118-12.251-20.985-15.597-45.485-9.42-68.988 2.08-7.911 5.189-15.477 9.243-22.485 2.074-3.585.849-8.173-2.737-10.247-3.586-2.073-8.173-.849-10.248 2.737-4.724 8.167-8.346 16.976-10.766 26.183-7.196 27.377-3.299 55.918 10.973 80.363 9.17 15.707 21.922 28.508 37.126 37.566h-23.102c-6.889 0-12.493 5.604-12.493 12.588 0 37.171 30.241 67.411 67.412 67.411h45.173c37.171 0 67.412-30.24 67.412-67.506 0-6.889-5.604-12.493-12.493-12.493h-23.318c23.057-13.727 40.969-36.127 48.312-64.066 7.196-27.377 3.299-55.917-10.973-80.363-13.645-23.372-35.216-40.319-61.011-48.05l-15.958-53.357h99.41c3.427 5.469 8.062 10.103 13.53 13.53v327.517h-5c-9.649 0-17.5 7.85-17.5 17.499v12.499c-8.012.2-30.642-.515-37.526.518-4.098.608-6.926 4.423-6.318 8.521.609 4.097 4.422 6.918 8.52 6.317 1.588-.236 3.212-.355 4.827-.355h150.993c17.078 0 31.122 13.242 32.402 29.998h-215.796c.382-4.986 1.905-9.819 4.461-14.108 2.121-3.559.956-8.162-2.603-10.282-3.56-2.123-8.163-.956-10.283 2.603-4.365 7.324-6.672 15.723-6.672 24.288 0 6.893 5.607 12.5 12.5 12.5h220.987c6.893 0 12.5-5.607 12.5-12.5 0-26.19-21.307-47.498-47.498-47.498h-30.498v-12.499c0-9.649-7.85-17.499-17.5-17.499h-5v-327.519c5.469-3.427 10.103-8.062 13.53-13.53h99.476l-15.927 53.251c-16.649 4.961-31.904 14.007-44.533 26.635-41.328 41.329-41.328 108.575 0 149.905 6.315 6.315 13.238 11.66 20.578 16.045h-23.132c-6.888 0-12.492 5.604-12.492 12.591 0 37.169 30.239 67.408 67.409 67.408h45.18c11.253 0 22.395-2.83 32.22-8.185 3.637-1.982 4.979-6.538 2.997-10.175s-6.537-4.98-10.174-2.997c-7.63 4.158-16.29 6.356-25.042 6.356h-45.18c-28.061 0-51.041-22.168-52.35-49.999h149.883c-.357 7.741-2.428 15.354-6.043 22.153-1.945 3.657-.556 8.199 3.101 10.144 3.657 1.943 8.198.556 10.143-3.101 5.139-9.665 7.855-20.594 7.855-31.703.002-6.887-5.602-12.491-12.491-12.491zm-354.914 64.999h-45.173c-28.063 0-51.044-22.169-52.354-49.999h149.884c-1.264 27.785-24.265 49.999-52.357 49.999zm127.41-360.833c15.163 0 27.498 12.336 27.498 27.498s-12.335 27.498-27.498 27.498-27.498-12.336-27.498-27.498 12.336-27.498 27.498-27.498zm-163.784 99.772 13.788-46.1 13.786 46.093c-9.219-1.209-18.486-1.187-27.574.007zm-18.705-64.775c-4.135 0-7.499-3.364-7.499-7.499s3.364-7.499 7.499-7.499h140.668c-.436 2.436-.676 4.939-.676 7.499s.24 5.063.676 7.499c-.001 0-134.104 0-140.668 0zm212.487 373.547v12.499h-59.996v-12.499c0-1.378 1.121-2.499 2.5-2.499h54.997c1.378 0 2.499 1.121 2.499 2.499zm-22.499-17.499h-14.998v-321.725c2.436.436 4.939.676 7.499.676s5.063-.24 7.499-.676zm142.564-337.373 13.776 46.061c-7.957-1.022-17.845-1.286-27.547-.018zm-64.411 86.819c17.188-17.188 40.04-26.654 64.346-26.654 24.307 0 47.158 9.466 64.346 26.654 17.188 17.187 26.653 40.038 26.653 64.345s-9.465 47.158-26.653 64.346c-17.742 17.742-41.04 26.612-64.346 26.61-23.3-.002-46.607-8.872-64.346-26.61-35.479-35.481-35.48-93.212 0-128.691z"/></g></g></svg>