<?xml version="1.0" encoding="iso-8859-1"?>
<!-- Generator: Adobe Illustrator 22.0.0, SVG Export Plug-In . SVG Version: 6.00 Build 0)  -->
<svg version="1.1" id="Capa_1" xmlns="http://www.w3.org/2000/svg" xmlns:xlink="http://www.w3.org/1999/xlink" x="0px" y="0px"
	 viewBox="0 0 512 512" style="enable-background:new 0 0 512 512;" xml:space="preserve">
<g>
	<g>
		<path style="fill:none;stroke:#000000;stroke-width:15;stroke-linecap:round;stroke-linejoin:round;stroke-miterlimit:10;" d="
			M270.857,168.489"/>
	</g>
	<g>
		<path d="M353.616,215.261l-52.858-7.68c-1.514-0.22-2.823-1.171-3.501-2.545c-1.833-3.713-6.328-5.238-10.043-3.405
			c-3.714,1.833-5.238,6.33-3.405,10.044c2.863,5.799,8.393,9.817,14.793,10.747l52.858,7.68c2.582,0.375,3.485,2.339,3.754,3.165
			c0.268,0.827,0.692,2.946-1.176,4.767l-38.249,37.283c-4.631,4.514-6.744,11.015-5.65,17.391l9.029,52.644
			c0.441,2.571-1.147,4.037-1.85,4.548c-0.703,0.511-2.588,1.568-4.897,0.353l-47.277-24.854c-5.725-3.011-12.561-3.01-18.286,0
			l-47.277,24.855c-2.308,1.215-4.193,0.158-4.897-0.353c-0.703-0.511-2.291-1.977-1.85-4.548l9.029-52.644
			c1.094-6.375-1.019-12.876-5.651-17.391l-38.248-37.283c-1.868-1.821-1.445-3.94-1.177-4.767c0.268-0.826,1.172-2.79,3.754-3.165
			l52.858-7.68c6.401-0.93,11.931-4.948,14.793-10.748l23.639-47.898c1.155-2.339,3.301-2.592,4.17-2.592
			c0.869,0,3.015,0.252,4.17,2.591l2.758,5.588c1.833,3.715,6.328,5.238,10.043,3.406c3.714-1.833,5.239-6.329,3.406-10.043
			l-2.758-5.589c-3.334-6.755-10.085-10.952-17.619-10.952s-14.284,4.197-17.619,10.952l-23.639,47.898
			c-0.677,1.372-1.986,2.323-3.501,2.544l-52.858,7.68c-7.455,1.083-13.533,6.207-15.861,13.372
			c-2.328,7.164-0.423,14.882,4.972,20.141l38.248,37.283c1.096,1.069,1.596,2.607,1.338,4.116l-9.029,52.645
			c-1.273,7.425,1.722,14.788,7.817,19.216c3.444,2.502,7.473,3.773,11.53,3.773c3.123,0,6.261-0.753,9.162-2.278l47.277-24.855
			c1.355-0.712,2.973-0.712,4.327,0l47.277,24.855c6.668,3.505,14.597,2.933,20.691-1.495c6.095-4.428,9.09-11.791,7.817-19.217
			l-9.029-52.644c-0.259-1.509,0.241-3.047,1.337-4.116l38.249-37.283c5.394-5.259,7.299-12.976,4.971-20.141
			C367.148,221.469,361.071,216.345,353.616,215.261z"/>
		<path d="M451.989,70.058V35.634C451.989,15.985,436.004,0,416.355,0h-22.65h-84.687H95.645C75.996,0,60.011,15.985,60.011,35.634
			v34.424c0,0.033,0.004,0.064,0.005,0.097v371.691c0,0.033-0.005,0.064-0.005,0.097s0.004,0.064,0.005,0.097v34.332
			c0,19.646,15.983,35.629,35.629,35.629h28.958c4.141,0,7.499-3.357,7.499-7.499s-3.357-7.499-7.499-7.499H95.645
			c-11.376,0-20.631-9.255-20.631-20.631v-26.93h361.973v26.93c0,11.376-9.255,20.631-20.631,20.631h-244.61
			c-4.141,0-7.499,3.357-7.499,7.499s3.357,7.499,7.499,7.499h244.61c19.646,0,35.629-15.983,35.629-35.629v-34.332
			c0-0.033,0.005-0.064,0.005-0.097s-0.004-0.064-0.005-0.097V70.155C451.984,70.122,451.989,70.091,451.989,70.058z
			 M316.517,14.998h69.689v109.761c0,0.125,0,0.282-0.248,0.415c-0.249,0.133-0.378,0.048-0.483-0.021l-25.602-16.871
			c-2.586-1.704-5.549-2.556-8.512-2.556s-5.927,0.852-8.512,2.556l-25.602,16.871c-0.104,0.069-0.234,0.156-0.483,0.021
			c-0.248-0.133-0.248-0.29-0.248-0.415V14.998z M75.014,35.629c0-10.665,8.134-19.466,18.525-20.525
			c0.693-0.071,1.396-0.107,2.107-0.107h205.874v47.562H75.014V35.629z M436.986,434.443H75.014V77.557h226.505v47.201
			c0,5.698,3.117,10.917,8.133,13.619c5.016,2.702,11.089,2.433,15.848-0.702l25.602-16.872c0.157-0.104,0.361-0.104,0.518,0
			l25.602,16.871c2.577,1.698,5.539,2.556,8.511,2.556c2.515,0,5.037-0.614,7.336-1.853c5.017-2.702,8.134-7.921,8.134-13.619
			V77.557h35.783V434.443z M436.986,62.559h-35.783V14.998h15.151c0.711,0,1.414,0.036,2.107,0.107
			c10.39,1.059,18.525,9.86,18.525,20.525V62.559z"/>
	</g>
</g>
<g>
</g>
<g>
</g>
<g>
</g>
<g>
</g>
<g>
</g>
<g>
</g>
<g>
</g>
<g>
</g>
<g>
</g>
<g>
</g>
<g>
</g>
<g>
</g>
<g>
</g>
<g>
</g>
<g>
</g>
</svg>
