<svg id="Capa_1" enable-background="new 0 0 512 512" height="512" viewBox="0 0 512 512" width="512" xmlns="http://www.w3.org/2000/svg"><g><path d="m37.5 150h60c4.142 0 7.5-3.358 7.5-7.5v-75c0-4.142-3.358-7.5-7.5-7.5h-60c-4.142 0-7.5 3.358-7.5 7.5v75c0 4.142 3.358 7.5 7.5 7.5zm7.5-75h45v60h-45z"/><path d="m37.5 255h60c4.142 0 7.5-3.358 7.5-7.5v-75c0-4.142-3.358-7.5-7.5-7.5h-60c-4.142 0-7.5 3.358-7.5 7.5v75c0 4.142 3.358 7.5 7.5 7.5zm7.5-75h45v60h-45z"/><path d="m37.5 360h60c4.142 0 7.5-3.358 7.5-7.5v-75c0-4.142-3.358-7.5-7.5-7.5h-60c-4.142 0-7.5 3.358-7.5 7.5v75c0 4.142 3.358 7.5 7.5 7.5zm7.5-75h45v60h-45z"/><path d="m37.5 465h60c4.142 0 7.5-3.358 7.5-7.5v-75c0-4.142-3.358-7.5-7.5-7.5h-60c-4.142 0-7.5 3.358-7.5 7.5v75c0 4.142 3.358 7.5 7.5 7.5zm7.5-75h45v60h-45z"/><path d="m414.5 150h60c4.143 0 7.5-3.358 7.5-7.5v-75c0-4.142-3.357-7.5-7.5-7.5h-60c-4.143 0-7.5 3.358-7.5 7.5v75c0 4.142 3.357 7.5 7.5 7.5zm7.5-75h45v60h-45z"/><path d="m414.5 255h60c4.143 0 7.5-3.358 7.5-7.5v-75c0-4.142-3.357-7.5-7.5-7.5h-60c-4.143 0-7.5 3.358-7.5 7.5v75c0 4.142 3.357 7.5 7.5 7.5zm7.5-75h45v60h-45z"/><path d="m414.5 360h60c4.143 0 7.5-3.358 7.5-7.5v-75c0-4.142-3.357-7.5-7.5-7.5h-60c-4.143 0-7.5 3.358-7.5 7.5v75c0 4.142 3.357 7.5 7.5 7.5zm7.5-75h45v60h-45z"/><path d="m414.5 465h60c4.143 0 7.5-3.358 7.5-7.5v-75c0-4.142-3.357-7.5-7.5-7.5h-60c-4.143 0-7.5 3.358-7.5 7.5v75c0 4.142 3.357 7.5 7.5 7.5zm7.5-75h45v60h-45z"/><path d="m504.5 0h-120c-4.143 0-7.5 3.358-7.5 7.5v127.5h-242v-127.5c0-4.142-3.358-7.5-7.5-7.5h-120c-4.142 0-7.5 3.358-7.5 7.5v497c0 4.142 3.358 7.5 7.5 7.5h497c4.143 0 7.5-3.358 7.5-7.5v-497c0-4.142-3.357-7.5-7.5-7.5zm-384.5 497h-105v-452h105zm0-467h-105v-15h105zm15 255h53.5v37.5c0 4.142 3.358 7.5 7.5 7.5h52.5v107h-45v-84.5c0-4.142-3.358-7.5-7.5-7.5s-7.5 3.358-7.5 7.5v84.5h-53.5zm68.5 30v-30h105v30zm105 15v107h-45v-107zm-135 167h-38.5v-45h38.5zm150 0h-135v-15h135zm0-30h-135v-15h135zm53.5 30h-38.5v-45h38.5zm0-60h-53.5v-152h53.5zm0-167h-242v-120h242zm120 227h-105v-452h105zm0-467h-105v-15h105z"/><path d="m218.5 232.5h15v15c0 4.142 3.358 7.5 7.5 7.5h30c4.143 0 7.5-3.358 7.5-7.5v-15h15c4.143 0 7.5-3.358 7.5-7.5v-30c0-4.142-3.357-7.5-7.5-7.5h-15v-15c0-4.142-3.357-7.5-7.5-7.5h-30c-4.142 0-7.5 3.358-7.5 7.5v15h-15c-4.142 0-7.5 3.358-7.5 7.5v30c0 4.142 3.358 7.5 7.5 7.5zm7.5-30h15c4.142 0 7.5-3.358 7.5-7.5v-15h15v15c0 4.142 3.357 7.5 7.5 7.5h15v15h-15c-4.143 0-7.5 3.358-7.5 7.5v15h-15v-15c0-4.142-3.358-7.5-7.5-7.5h-15z"/></g></svg>