<svg xmlns="http://www.w3.org/2000/svg" viewBox="0 0 512 512"><title>Retail - Lineal</title><g id="_1_Shopping_cart" data-name="1 Shopping cart"><path d="M32,460.17a7.5,7.5,0,0,0,6.1,2.19c22.46-2.3,47,1.71,79.7,13,10,3.44,20.12,7.32,29.94,11.08,25.76,9.85,52.4,20,79.68,24A154,154,0,0,0,249.35,512c28.63,0,54.48-8.56,75.7-25.22a7.5,7.5,0,0,0,2.84-6.5c-.93-11.54-2.18-23.54-3.7-35.76h4.59A15.37,15.37,0,0,0,343.41,434c6.38-19.3,20-41,37.35-59.4,13.12-13.94,25.21-22.5,32.57-25.25,1.18,5.31,1.77,15.59,1.77,30.69v51a13.52,13.52,0,0,0,13.5,13.5H441a13.52,13.52,0,0,0,13.5-13.5V380c0-11.14,4.55-20.62,9.38-30.65,5.54-11.52,11.26-23.43,11.26-39.05,0-40.86-16.18-70.51-38.48-70.51-32.28,0-49.58,23.43-65.61,58.6-21.38,46.89-43.31,73.78-60.18,73.78-8.46,0-15.26-6-20.8-18.38a13.4,13.4,0,0,0-15-7.6c-30.35,6.66-52.62,20.46-66.17,41a84.64,84.64,0,0,0-13.65,43.42,13.42,13.42,0,0,0,13.43,13.85h100.4c1.42,11.2,2.61,22.23,3.53,32.87-28.55,20.68-60.72,21.37-83,18.16-25.62-3.69-51.46-13.57-76.46-23.12-9.93-3.8-20.2-7.72-30.4-11.24C92.18,450.63,68,446.07,45.85,446.81,57.71,351,85.73,250.74,105.08,215.61h34.26c-2.61,13.71-5.56,34.18-8.47,59a7.5,7.5,0,1,0,14.9,1.75c3.1-26.31,6.2-47.55,8.86-60.71h47.51c2.65,13.2,5.73,34.36,8.84,60.71a7.5,7.5,0,0,0,14.9-1.75c-2.92-24.81-5.85-45.21-8.46-59h32.71c12,21.94,27.37,69.45,39.93,123.51a7.5,7.5,0,0,0,14.61-3.39c-13.09-56.37-29.48-106.25-42.26-128.91,2.06-9.73,4.43-20.37,6.73-30.69,5.92-26.55,12-54,13.68-69.42,2.38-22.39.76-78.11.21-94.65A12.42,12.42,0,0,0,270.54,0h-17.6a12.49,12.49,0,0,0-12.48,12.48v18c0,35.44-28.36,64.37-63.21,64.49H177A63.42,63.42,0,0,1,113.6,31.57V12.48A12.49,12.49,0,0,0,101.12,0H83.53A12.42,12.42,0,0,0,71.06,12.05C70.74,21.59,70,46.2,70,68.85a7.5,7.5,0,0,0,15,0c0-20.7.63-43.09,1-53.85H98.6V31.57A78.42,78.42,0,0,0,177.31,110c43.1-.15,78.16-35.81,78.16-79.49V15H268.1c.6,18.75,2,69.67-.21,90.12-1.55,14.57-7.58,41.61-13.4,67.75-2.07,9.28-4.19,18.8-6.1,27.74H105.67c-1.83-8.5-3.85-17.56-5.82-26.39-5.95-26.69-12.1-54.3-13.68-69.09-.19-1.8-.37-4-.53-6.73a7.5,7.5,0,1,0-15,.92c.18,3,.37,5.38.59,7.4,1.67,15.64,7.91,43.67,14,70.77,2.32,10.41,4.71,21.14,6.76,30.83C71.27,246.08,41.24,354,29.89,454.05A7.5,7.5,0,0,0,32,460.17Zm244.94-99c8.07,17.28,19.48,26,33.94,26,24,0,48.86-27.78,73.83-82.56,16.77-36.79,30.37-49.82,52-49.82,9.84,0,23.48,19.29,23.48,55.51,0,12.2-4.75,22.09-9.78,32.55C445,354,439.52,365.47,439.52,380v49.48H430.1V380c0-24-1.11-38.13-7-44.32a7.5,7.5,0,0,0-5.44-2.34c-17.37,0-41,23.68-47.83,30.94-18.8,20-33.62,43.66-40.67,65a.41.41,0,0,1-.39.24H210.29C211.22,412.07,220,374.2,276.94,361.16Z"/><path d="M308.46,99.2a7.5,7.5,0,0,0-9.84,4l-7.42,17.46-.08.21a14,14,0,0,0,2.49,14.56l82.08,92.14a14,14,0,0,0,9.65,4.63c.31,0,.57,0,.77,0h0c.2,0,.46,0,.77,0a14,14,0,0,0,9.65-4.63l82.08-92.14a14,14,0,0,0,2.49-14.56l-.08-.2L458.71,68.07a13.93,13.93,0,0,0-12.84-8.5H326.38a13.93,13.93,0,0,0-12.84,8.5l-2.79,6.58a7.5,7.5,0,1,0,13.81,5.87l2.52-5.94h28.65l-6,41.51H309.44l3-7A7.5,7.5,0,0,0,308.46,99.2Zm102.37,47.08a7.5,7.5,0,0,0,9.35-5l2.63-8.7c.14-.47.26-1,.37-1.49h39.18l-59.21,66.47,8.08-26.69a7.5,7.5,0,1,0-14.36-4.34L386.13,202l-21.47-71H407.6l-1.77,5.85A7.5,7.5,0,0,0,410.84,146.28Zm-61.41-13.71,19.66,65-59.21-66.47h39.18C349.17,131.59,349.29,132.1,349.43,132.57Zm113.38-16.49H422.52l-6-41.51h28.65ZM370.88,74.57h30.5l6,41.51H364.89Z"/></g></svg>