<?xml version="1.0" encoding="iso-8859-1"?>
<!-- Generator: Adobe Illustrator 23.0.6, SVG Export Plug-In . SVG Version: 6.00 Build 0)  -->
<svg version="1.1" id="Capa_1" xmlns="http://www.w3.org/2000/svg" xmlns:xlink="http://www.w3.org/1999/xlink" x="0px" y="0px"
	 viewBox="0 0 512 512" style="enable-background:new 0 0 512 512;" xml:space="preserve">
<g>
	<path d="M394.412,271.797c4.723-8.162,5.421-17.334,6.097-26.205c0.396-5.205,0.771-10.122,1.936-14.479
		c1.096-4.099,3.175-8.396,5.377-12.944c3.743-7.734,7.986-16.5,7.986-26.297s-4.243-18.563-7.986-26.297
		c-2.202-4.548-4.281-8.845-5.376-12.943c-1.165-4.357-1.539-9.274-1.935-14.48c-0.675-8.869-1.374-18.041-6.095-26.202
		c-4.79-8.279-12.433-13.476-19.825-18.502c-4.268-2.902-8.299-5.644-11.408-8.752c-2.929-2.93-7.678-2.929-10.606,0
		s-2.929,7.677,0,10.606c4.11,4.11,8.924,7.384,13.581,10.55c6.275,4.267,12.202,8.297,15.276,13.61
		c3.008,5.2,3.549,12.306,4.122,19.829c0.431,5.66,0.876,11.512,2.401,17.215c1.464,5.476,3.956,10.625,6.366,15.604
		c3.336,6.893,6.487,13.403,6.487,19.762s-3.151,12.869-6.487,19.762c-2.411,4.98-4.903,10.13-6.367,15.606
		c-1.524,5.703-1.97,11.555-2.401,17.214c-0.573,7.524-1.114,14.631-4.124,19.832c-3.075,5.313-9.002,9.344-15.277,13.611
		c-4.656,3.166-9.471,6.439-13.581,10.549c-4.11,4.11-7.383,8.924-10.549,13.58c-4.267,6.275-8.296,12.202-13.61,15.276
		c-5.2,3.009-12.306,3.549-19.83,4.122c-5.659,0.431-11.511,0.876-17.214,2.401c-5.477,1.463-10.626,3.956-15.606,6.366
		c-6.893,3.336-13.403,6.487-19.76,6.487c-6.358,0-12.87-3.151-19.763-6.487c-4.98-2.41-10.129-4.902-15.605-6.366
		c-5.704-1.524-11.556-1.97-17.215-2.401c-7.523-0.573-14.63-1.114-19.83-4.123c-5.314-3.075-9.345-9.002-13.612-15.278
		c-3.166-4.656-6.439-9.47-10.549-13.58c-4.11-4.11-8.924-7.383-13.58-10.549c-6.275-4.267-12.203-8.297-15.277-13.611
		c-3.008-5.2-3.549-12.306-4.122-19.829c-0.431-5.66-0.876-11.512-2.401-17.215c-1.464-5.477-3.956-10.626-6.366-15.605
		c-3.336-6.893-6.487-13.403-6.487-19.761c0-6.358,3.151-12.87,6.488-19.763c2.41-4.979,4.902-10.129,6.366-15.605
		c1.524-5.703,1.97-11.555,2.401-17.214c0.573-7.524,1.114-14.631,4.124-19.832c3.075-5.313,9.002-9.344,15.277-13.611
		c4.656-3.166,9.471-6.439,13.581-10.549c4.11-4.11,7.383-8.924,10.549-13.58c4.267-6.275,8.296-12.202,13.61-15.276
		c5.201-3.009,12.307-3.549,19.83-4.122c5.659-0.431,11.511-0.876,17.214-2.4c5.477-1.464,10.626-3.956,15.605-6.366
		c6.893-3.336,13.403-6.487,19.761-6.487c6.359,0,12.87,3.151,19.763,6.488c4.98,2.41,10.129,4.902,15.605,6.366
		c5.703,1.524,11.555,1.97,17.214,2.401c7.524,0.573,14.63,1.114,19.833,4.125c1.251,0.724,2.457,1.615,3.684,2.725
		c3.072,2.778,7.815,2.539,10.593-0.533c2.778-3.072,2.54-7.815-0.533-10.593c-2.02-1.826-4.059-3.325-6.233-4.583
		c-8.163-4.723-17.334-5.421-26.205-6.097c-5.205-0.396-10.122-0.771-14.479-1.936c-4.099-1.096-8.396-3.175-12.944-5.377
		c-7.734-3.743-16.5-7.986-26.298-7.986c-9.797,0-18.563,4.243-26.296,7.985c-4.549,2.202-8.846,4.281-12.944,5.377
		c-4.357,1.165-9.274,1.539-14.479,1.935c-8.87,0.675-18.042,1.374-26.204,6.096c-8.279,4.79-13.477,12.434-18.502,19.825
		c-2.902,4.268-5.643,8.299-8.751,11.408c-3.109,3.108-7.14,5.85-11.409,8.751c-7.392,5.026-15.036,10.224-19.827,18.503
		c-4.723,8.162-5.421,17.334-6.097,26.205c-0.396,5.206-0.771,10.123-1.936,14.48c-1.096,4.098-3.175,8.395-5.377,12.944
		c-3.743,7.734-7.986,16.5-7.986,26.298c0,9.797,4.243,18.563,7.985,26.296c2.202,4.549,4.281,8.846,5.377,12.944
		c1.165,4.357,1.539,9.274,1.935,14.479c0.675,8.87,1.374,18.041,6.095,26.202c4.79,8.28,12.434,13.477,19.826,18.503
		c4.268,2.901,8.299,5.643,11.407,8.751c3.109,3.109,5.85,7.14,8.751,11.408c5.026,7.393,10.224,15.037,18.504,19.828
		c8.162,4.723,17.333,5.421,26.203,6.096c5.206,0.396,10.123,0.771,14.481,1.936c4.099,1.096,8.396,3.175,12.944,5.377
		c7.734,3.743,16.5,7.985,26.297,7.985c9.797,0,18.562-4.242,26.295-7.985c4.549-2.202,8.846-4.281,12.945-5.377
		c4.357-1.165,9.274-1.539,14.479-1.935c8.869-0.675,18.041-1.374,26.203-6.096c8.279-4.79,13.477-12.434,18.502-19.825
		c2.902-4.268,5.643-8.299,8.751-11.408c3.109-3.108,7.14-5.85,11.409-8.751C381.977,285.274,389.621,280.077,394.412,271.797z"/>
	<path d="M359.981,353.051c52.846-34.21,87.89-93.677,87.89-161.18C447.871,86.073,361.798,0,256,0S64.129,86.073,64.129,191.871
		c0,67.503,35.044,126.969,87.89,161.179L96.951,466.115c-1.182,2.426-0.969,5.299,0.557,7.525c1.525,2.225,4.13,3.463,6.817,3.232
		l32.626-2.755c6.138-0.521,12.019,2.385,15.337,7.578l17.154,26.843c1.383,2.164,3.77,3.461,6.318,3.461
		c0.145,0,0.289-0.004,0.434-0.013c2.709-0.156,5.122-1.764,6.31-4.203L243.134,383.3c4.254,0.283,8.542,0.441,12.866,0.441
		s8.612-0.158,12.866-0.441l60.629,124.484c1.174,2.411,3.546,4.011,6.221,4.198c0.175,0.012,0.349,0.018,0.523,0.018
		c2.483,0,4.821-1.233,6.22-3.312l18.396-27.324c3.359-4.99,9.167-7.765,15.161-7.244l31.641,2.75
		c2.688,0.234,5.3-0.997,6.831-3.224c1.53-2.227,1.745-5.104,0.562-7.532L359.981,353.051z M174.877,489.188l-9.95-15.57
		c-6.328-9.9-17.532-15.438-29.239-14.448l-19.471,1.645l48.745-100.083c7.327,3.966,14.944,7.46,22.802,10.46l-33.72,69.233
		c-1.814,3.724-0.265,8.213,3.458,10.027c1.058,0.515,2.176,0.759,3.279,0.759c2.779,0,5.45-1.551,6.748-4.217l34.566-70.971
		c8.184,2.4,16.591,4.274,25.185,5.569L174.877,489.188z M79.129,191.871C79.129,94.344,158.473,15,256,15
		s176.871,79.344,176.871,176.871S353.527,368.742,256,368.742S79.129,289.398,79.129,191.871z M377.315,459.177
		c-11.428-0.995-22.5,4.298-28.903,13.811l-11.129,16.53l-52.565-107.926c8.594-1.296,17-3.17,25.185-5.569l34.566,70.971
		c1.299,2.667,3.969,4.217,6.748,4.217c1.102,0,2.221-0.244,3.279-0.759c3.724-1.813,5.272-6.303,3.458-10.027l-33.72-69.233
		c7.859-3,15.476-6.494,22.802-10.46l48.729,100.049L377.315,459.177z"/>
	<path d="M358.887,165.71c-2.201-6.773-8.226-11.15-15.348-11.15H288.39l-17.042-52.451c-2.201-6.774-8.226-11.151-15.348-11.151
		s-13.146,4.377-15.348,11.151l-17.042,52.45H168.46c-7.122,0-13.146,4.377-15.348,11.15c-2.201,6.774,0.1,13.856,5.862,18.043
		l44.617,32.416l-2.496,7.684c-1.28,3.939,0.876,8.17,4.815,9.45c3.94,1.282,8.17-0.876,9.45-4.815l4.18-12.866
		c1.004-3.09-0.096-6.475-2.725-8.385l-49.025-35.618c-0.217-0.158-0.669-0.486-0.413-1.272c0.255-0.786,0.813-0.786,1.082-0.786
		h60.599c3.249,0,6.129-2.092,7.133-5.183l18.726-57.632c0.083-0.255,0.255-0.787,1.082-0.787s0.999,0.531,1.082,0.786
		l18.726,57.633c1.004,3.09,3.884,5.183,7.133,5.183h60.599c0.268,0,0.826,0,1.082,0.786c0.256,0.786-0.196,1.114-0.413,1.271
		l-49.025,35.619c-2.629,1.91-3.729,5.295-2.725,8.385l18.726,57.633c0.083,0.255,0.255,0.786-0.413,1.271
		c-0.667,0.486-1.12,0.158-1.337,0l-49.025-35.619c-2.628-1.91-6.188-1.91-8.816,0l-49.025,35.619c-0.218,0.158-0.67,0.485-1.337,0
		c-0.668-0.485-0.496-1.017-0.413-1.272l4.813-14.813c1.28-3.939-0.876-8.17-4.815-9.45c-3.94-1.283-8.17,0.876-9.45,4.815
		l-4.813,14.813c-2.201,6.774,0.1,13.856,5.861,18.042c5.762,4.187,13.209,4.188,18.971,0L256,254.246l44.617,32.417
		c2.881,2.093,6.183,3.14,9.485,3.14s6.604-1.047,9.486-3.14c5.762-4.187,8.063-11.269,5.861-18.042l-17.042-52.451l44.617-32.416
		C358.787,179.566,361.088,172.484,358.887,165.71z"/>
</g>
<g>
</g>
<g>
</g>
<g>
</g>
<g>
</g>
<g>
</g>
<g>
</g>
<g>
</g>
<g>
</g>
<g>
</g>
<g>
</g>
<g>
</g>
<g>
</g>
<g>
</g>
<g>
</g>
<g>
</g>
</svg>
