<svg id="Layer" enable-background="new 0 0 64 64" height="512" viewBox="0 0 64 64" width="512" xmlns="http://www.w3.org/2000/svg"><path d="m32 56c13.233 0 24-10.766 24-24s-10.767-24-24-24-24 10.766-24 24 10.767 24 24 24zm0-44c11.028 0 20 8.972 20 20s-8.972 20-20 20-20-8.972-20-20 8.972-20 20-20z"/><path d="m27.267 41.602c.563.271 1.163.402 1.754.402.876 0 1.734-.29 2.428-.846l8.05-6.035c.953-.763 1.501-1.901 1.501-3.123s-.548-2.36-1.502-3.124c-.017-.013-.033-.026-.05-.038l-7.95-5.958c-1.213-.969-2.831-1.153-4.231-.481-1.399.672-2.267 2.053-2.267 3.605v11.992c0 1.552.868 2.933 2.267 3.606zm1.783-15.56 7.948 5.958-7.998 5.996z"/></svg>