<svg xmlns="http://www.w3.org/2000/svg" viewBox="0 0 512 512"><title>Retail - Lineal Color</title><g id="_17_Gift" data-name="17 Gift"><path d="M218.12,160.56l-38.75-38.75L255.59,45.6A2,2,0,0,1,259,47V78.92a2,2,0,0,0,2,2h31.91a2,2,0,0,1,1.41,3.41Z" style="fill:#8cbafa"/><path d="M128.16,160.56l38.75-38.75L90.7,45.6A2,2,0,0,0,87.28,47V78.92a2,2,0,0,1-2,2H53.36a2,2,0,0,0-1.41,3.41Z" style="fill:#8cbafa"/><path d="M218.12,168.06a7.48,7.48,0,0,1-5.3-2.2l-38.75-38.75a7.5,7.5,0,0,1,0-10.61L250.28,40.3A9.5,9.5,0,0,1,266.5,47V73.43h26.42a9.5,9.5,0,0,1,6.71,16.22l-76.21,76.21A7.48,7.48,0,0,1,218.12,168.06ZM190,121.81,218.12,150l61.53-61.53H261a9.51,9.51,0,0,1-9.5-9.5V60.29Z"/><path d="M128.16,168.06a7.5,7.5,0,0,1-5.3-2.2L46.64,89.65a9.5,9.5,0,0,1,6.71-16.22H79.77V47A9.5,9.5,0,0,1,96,40.3l76.21,76.21a7.5,7.5,0,0,1,0,10.61l-38.75,38.75A7.5,7.5,0,0,1,128.16,168.06ZM66.63,88.43,128.16,150l28.14-28.14L94.78,60.29V78.93a9.51,9.51,0,0,1-9.5,9.5Z"/><circle cx="173.14" cy="125.33" r="37.84" style="fill:#5692d8"/><path d="M173.14,170.67a45.34,45.34,0,1,1,45.34-45.34A45.4,45.4,0,0,1,173.14,170.67Zm0-75.69a30.34,30.34,0,1,0,30.34,30.34A30.38,30.38,0,0,0,173.14,95Z"/><rect x="7.5" y="125.33" width="331.28" height="58.41" rx="11.93" ry="11.93" style="fill:#ed5176"/><path d="M326.85,125.33h-23.5a11.93,11.93,0,0,1,11.93,11.93v34.55a11.93,11.93,0,0,1-11.93,11.93h23.5a11.93,11.93,0,0,0,11.93-11.93V137.26A11.93,11.93,0,0,0,326.85,125.33Z" style="fill:#ba365f"/><path d="M326.85,191.24H19.43A19.45,19.45,0,0,1,0,171.81V137.26a19.45,19.45,0,0,1,19.43-19.43H326.85a19.45,19.45,0,0,1,19.43,19.43v34.55A19.45,19.45,0,0,1,326.85,191.24ZM19.43,132.83A4.43,4.43,0,0,0,15,137.26v34.55a4.43,4.43,0,0,0,4.43,4.43H326.85a4.43,4.43,0,0,0,4.43-4.43V137.26a4.43,4.43,0,0,0-4.43-4.43Z"/><path d="M32,437.24V183.74H314.26v253.5a5.39,5.39,0,0,1-5.39,5.39H37.41A5.39,5.39,0,0,1,32,437.24Z" style="fill:#e9e9ea"/><path d="M288.75,183.74v253.5a5.39,5.39,0,0,1-5.39,5.39h25.51a5.39,5.39,0,0,0,5.39-5.39V183.74Z" style="fill:#c5c4cc"/><rect x="32.03" y="183.74" width="282.23" height="22.5" style="fill:#c5c4cc"/><path d="M308.87,450.13H37.41a12.9,12.9,0,0,1-12.89-12.89V269a7.5,7.5,0,0,1,15,0V435.13H306.76V282.59a7.5,7.5,0,0,1,15,0V437.24A12.9,12.9,0,0,1,308.87,450.13Z"/><path d="M32,246.51a7.5,7.5,0,0,1-7.5-7.5V183.74a7.5,7.5,0,0,1,7.5-7.5H314.26a7.5,7.5,0,0,1,7.5,7.5v44a7.5,7.5,0,1,1-15,0V191.24H39.52V239A7.5,7.5,0,0,1,32,246.51Z"/><rect x="141.77" y="125.33" width="62.75" height="58.41" style="fill:#8cbafa"/><path d="M204.52,191.24H141.77a7.5,7.5,0,0,1-7.5-7.5V125.33a7.5,7.5,0,0,1,7.5-7.5h62.75a7.5,7.5,0,0,1,7.5,7.5v58.41A7.5,7.5,0,0,1,204.52,191.24Zm-55.25-15H197V132.83H149.27Z"/><rect x="141.77" y="183.74" width="62.75" height="258.88" style="fill:#8cbafa"/><rect x="141.77" y="183.74" width="62.75" height="22.5" style="fill:#5692d8"/><path d="M204.52,450.13H141.77a7.5,7.5,0,0,1-7.5-7.5V183.74a7.5,7.5,0,0,1,7.5-7.5h62.75a7.5,7.5,0,0,1,7.5,7.5V442.63A7.5,7.5,0,0,1,204.52,450.13Zm-55.25-15H197V191.24H149.27Z"/><rect x="173.07" y="257.75" width="282.73" height="209.24" rx="11.58" ry="11.58" style="fill:#ffcd34"/><path d="M444.21,257.75h-25a11.58,11.58,0,0,1,11.58,11.58V455.41A11.58,11.58,0,0,1,419.21,467h25a11.58,11.58,0,0,0,11.58-11.58V269.33A11.58,11.58,0,0,0,444.21,257.75Z" style="fill:#e69012"/><path d="M444.21,474.49H184.65a19.11,19.11,0,0,1-19.08-19.08V269.33a19.1,19.1,0,0,1,19.08-19.08H444.21a19.1,19.1,0,0,1,19.08,19.08v13.79a7.5,7.5,0,0,1-15,0V269.33a4.09,4.09,0,0,0-4.08-4.08H184.65a4.09,4.09,0,0,0-4.08,4.08V455.41a4.09,4.09,0,0,0,4.08,4.08H444.21a4.09,4.09,0,0,0,4.08-4.08V325a7.5,7.5,0,0,1,15,0V455.41A19.1,19.1,0,0,1,444.21,474.49Z"/><rect x="173.07" y="361.41" width="282.73" height="31.93" style="fill:#ba365f"/><path d="M455.8,400.84H173.07a7.5,7.5,0,0,1-7.5-7.5V361.41a7.5,7.5,0,0,1,7.5-7.5H455.8a7.5,7.5,0,0,1,7.5,7.5v31.93A7.5,7.5,0,0,1,455.8,400.84Zm-275.23-15H448.3V368.91H180.57Z"/><rect x="372.7" y="257.75" width="31.93" height="209.24" style="fill:#ed5176"/><path d="M404.62,474.49H372.7a7.5,7.5,0,0,1-7.5-7.5V257.75a7.5,7.5,0,0,1,7.5-7.5h31.93a7.5,7.5,0,0,1,7.5,7.5V467A7.5,7.5,0,0,1,404.62,474.49Zm-24.43-15h16.93V265.25H380.2Z"/><path d="M490.18,407.44l-83.33-8.37-10.71-46.39,71.23-44.06a13,13,0,0,1,19.84,12.11,115.44,115.44,0,0,0,15.5,67.13A13,13,0,0,1,490.18,407.44Z" style="fill:#ff76a4"/><path d="M310,449,381.18,405,370.47,358.6l-83.33-8.37a13,13,0,0,0-12.52,19.58,115.44,115.44,0,0,1,15.5,67.13A13,13,0,0,0,310,449Z" style="fill:#ff76a4"/><path d="M491.52,415a20.82,20.82,0,0,1-2.08-.1l-83.33-8.37a7.5,7.5,0,0,1-6.56-5.78l-10.71-46.39a7.5,7.5,0,0,1,3.36-8.07l71.23-44.06a20.54,20.54,0,0,1,31.27,19A108.59,108.59,0,0,0,509.2,384.1a20.59,20.59,0,0,1-.52,21.55A20.38,20.38,0,0,1,491.52,415Zm-78.57-22.87,78,7.84a5.33,5.33,0,0,0,5.15-2.46,5.53,5.53,0,0,0,.12-5.91,123.33,123.33,0,0,1-16.48-71.39,5.53,5.53,0,0,0-2.7-5.26,5.34,5.34,0,0,0-5.71,0l-66.65,41.23Z"/><path d="M303.16,458.52a20.29,20.29,0,0,1-2.26-.13,7.5,7.5,0,1,1,1.66-14.91,5.32,5.32,0,0,0,3.45-.82l66.65-41.23-8.29-35.92-78-7.84a5.33,5.33,0,0,0-5.15,2.46,5.53,5.53,0,0,0-.12,5.91A123,123,0,0,1,297.88,425a7.5,7.5,0,0,1-15,.38,108.17,108.17,0,0,0-14.76-51.82,20.54,20.54,0,0,1,19.77-30.79l83.33,8.37a7.5,7.5,0,0,1,6.56,5.78l10.71,46.39a7.5,7.5,0,0,1-3.36,8.07L313.9,455.42A20.32,20.32,0,0,1,303.16,458.52Z"/><path d="M380.29,342.59a25,25,0,0,0-18.73,30l5.49,23.78a25,25,0,0,0,48.7-11.24l-5.49-23.78A25,25,0,0,0,380.29,342.59Z" style="fill:#ba365f"/><path d="M391.34,423.22A32.52,32.52,0,0,1,359.75,398l-5.49-23.78a32.49,32.49,0,1,1,63.31-14.62l5.49,23.78a32.49,32.49,0,0,1-24.35,39A32.77,32.77,0,0,1,391.34,423.22Zm-5.39-73.78a17.63,17.63,0,0,0-4,.45h0a17.51,17.51,0,0,0-13.11,21l5.49,23.78a17.49,17.49,0,1,0,34.08-7.87L403,363a17.51,17.51,0,0,0-17-13.56Zm-5.65-6.85h0Z"/></g></svg>