<?xml version="1.0" encoding="iso-8859-1"?>
<!-- Generator: Adobe Illustrator 22.0.0, SVG Export Plug-In . SVG Version: 6.00 Build 0)  -->
<svg version="1.1" id="Capa_1" xmlns="http://www.w3.org/2000/svg" xmlns:xlink="http://www.w3.org/1999/xlink" x="0px" y="0px"
	 viewBox="0 0 511.955 511.955" style="enable-background:new 0 0 511.955 511.955;" xml:space="preserve">
<g>
	<g>
		<path d="M401.698,175.307H351.12v-40.162c0-4.136-3.353-7.49-7.49-7.49c-4.137,0-7.49,3.353-7.49,7.49v40.162h-30.932V95.143
			c0-27.147-22.086-49.232-49.232-49.232s-49.232,22.085-49.232,49.232v80.164h-30.932V95.143c0-44.203,35.961-80.164,80.163-80.164
			c20.149,0,39.408,7.503,54.232,21.127c14.735,13.544,23.83,31.933,25.609,51.779c0.369,4.12,4.025,7.156,8.128,6.791
			c4.119-0.37,7.16-4.009,6.791-8.128c-2.112-23.568-12.905-45.398-30.392-61.47C302.75,8.906,279.891,0,255.977,0
			c-52.462,0-95.143,42.681-95.143,95.143v80.164h-50.577c-22.065,0-40.016,17.951-40.016,40.015v56.143v31.948
			c0,4.136,3.353,7.49,7.49,7.49s7.49-3.353,7.49-7.49v-24.458h341.514V471.94c0,13.805-11.231,25.036-25.037,25.036h-291.44
			c-13.805,0-25.037-11.231-25.037-25.036v-123.59c0-4.136-3.353-7.49-7.49-7.49s-7.49,3.353-7.49,7.49v123.59
			c0,22.064,17.951,40.015,40.016,40.015h291.44c22.065,0,40.016-17.951,40.016-40.015V271.465v-56.143
			C441.713,193.257,423.763,175.307,401.698,175.307z M221.725,95.143c0-18.887,15.365-34.252,34.252-34.252
			s34.252,15.365,34.252,34.252v80.164h-68.505V95.143z M426.734,263.975H85.22v-48.653c0-13.805,11.231-25.036,25.037-25.036
			h58.067h45.911h83.484h45.911h58.067c13.805,0,25.037,11.231,25.037,25.036V263.975z"/>
		<path d="M255.977,429.97c12.486,0,22.644-10.158,22.644-22.644v-17.942c0-0.88,0.406-1.703,1.115-2.26
			c9.381-7.358,14.76-18.406,14.76-30.312c0-10.938-4.676-21.4-12.829-28.702c-8.147-7.296-19.095-10.787-30.048-9.577
			c-18.085,1.999-32.044,16.038-33.943,34.14c-1.406,13.396,4.077,26.312,14.67,34.55c0.618,0.481,0.988,1.289,0.988,2.162v17.94
			C233.334,419.813,243.492,429.97,255.977,429.97z M232.573,354.238c1.158-11.037,9.667-19.596,20.691-20.815
			c0.917-0.101,1.828-0.151,2.732-0.151c5.818,0,11.306,2.082,15.678,5.998c4.984,4.464,7.843,10.858,7.843,17.543
			c0,7.274-3.289,14.026-9.026,18.526c-4.353,3.415-6.85,8.534-6.85,14.045v17.942c0,4.226-3.439,7.664-7.664,7.664
			s-7.664-3.438-7.664-7.664v-17.94c0-5.46-2.532-10.688-6.772-13.986C235.063,370.362,231.711,362.452,232.573,354.238z"/>
		<path d="M185.528,201.399c-14.188,0-25.731,11.543-25.731,25.731s11.543,25.731,25.731,25.731
			c14.188,0,25.731-11.543,25.731-25.731S199.716,201.399,185.528,201.399z M185.528,237.882c-5.928,0-10.752-4.823-10.752-10.752
			s4.823-10.752,10.752-10.752c5.928,0,10.752,4.823,10.752,10.752S191.456,237.882,185.528,237.882z"/>
		<path d="M255.977,201.399c-14.188,0-25.731,11.543-25.731,25.731s11.543,25.731,25.731,25.731s25.731-11.543,25.731-25.731
			S270.166,201.399,255.977,201.399z M255.977,237.882c-5.928,0-10.752-4.823-10.752-10.752s4.823-10.752,10.752-10.752
			s10.752,4.823,10.752,10.752S261.906,237.882,255.977,237.882z"/>
		<path d="M326.427,201.399c-14.188,0-25.731,11.543-25.731,25.731s11.543,25.731,25.731,25.731
			c14.188,0,25.731-11.543,25.731-25.731S340.615,201.399,326.427,201.399z M326.427,237.882c-5.928,0-10.752-4.823-10.752-10.752
			s4.823-10.752,10.752-10.752c5.928,0,10.752,4.823,10.752,10.752S332.355,237.882,326.427,237.882z"/>
	</g>
</g>
<g>
</g>
<g>
</g>
<g>
</g>
<g>
</g>
<g>
</g>
<g>
</g>
<g>
</g>
<g>
</g>
<g>
</g>
<g>
</g>
<g>
</g>
<g>
</g>
<g>
</g>
<g>
</g>
<g>
</g>
</svg>
