<svg xmlns="http://www.w3.org/2000/svg" viewBox="0 0 512 512"><title>Retail - Lineal</title><g id="_1_Shopping_cart" data-name="1 Shopping cart"><path d="M19.43,191.24h5.1V239a7.5,7.5,0,0,0,15,0V191.24h94.75V435.12H39.53V269a7.5,7.5,0,0,0-15,0V437.24a12.89,12.89,0,0,0,12.88,12.88H165.57v5.29a19.1,19.1,0,0,0,19.08,19.08H444.21a19.11,19.11,0,0,0,19.09-19.08V412.28l26.14,2.63q1,.1,2.07.1a20.55,20.55,0,0,0,17.69-30.9,108.54,108.54,0,0,1-14.5-62.85,20.55,20.55,0,0,0-31.27-19L412.12,334V265.25h32.09a4.09,4.09,0,0,1,4.09,4.08v13.79a7.5,7.5,0,0,0,15,0V269.33a19.11,19.11,0,0,0-19.09-19.08H212v-59h94.74v36.51a7.5,7.5,0,1,0,15,0V191.24h5.1a19.45,19.45,0,0,0,19.43-19.43V137.26a19.45,19.45,0,0,0-19.43-19.43H271.46l28.18-28.18a9.5,9.5,0,0,0-6.72-16.21l-26.42,0V47a9.5,9.5,0,0,0-16.21-6.71L201,89.58a45.2,45.2,0,0,0-55.7,0L96,40.3A9.5,9.5,0,0,0,79.78,47V73.42l-26.41,0a9.5,9.5,0,0,0-6.71,16.21l28.18,28.18H19.43A19.45,19.45,0,0,0,0,137.26v34.55A19.45,19.45,0,0,0,19.43,191.24Zm177.59-15H149.27V132.83H197Zm168.18,89V341.9a32.54,32.54,0,0,0-6.84,7.82l-.07.11-70.4-7.08A20.39,20.39,0,0,0,268.64,352a20.82,20.82,0,0,0-1.08,1.91h-87V269.33a4.09,4.09,0,0,1,4.08-4.08ZM382,349.9a17.63,17.63,0,0,1,4-.45,17.37,17.37,0,0,1,9.23,2.66,17.68,17.68,0,0,1,2.64,2l.13.12a17.37,17.37,0,0,1,5,8.76l5.49,23.78a17.49,17.49,0,0,1-26.31,18.77,17.67,17.67,0,0,1-2.66-2l-.1-.09a17.37,17.37,0,0,1-5-8.77l-5.49-23.78A17.51,17.51,0,0,1,382,349.9Zm-115.83,19a20.89,20.89,0,0,0,2,4.65,114.62,114.62,0,0,1,6.14,12.28h-93.7V368.91Zm-85.58,86.5V400.84H279.4a106.86,106.86,0,0,1,3.48,24.54,7.5,7.5,0,0,0,7.49,7.31h.19a7.5,7.5,0,0,0,7.31-7.69,121.65,121.65,0,0,0-5.57-33.58q-.08-.32-.2-.63a127.16,127.16,0,0,0-11-24.73,5.49,5.49,0,0,1-.74-3.63v0a5.89,5.89,0,0,1,.86-2.24,5.33,5.33,0,0,1,5.15-2.46l67.12,6.75a32.58,32.58,0,0,0,.75,9.82L359.75,398a32.58,32.58,0,0,0,3.63,9.15L306,442.67a5.26,5.26,0,0,1-3.43.81,7.5,7.5,0,0,0-1.66,14.91,20.46,20.46,0,0,0,2.26.13,20.21,20.21,0,0,0,10.73-3.1l51.31-31.73v35.8H184.65A4.09,4.09,0,0,1,180.57,455.41Zm199.63,4.08V421.22a32.09,32.09,0,0,0,11.14,2,32.68,32.68,0,0,0,5.78-.52v36.79Zm68.1-4.08a4.09,4.09,0,0,1-4.09,4.08H412.12V415.76a32.54,32.54,0,0,0,6.84-7.82l.07-.11,29.28,2.94Zm23-140.42a5.34,5.34,0,0,1,5.7,0,5.53,5.53,0,0,1,2.71,5.26A123.28,123.28,0,0,0,496.2,391.6a5.52,5.52,0,0,1-.12,5.91,5.35,5.35,0,0,1-5.15,2.47l-34.27-3.44-.19,0-32.66-3.28a32.57,32.57,0,0,0-.75-9.82l-5.49-23.78a32.58,32.58,0,0,0-3.63-9.15Zm-74.2-49.74v71.19A32.19,32.19,0,0,0,380.2,335v-69.7Zm-212.47-15a19.1,19.1,0,0,0-19.08,19.08V435.12h-16.3V191.24H197v59Zm146.63-113v34.55a4.43,4.43,0,0,1-4.43,4.43H212V132.83H326.85A4.43,4.43,0,0,1,331.28,137.26Zm-79.78-77V78.92a9.51,9.51,0,0,0,9.5,9.5h18.64l-29.4,29.4H217.86a45.06,45.06,0,0,0-6.71-17.19Zm-49,57.54H143.74a30.35,30.35,0,0,1,58.81,0ZM66.64,88.43H85.27a9.51,9.51,0,0,0,9.5-9.5V60.28l40.36,40.36a45.07,45.07,0,0,0-6.71,17.19H96ZM15,137.26a4.43,4.43,0,0,1,4.43-4.43H134.27v43.41H19.43A4.43,4.43,0,0,1,15,171.81Z"/></g></svg>