<?xml version="1.0" encoding="iso-8859-1"?>
<!-- Generator: Adobe Illustrator 22.0.0, SVG Export Plug-In . SVG Version: 6.00 Build 0)  -->
<svg version="1.1" id="Capa_1" xmlns="http://www.w3.org/2000/svg" xmlns:xlink="http://www.w3.org/1999/xlink" x="0px" y="0px"
	 viewBox="0 0 511.955 511.955" style="enable-background:new 0 0 511.955 511.955;" xml:space="preserve">
<g>
	<g>
		<path style="fill:#838383;" d="M168.324,95.143v87.653h45.911V95.143c0-23.053,18.689-41.742,41.742-41.742h0
			c23.053,0,41.742,18.689,41.742,41.742v87.654h45.911V95.143c0-48.41-39.244-87.653-87.653-87.653h0
			C207.568,7.489,168.324,46.733,168.324,95.143z"/>
	</g>
	<g>
		<path style="fill:#5A5A5A;" d="M343.626,95.145v87.649h-21.231V95.145c0-44.818-33.633-81.777-77.033-87.01
			c3.475-0.429,7.02-0.649,10.615-0.649C304.39,7.486,343.626,46.732,343.626,95.145z"/>
	</g>
	<g>
		<path style="fill:#FFD86E;" d="M401.698,504.465H110.257c-17.963,0-32.525-14.562-32.525-32.525V215.322
			c0-17.963,14.562-32.525,32.525-32.525h291.441c17.963,0,32.525,14.562,32.525,32.525v256.618
			C434.223,489.903,419.661,504.465,401.698,504.465z"/>
	</g>
	<g>
		<path style="fill:#FFB509;" d="M434.221,215.318v256.625c0,17.955-14.56,32.525-32.525,32.525h-31.705
			c17.965,0,32.525-14.57,32.525-32.525V215.318c0-17.955-14.56-32.525-32.525-32.525h31.705
			C419.661,182.794,434.221,197.363,434.221,215.318z"/>
	</g>
	<g>
		<path style="fill:#80E0DC;" d="M434.223,271.465H77.731v-56.143c0-17.963,14.562-32.525,32.525-32.525h291.441
			c17.963,0,32.525,14.562,32.525,32.525V271.465z"/>
	</g>
	<g>
		<path style="fill:#00A8B0;" d="M434.221,215.318v56.142h-31.706v-56.142c0-17.955-14.56-32.525-32.525-32.525h31.706
			C419.661,182.794,434.221,197.363,434.221,215.318z"/>
	</g>
	<g>
		<path style="fill:#838383;" d="M287.007,356.813c0-18.302-15.845-32.903-34.565-30.834c-14.541,1.607-25.79,12.928-27.318,27.478
			c-1.188,11.311,3.71,21.549,11.819,27.856c2.48,1.928,3.88,4.932,3.88,8.074v17.941c0,8.369,6.785,15.154,15.154,15.154h0
			c8.369,0,15.154-6.785,15.154-15.154v-17.942c0-3.187,1.476-6.186,3.983-8.152C282.354,375.553,287.007,366.728,287.007,356.813z"
			/>
	</g>
	<g>
		<path style="fill:#5A5A5A;" d="M287.004,356.813c0,9.916-4.654,18.744-11.894,24.416c-2.507,1.967-3.975,4.973-3.975,8.159v17.935
			c0,4.194-1.698,7.979-4.444,10.725c-2.746,2.736-6.531,4.434-10.715,4.434c-4.284,0-8.149-1.778-10.905-4.634
			c2.437-0.719,4.624-2.047,6.371-3.795c2.746-2.746,4.444-6.531,4.444-10.725v-17.935c0-3.186,1.478-6.191,3.984-8.159
			c7.24-5.672,11.894-14.5,11.894-24.416c0-11.594-6.371-21.72-15.798-27.043C273.114,325.776,287.004,339.666,287.004,356.813z"/>
	</g>
	<g>
		<g>
			<circle style="fill:#FFD86E;" cx="185.528" cy="227.131" r="18.241"/>
		</g>
		<g>
			<circle style="fill:#FFD86E;" cx="255.977" cy="227.131" r="18.241"/>
		</g>
		<g>
			<circle style="fill:#FFD86E;" cx="326.427" cy="227.131" r="18.241"/>
		</g>
	</g>
	<g>
		<g>
			<path style="fill:#FFB509;" d="M203.77,227.132c0,10.076-8.169,18.245-18.245,18.245c-7.09,0-13.242-4.054-16.248-9.966
				c1.588,0.459,3.266,0.699,5.003,0.699c10.066,0,18.235-8.169,18.235-18.245c0-2.976-0.719-5.792-1.987-8.279
				C198.177,211.753,203.77,218.794,203.77,227.132z"/>
		</g>
		<g>
			<path style="fill:#FFB509;" d="M274.222,227.132c0,10.076-8.169,18.245-18.245,18.245c-7.09,0-13.242-4.054-16.257-9.966
				c1.588,0.459,3.265,0.699,5.003,0.699c10.076,0,18.245-8.169,18.245-18.245c0-2.976-0.709-5.782-1.977-8.269
				C268.63,211.763,274.222,218.794,274.222,227.132z"/>
		</g>
		<g>
			<path style="fill:#FFB509;" d="M344.665,227.132c0,10.076-8.159,18.245-18.235,18.245c-7.1,0-13.252-4.054-16.267-9.976
				c1.588,0.469,3.275,0.709,5.013,0.709c10.076,0,18.245-8.169,18.245-18.245c0-2.976-0.719-5.792-1.987-8.279
				C339.072,211.753,344.665,218.794,344.665,227.132z"/>
		</g>
	</g>
	<g>
		<path d="M401.698,175.307H351.12v-40.162c0-4.136-3.353-7.49-7.49-7.49c-4.137,0-7.49,3.353-7.49,7.49v40.162h-30.932V95.143
			c0-27.147-22.086-49.232-49.232-49.232s-49.232,22.085-49.232,49.232v80.164h-30.932V95.143c0-44.203,35.961-80.164,80.163-80.164
			c20.149,0,39.408,7.503,54.232,21.127c14.735,13.544,23.83,31.933,25.609,51.779c0.369,4.12,4.025,7.156,8.128,6.791
			c4.119-0.37,7.16-4.009,6.791-8.128c-2.112-23.568-12.905-45.398-30.392-61.47C302.75,8.906,279.891,0,255.977,0
			c-52.462,0-95.143,42.681-95.143,95.143v80.164h-50.577c-22.065,0-40.016,17.951-40.016,40.015v56.143v31.948
			c0,4.136,3.353,7.49,7.49,7.49s7.49-3.353,7.49-7.49v-24.458h341.514V471.94c0,13.805-11.231,25.036-25.037,25.036h-291.44
			c-13.805,0-25.037-11.231-25.037-25.036v-123.59c0-4.136-3.353-7.49-7.49-7.49s-7.49,3.353-7.49,7.49v123.59
			c0,22.064,17.951,40.015,40.016,40.015h291.44c22.065,0,40.016-17.951,40.016-40.015V271.465v-56.143
			C441.713,193.257,423.763,175.307,401.698,175.307z M221.725,95.143c0-18.887,15.365-34.252,34.252-34.252
			s34.252,15.365,34.252,34.252v80.164h-68.505V95.143z M426.734,263.975H85.22v-48.653c0-13.805,11.231-25.036,25.037-25.036
			h58.067h45.911h83.484h45.911h58.067c13.805,0,25.037,11.231,25.037,25.036V263.975z"/>
		<path d="M255.977,429.97c12.486,0,22.644-10.158,22.644-22.644v-17.942c0-0.88,0.406-1.703,1.115-2.26
			c9.381-7.358,14.76-18.406,14.76-30.312c0-10.938-4.676-21.4-12.829-28.702c-8.147-7.296-19.095-10.787-30.048-9.577
			c-18.085,1.999-32.044,16.038-33.943,34.14c-1.406,13.396,4.077,26.312,14.67,34.55c0.618,0.481,0.988,1.289,0.988,2.162v17.94
			C233.334,419.813,243.492,429.97,255.977,429.97z M232.573,354.238c1.158-11.037,9.667-19.596,20.691-20.815
			c0.917-0.101,1.828-0.151,2.732-0.151c5.818,0,11.306,2.082,15.678,5.998c4.984,4.464,7.843,10.858,7.843,17.543
			c0,7.274-3.289,14.026-9.026,18.526c-4.353,3.415-6.85,8.534-6.85,14.045v17.942c0,4.226-3.439,7.664-7.664,7.664
			s-7.664-3.438-7.664-7.664v-17.94c0-5.46-2.532-10.688-6.772-13.986C235.063,370.362,231.711,362.452,232.573,354.238z"/>
		<path d="M185.528,201.399c-14.188,0-25.731,11.543-25.731,25.731s11.543,25.731,25.731,25.731
			c14.188,0,25.731-11.543,25.731-25.731S199.716,201.399,185.528,201.399z M185.528,237.882c-5.928,0-10.752-4.823-10.752-10.752
			s4.823-10.752,10.752-10.752c5.928,0,10.752,4.823,10.752,10.752S191.456,237.882,185.528,237.882z"/>
		<path d="M255.977,201.399c-14.188,0-25.731,11.543-25.731,25.731s11.543,25.731,25.731,25.731s25.731-11.543,25.731-25.731
			S270.166,201.399,255.977,201.399z M255.977,237.882c-5.928,0-10.752-4.823-10.752-10.752s4.823-10.752,10.752-10.752
			s10.752,4.823,10.752,10.752S261.906,237.882,255.977,237.882z"/>
		<path d="M326.427,201.399c-14.188,0-25.731,11.543-25.731,25.731s11.543,25.731,25.731,25.731
			c14.188,0,25.731-11.543,25.731-25.731S340.615,201.399,326.427,201.399z M326.427,237.882c-5.928,0-10.752-4.823-10.752-10.752
			s4.823-10.752,10.752-10.752c5.928,0,10.752,4.823,10.752,10.752S332.355,237.882,326.427,237.882z"/>
	</g>
</g>
<g>
</g>
<g>
</g>
<g>
</g>
<g>
</g>
<g>
</g>
<g>
</g>
<g>
</g>
<g>
</g>
<g>
</g>
<g>
</g>
<g>
</g>
<g>
</g>
<g>
</g>
<g>
</g>
<g>
</g>
</svg>
