<svg id="Layer_5" enable-background="new 0 0 64 64" height="512" viewBox="0 0 64 64" width="512" xmlns="http://www.w3.org/2000/svg"><path d="m63 51c0-1.481-1.197-2.804-3.547-3.941.348-.957.547-1.984.547-3.059 0-4.962-4.037-9-9-9-1.849 0-3.569.562-5 1.522v-10.882c0-1.699 1.141-3.212 2.774-3.679 2.489-.711 4.226-3.014 4.226-5.601v-12.36c0-1.654-1.346-3-3-3s-3 1.346-3 3v10c0 .551-.448 1-1 1s-1-.449-1-1v-10c0-1.654-1.346-3-3-3s-3 1.346-3 3v10c0 .551-.448 1-1 1s-1-.449-1-1v-10c0-1.654-1.346-3-3-3s-3 1.346-3 3v12.36c0 2.587 1.737 4.891 4.226 5.602 1.633.466 2.774 1.979 2.774 3.678v8.906c-1.63-.361-3.305-.546-5-.546l-1.324.001-6.413-6.414-.708.706c-.055.055-.087.103-.07.091-.096.038-.232.062-.474.117-.003.001-.008.002-.011.003v-4.696c0-1.09.5-2.143 1.407-2.963 2.283-2.066 3.593-5.29 3.593-8.845 0-6.168-3.953-11-9-11s-9 4.832-9 11c0 3.555 1.31 6.779 3.593 8.844.907.821 1.407 1.874 1.407 2.964v11.73c-.168.518-.279.977-.36 1.333-.056.243-.08.38-.083.417-.031.039-.073.077-.127.131-.058.058-.094.098-.075.095-.097.038-.233.063-.477.118-1.146.261-3.278.748-5.451 2.921-2.171 2.17-2.659 4.303-2.922 5.453-.026.115-.045.203-.058.271-3.602 1.303-5.447 2.889-5.447 4.723v4c0 5.252 15.595 8 31 8s31-2.748 31-8v-3.866h-.012c.002-.045.012-.089.012-.134zm-12-14c3.859 0 7 3.14 7 7s-3.141 7-7 7-7-3.14-7-7 3.141-7 7-7zm-8.94 8.005c-.02 0-.04-.005-.06-.005-2.757 0-5 2.243-5 5s2.243 5 5 5v-2c-1.654 0-3-1.346-3-3s1.346-3 3-3c.184 0 .366.02.544.053.972 2.682 3.176 4.774 5.932 5.581-.654 1.597-1.893 2.93-3.466 3.682-1.526.172-3.147.317-4.862.428-3.035-.831-5.148-3.583-5.148-6.744 0-3.86 3.141-7 7-7 .019 0 .039.004.058.004-.036.328-.058.659-.058.996 0 .34.023.675.06 1.005zm-6.286-24.966c-1.633-.467-2.774-1.98-2.774-3.679v-12.36c0-.551.448-1 1-1s1 .449 1 1v10c0 1.654 1.346 3 3 3s3-1.346 3-3v-10c0-.551.448-1 1-1s1 .449 1 1v10c0 1.654 1.346 3 3 3s3-1.346 3-3v-10c0-.551.448-1 1-1s1 .449 1 1v12.36c0 1.699-1.141 3.212-2.774 3.679-2.489.711-4.226 3.014-4.226 5.601v11.164c-1.28-.699-2.619-1.267-4-1.707v-9.457c0-2.587-1.737-4.89-4.226-5.601zm-2.774 15.961c3.756 0 7.396 1.001 10.605 2.884-.458.66-.824 1.384-1.094 2.155-.171-.01-.34-.039-.511-.039-4.963 0-9 4.038-9 9 0 2.751 1.248 5.261 3.262 6.93-1.375.044-2.793.07-4.262.07-9.376 0-16.858-.952-21.875-2.218.09-.861.233-1.713.428-2.553l2.185 2.185.707-.707c2.174-2.173 2.66-4.305 2.921-5.451.056-.243.08-.38.084-.418.031-.039.073-.078.13-.134.053-.053.09-.094.075-.094.096-.038.233-.063.475-.118 1.146-.261 3.278-.748 5.451-2.92 2.172-2.171 2.658-4.304 2.92-5.451.056-.243.08-.379.084-.417.031-.039.073-.078.128-.132.054-.055.083-.099.069-.09.096-.038.232-.062.473-.117 1.038-.236 2.887-.67 4.843-2.363zm-3.45-1.297c-1.476 1.197-2.811 1.5-3.739 1.711-.805.184-1.014.246-1.513.744-.499.5-.562.71-.747 1.52-.247 1.082-.62 2.717-2.384 4.48-1.765 1.765-3.4 2.138-4.483 2.385-.808.185-1.018.248-1.518.747-.502.501-.564.712-.749 1.522-.212.928-.517 2.263-1.714 3.739l-1.453-1.453c.858-1.067 1.078-1.998 1.268-2.833.198-.867.354-1.552 1.276-2.474.923-.922 1.607-1.079 2.475-1.276.99-.227 2.113-.483 3.442-1.812s1.585-2.452 1.811-3.442c.198-.867.354-1.551 1.274-2.472.92-.92 1.604-1.076 2.471-1.273.834-.19 1.763-.409 2.829-1.266zm-13.615-15.342c-1.866-1.687-2.935-4.37-2.935-7.361 0-5.047 3.075-9 7-9s7 3.953 7 9c0 2.991-1.069 5.674-2.935 7.361-1.332 1.205-2.065 2.784-2.065 4.447v5.302c-1.026.415-2.223 1.092-3.44 2.31-.206.206-.383.41-.56.614v-8.226c0-1.663-.733-3.242-2.065-4.447zm-7.48 27.086c.247-1.082.622-2.718 2.386-4.481 1.766-1.766 3.4-2.138 4.483-2.385.808-.185 1.017-.248 1.519-.747.499-.499.562-.708.747-1.519.246-1.082.619-2.717 2.384-4.481 1.765-1.765 3.398-2.136 4.48-2.382.285-.065.496-.115.671-.174l1.549 1.549c-.634.46-1.19.589-1.85.739-.99.226-2.112.481-3.44 1.809-1.328 1.329-1.584 2.451-1.81 3.441-.198.867-.354 1.551-1.275 2.473-.922.922-1.606 1.078-2.474 1.276-.991.227-2.113.483-3.443 1.812-1.329 1.329-1.586 2.452-1.812 3.442-.151.662-.281 1.219-.743 1.855l-1.548-1.549c.06-.177.11-.389.176-.678zm-1.801 1.882 2.262 2.263c-.345 1.19-.598 2.408-.747 3.645-3.354-1.043-5.169-2.221-5.169-3.237 0-.633.993-1.639 3.654-2.671zm54.346 6.671c0 2.505-11.032 6-29 6s-29-3.495-29-6v-.97c4.684 3.273 16.898 4.97 29 4.97s24.316-1.697 29-4.97zm-12.126.793c.701-.832 1.25-1.787 1.614-2.819.171.01.339.026.512.026 3.177 0 5.968-1.659 7.57-4.151 1.773.855 2.43 1.654 2.43 2.151 0 1.579-4.386 3.55-12.126 4.793z"/><path d="m51 49c2.757 0 5-2.243 5-5s-2.243-5-5-5-5 2.243-5 5 2.243 5 5 5zm0-8c1.654 0 3 1.346 3 3s-1.346 3-3 3-3-1.346-3-3 1.346-3 3-3z"/><path d="m19 51h2v2h-2z"/><path d="m23 47h2v2h-2z"/><path d="m27 39h2v2h-2z"/><path d="m32 40h2v2h-2z"/><path d="m29 46h2v2h-2z"/><path d="m29 53h2v2h-2z"/><path d="m23 53h2v2h-2z"/></svg>