<svg xmlns="http://www.w3.org/2000/svg" viewBox="0 0 512 512"><title>Retail - Lineal</title><g id="_1_Shopping_cart" data-name="1 Shopping cart"><path d="M73.58,336.57A7.5,7.5,0,0,0,84.19,326L37.9,279.67a19.33,19.33,0,0,1,0-27.31L221.69,68.58A7.5,7.5,0,0,0,211.08,58L27.29,241.76a34.35,34.35,0,0,0,0,48.52Z"/><path d="M242.88,47.38,269.6,20.66a19.31,19.31,0,0,1,27.31,0L433.27,157a19.34,19.34,0,0,1,0,27.31L367,250.55H177.5L232,196a7.5,7.5,0,0,0-10.61-10.61l-65.12,65.12H132.77a34.35,34.35,0,0,0-34.31,34.31V477.69A34.35,34.35,0,0,0,132.77,512H460.44a34.35,34.35,0,0,0,34.31-34.31V450a7.5,7.5,0,0,0-15,0v27.72A19.33,19.33,0,0,1,460.44,497H132.77a19.33,19.33,0,0,1-19.31-19.31V372.45h366.3V420a7.5,7.5,0,0,0,15,0V284.86a34.35,34.35,0,0,0-34.31-34.31h-72.2l55.63-55.62a34.35,34.35,0,0,0,0-48.53L307.52,10A34.32,34.32,0,0,0,259,10L232.28,36.77a7.5,7.5,0,0,0,10.61,10.61ZM113.45,357.45V326.13h366.3v31.32Zm366.3-72.59v26.27H113.45V284.86a19.33,19.33,0,0,1,19.31-19.31H460.44A19.33,19.33,0,0,1,479.76,284.86Z"/><path d="M195.94,149.37a7.5,7.5,0,0,0-10.61,0L71.85,262.86a7.5,7.5,0,1,0,10.61,10.61L195.94,160A7.5,7.5,0,0,0,195.94,149.37Z"/><path d="M254,137.37a30.26,30.26,0,0,0,21.47-8.88l22.7-22.7a30.36,30.36,0,1,0-42.93-42.93l-22.7,22.7A30.34,30.34,0,0,0,254,137.37Zm-10.86-41.2,22.7-22.7a15.36,15.36,0,1,1,21.72,21.72l-22.7,22.7a15.36,15.36,0,0,1-21.72-21.72Z"/><path d="M397.54,427.47A11.51,11.51,0,0,0,386,439v28.57a11.51,11.51,0,0,0,11.5,11.5H443a11.51,11.51,0,0,0,11.5-11.5V439a11.51,11.51,0,0,0-11.5-11.5ZM439.49,464H401V442.47h38.45Z"/><path d="M260.52,427.47A11.51,11.51,0,0,0,249,439v28.57a11.51,11.51,0,0,0,11.5,11.5h96.12a11.51,11.51,0,0,0,11.5-11.5V439a11.51,11.51,0,0,0-11.5-11.5ZM353.14,464H264V442.47h89.12Z"/><path d="M169.45,464a7.5,7.5,0,0,0,0,15h47.89a7.5,7.5,0,0,0,0-15Z"/></g></svg>