<?xml version="1.0" encoding="iso-8859-1"?>
<!-- Generator: Adobe Illustrator 22.0.0, SVG Export Plug-In . SVG Version: 6.00 Build 0)  -->
<svg version="1.1" id="Capa_1" xmlns="http://www.w3.org/2000/svg" xmlns:xlink="http://www.w3.org/1999/xlink" x="0px" y="0px"
	 viewBox="0 0 511.003 511.003" style="enable-background:new 0 0 511.003 511.003;" xml:space="preserve">
<g>
	<g>
		<g>
			<path style="fill:#0396FD;" d="M417.895,469.213H38.245c-16.98,0-30.745-13.765-30.745-30.745V129.598
				c0-16.98,13.765-30.745,30.745-30.745h379.649c16.98,0,30.745,13.765,30.745,30.745v308.869
				C448.64,455.448,434.875,469.213,417.895,469.213z"/>
		</g>
		<g>
			<path style="fill:#0077F0;" d="M448.637,129.601v308.87c0,16.98-13.76,30.74-30.74,30.74h-30.44c16.98,0,30.75-13.76,30.75-30.74
				v-308.87c0-16.98-13.77-30.75-30.75-30.75h30.44C434.877,98.851,448.637,112.621,448.637,129.601z"/>
		</g>
	</g>
	<g>
		<path style="fill:#C9F0FF;" d="M472.758,412.149H93.109c-16.98,0-30.745-13.765-30.745-30.745V72.535
			c0-16.98,13.765-30.745,30.745-30.745h379.649c16.98,0,30.745,13.765,30.745,30.745v308.869
			C503.503,398.384,489.738,412.149,472.758,412.149z"/>
	</g>
	<g>
		<path style="fill:#9AE7FD;" d="M503.5,72.537v308.87c0,16.98-13.76,30.74-30.74,30.74h-30.44c16.98,0,30.75-13.76,30.75-30.74
			V72.537c0-16.98-13.77-30.75-30.75-30.75h30.44C489.74,41.787,503.5,55.557,503.5,72.537z"/>
	</g>
	<g>
		<path style="fill:#80E0DC;" d="M503.503,335.419L390.423,207.98c-1.91-2.153-5.239-2.252-7.275-0.218l-67.619,67.587
			l-87.227-98.302c-1.91-2.153-5.239-2.252-7.275-0.218L62.364,335.419h0v45.985c0,16.98,13.765,30.745,30.745,30.745h379.649
			c16.98,0,30.745-13.765,30.745-30.745L503.503,335.419L503.503,335.419z"/>
	</g>
	<g>
		<path style="fill:#00A8B0;" d="M503.5,335.417v45.99c0,16.98-13.76,30.74-30.74,30.74h-30.44c16.98,0,30.75-13.76,30.75-30.74
			v-80.28L503.5,335.417z"/>
	</g>
	<g>
		<g>
			<g>
				<g>
					<circle style="fill:#FFD86E;" cx="414.25" cy="134.907" r="44.027"/>
				</g>
			</g>
		</g>
		<g>
			<g>
				<g>
					<path style="fill:#FFB509;" d="M458.275,134.91c0,24.312-19.712,44.024-44.024,44.024c-12.353,0-23.518-5.088-31.517-13.288
						c5.162,2.13,10.817,3.299,16.747,3.299c24.313,0,44.024-19.712,44.024-44.024c0-11.959-4.768-22.803-12.507-30.743
						C447.003,100.769,458.275,116.521,458.275,134.91z"/>
				</g>
			</g>
		</g>
	</g>
	<g>
		<path d="M414.25,83.38c-28.412,0-51.527,23.115-51.527,51.527s23.115,51.527,51.527,51.527c28.413,0,51.528-23.115,51.528-51.527
			S442.663,83.38,414.25,83.38z M414.25,171.435c-20.142,0-36.527-16.386-36.527-36.527S394.109,98.38,414.25,98.38
			s36.528,16.386,36.528,36.527S434.392,171.435,414.25,171.435z"/>
		<path d="M472.759,34.29H93.109c-21.089,0-38.245,17.156-38.245,38.244v18.819H38.245C17.156,91.354,0,108.51,0,129.599v308.869
			c0,21.089,17.156,38.245,38.245,38.245h251.257c4.143,0,7.5-3.357,7.5-7.5s-3.357-7.5-7.5-7.5H38.245
			C25.428,461.713,15,451.285,15,438.468V129.599c0-12.817,10.428-23.245,23.245-23.245h16.619v275.051
			c0,21.088,17.156,38.244,38.245,38.244h348.03v18.819c0,12.817-10.428,23.245-23.245,23.245h-80.893c-4.143,0-7.5,3.357-7.5,7.5
			s3.357,7.5,7.5,7.5h80.893c21.089,0,38.245-17.156,38.245-38.245v-18.819h16.619c21.088,0,38.244-17.156,38.244-38.244V72.534
			C511.003,51.446,493.847,34.29,472.759,34.29z M496.003,315.667l-99.97-112.664c-2.275-2.565-5.547-4.096-8.976-4.198
			c-3.422-0.125-6.786,1.229-9.212,3.653l-61.99,61.96l-81.944-92.348c-2.275-2.565-5.547-4.096-8.975-4.198
			c-3.46-0.125-6.786,1.229-9.212,3.653l-58.111,58.084c-2.93,2.929-2.931,7.677-0.003,10.606c2.929,2.932,7.678,2.931,10.606,0.003
			l56.235-56.208L330.96,304.04c1.482,1.671,3.543,2.522,5.613,2.522c1.77,0,3.547-0.623,4.975-1.89
			c3.099-2.75,3.382-7.49,0.633-10.588l-16.352-18.427l60.744-60.715l109.43,123.325v43.137c0,12.816-10.428,23.244-23.244,23.244
			H93.109c-12.817,0-23.245-10.428-23.245-23.244v-42.878l65.952-65.921c2.93-2.929,2.931-7.677,0.003-10.606
			c-2.929-2.932-7.678-2.931-10.606-0.003l-55.349,55.323V72.534c0-12.816,10.428-23.244,23.245-23.244h379.65
			c12.816,0,23.244,10.428,23.244,23.244V315.667z"/>
	</g>
</g>
<g>
</g>
<g>
</g>
<g>
</g>
<g>
</g>
<g>
</g>
<g>
</g>
<g>
</g>
<g>
</g>
<g>
</g>
<g>
</g>
<g>
</g>
<g>
</g>
<g>
</g>
<g>
</g>
<g>
</g>
</svg>
