<svg xmlns="http://www.w3.org/2000/svg" viewBox="0 0 512 512"><title>Retail - Lineal Color</title><g id="_48_Baby_kids" data-name="48 Baby &amp; kids"><path d="M237.38,470.8H99.5a29.45,29.45,0,0,1-29.42-30.71l9.64-223.69H257.16l9.64,223.69A29.45,29.45,0,0,1,237.38,470.8Z" style="fill:#e9e9ea"/><path d="M266.8,440.08l-9.64-223.69H229.77l9.64,223.69A29.45,29.45,0,0,1,210,470.8h27.39A29.45,29.45,0,0,0,266.8,440.08Z" style="fill:#c5c4cc"/><path d="M237.38,478.3H99.5a36.95,36.95,0,0,1-36.91-38.54l9.64-223.69a7.5,7.5,0,0,1,7.49-7.18H257.16a7.5,7.5,0,0,1,7.49,7.18l4.23,98.15a7.5,7.5,0,0,1-15,.65l-3.92-91H86.9L77.57,440.41A21.95,21.95,0,0,0,99.5,463.3H237.38a21.95,21.95,0,0,0,21.93-22.89l-1.25-29.08a7.5,7.5,0,1,1,15-.65l1.25,29.08a36.95,36.95,0,0,1-36.91,38.54Z"/><path d="M128.51,284.16h-18a7.5,7.5,0,0,1,0-15h18a7.5,7.5,0,1,1,0,15Z"/><path d="M128.51,325.65h-18a7.5,7.5,0,0,1,0-15h18a7.5,7.5,0,1,1,0,15Z"/><path d="M128.51,367.15h-18a7.5,7.5,0,0,1,0-15h18a7.5,7.5,0,0,1,0,15Z"/><rect x="61.29" y="171.51" width="214.3" height="47.22" rx="19.86" ry="19.86" style="fill:#8cbafa"/><path d="M255.73,171.51H230.28a19.86,19.86,0,0,1,19.86,19.86v7.5a19.86,19.86,0,0,1-19.86,19.86h25.45a19.86,19.86,0,0,0,19.86-19.86v-7.5A19.86,19.86,0,0,0,255.73,171.51Z" style="fill:#5692d8"/><path d="M255.73,226.23H81.15a27.39,27.39,0,0,1-27.36-27.36v-7.5A27.39,27.39,0,0,1,81.15,164H255.73a27.39,27.39,0,0,1,27.36,27.36v7.5A27.39,27.39,0,0,1,255.73,226.23ZM81.15,179a12.37,12.37,0,0,0-12.36,12.36v7.5a12.37,12.37,0,0,0,12.36,12.36H255.73a12.37,12.37,0,0,0,12.36-12.36v-7.5A12.37,12.37,0,0,0,255.73,179Z"/><path d="M247.58,171.51a79.31,79.31,0,0,0-47.22-67.86,11.4,11.4,0,0,1-6.83-10.91c.42-9.81,3.5-20.15,9.24-37.82a36.14,36.14,0,1,0-68.66,0c5.74,17.67,8.82,28,9.24,37.82a11.4,11.4,0,0,1-6.83,10.91A79.31,79.31,0,0,0,89.3,171.51Z" style="fill:#ffeb96"/><path d="M200.37,103.65a11.4,11.4,0,0,1-6.83-10.91c.42-9.81,3.5-20.15,9.24-37.82A36.13,36.13,0,0,0,160.31,8.43c11.61,3.32,20.81,15.25,22.49,30.12a44.16,44.16,0,0,1-1.18,16.37c-4.67,17.67-7.18,28-7.52,37.82-.16,4.7,2.05,9,5.56,10.91,21.58,11.68,37,37.47,38.42,67.86h29.51A79.31,79.31,0,0,0,200.37,103.65Z" style="fill:#ffcd34"/><path d="M247.58,179H89.3a7.5,7.5,0,0,1-7.49-7.94,86.66,86.66,0,0,1,13.76-42,7.5,7.5,0,1,1,12.59,8.16A71.62,71.62,0,0,0,97.7,164H239.19a71.47,71.47,0,0,0-41.85-53.5A18.8,18.8,0,0,1,186,92.42c.47-11,3.94-22.4,9.6-39.82a28.63,28.63,0,0,0-46.9-29.75,28.64,28.64,0,0,0-7.51,29.72c5.67,17.44,9.14,28.81,9.6,39.84a18.8,18.8,0,0,1-11.3,18.09,71.82,71.82,0,0,0-12.72,7.24,7.5,7.5,0,0,1-8.71-12.21,86.85,86.85,0,0,1,15.38-8.75,3.89,3.89,0,0,0,2.36-3.73c-.39-9.12-3.61-19.62-8.88-35.83a43.64,43.64,0,1,1,82.92,0c-5.26,16.18-8.48,26.68-8.87,35.8a3.89,3.89,0,0,0,2.36,3.73,86.42,86.42,0,0,1,51.68,74.29,7.5,7.5,0,0,1-7.49,7.94Z"/><path d="M344.89,306.43a54,54,0,1,1,54-54A54.08,54.08,0,0,1,344.89,306.43Zm0-93a39,39,0,1,0,39,39A39.07,39.07,0,0,0,344.89,213.38Z"/><path d="M349.34,290.36h-8.9A44.69,44.69,0,0,0,295.75,335v21.79q49.14-19.94,98.27,0V335A44.69,44.69,0,0,0,349.34,290.36Z" style="fill:#8cbafa"/><path d="M366.84,335v13.81a137.41,137.41,0,0,1,27.19,8V335a44.69,44.69,0,0,0-44.69-44.69h-8.9c-1.16,0-2.3.06-3.44.14C353.69,292.26,366.84,311.52,366.84,335Z" style="fill:#5692d8"/><path d="M394,364.33a7.49,7.49,0,0,1-2.82-.55c-30.73-12.47-61.9-12.47-92.63,0a7.5,7.5,0,0,1-10.32-6.95V335a52.25,52.25,0,0,1,52.19-52.19h8.9A52.25,52.25,0,0,1,401.53,335v21.79a7.5,7.5,0,0,1-7.5,7.5Zm-49.14-24.94a134.46,134.46,0,0,1,41.64,6.73V335a37.23,37.23,0,0,0-37.19-37.19h-8.9A37.23,37.23,0,0,0,303.25,335v11.07A134.46,134.46,0,0,1,344.89,339.39Z"/><path d="M384.33,448.46c-15.55-43.37-17.4-54.2-9.67-83.71a194.48,194.48,0,0,0-59.55,0c7.73,29.51,5.88,40.34-9.67,83.71h0a41.9,41.9,0,1,0,78.79,0Z" style="fill:#ffeb96"/><path d="M384.28,448.46h0c-15.55-43.37-17.4-54.2-9.67-83.71a194.8,194.8,0,0,0-37.3-2.15,96.57,96.57,0,0,1,15.48,2.15c-5.37,29.51-4.09,40.34,6.73,83.71h0a58.14,58.14,0,0,1,1.75,14.16c0,20.56-10.31,37.65-23.91,41.2a41.88,41.88,0,0,0,49.43-41.2A41.58,41.58,0,0,0,384.28,448.46Z" style="fill:#ffcd34"/><path d="M344.89,512a49.28,49.28,0,0,1-46.75-65.22,7.36,7.36,0,0,1,.25-.85c15.51-43.26,16.58-52.15,9.47-79.27a7.5,7.5,0,0,1,6.12-9.31,203.18,203.18,0,0,1,61.83,0,7.5,7.5,0,0,1,6.12,9.31c-7.1,27.12-6,36,9.47,79.27a7.59,7.59,0,0,1,.25.86,49.4,49.4,0,0,1,2.48,11.86,7.5,7.5,0,1,1-14.95,1.23,34.57,34.57,0,0,0-2-8.88,7.49,7.49,0,0,1-.24-.82c-14-39.15-17.35-53-11.58-79.09a187.85,187.85,0,0,0-41,0c5.77,26.1,2.44,39.94-11.58,79.1a7.42,7.42,0,0,1-.24.81,34.38,34.38,0,0,0,59.88,32.23,7.5,7.5,0,0,1,12,9A49,49,0,0,1,344.89,512Z"/><path d="M344.89,333.74c-32.42,0-64.83,7.51-97,22.53a15.23,15.23,0,0,0,12.87,27.6c56.63-26.42,111.68-26.42,168.31,0a15.23,15.23,0,1,0,12.87-27.6C409.73,341.25,377.3,333.74,344.89,333.74Z" style="fill:#fa7ec1"/><path d="M435.47,392.8a22.64,22.64,0,0,1-9.6-2.15A203.06,203.06,0,0,0,371,373.56a171.82,171.82,0,0,0-52.29,0,203,203,0,0,0-54.84,17.09,22.72,22.72,0,1,1-19.22-41.18,247.73,247.73,0,0,1,65.1-20.4,218.64,218.64,0,0,1,70.21,0,247.67,247.67,0,0,1,65.1,20.4h0a22.74,22.74,0,0,1-9.62,43.33Zm-90.58-36.24a187,187,0,0,1,28.43,2.18,218,218,0,0,1,58.9,18.32,7.72,7.72,0,1,0,6.54-14h0a232.69,232.69,0,0,0-61.15-19.18,203.62,203.62,0,0,0-65.42,0A232.78,232.78,0,0,0,251,363.06a7.72,7.72,0,0,0-3.73,10.26,7.74,7.74,0,0,0,10.28,3.73,218,218,0,0,1,58.89-18.32A186.89,186.89,0,0,1,344.89,356.56Z"/></g></svg>