<?xml version="1.0" encoding="iso-8859-1"?>
<!-- Generator: Adobe Illustrator 23.0.6, SVG Export Plug-In . SVG Version: 6.00 Build 0)  -->
<svg version="1.1" id="Capa_1" xmlns="http://www.w3.org/2000/svg" xmlns:xlink="http://www.w3.org/1999/xlink" x="0px" y="0px"
	 viewBox="0 0 512 512" style="enable-background:new 0 0 512 512;" xml:space="preserve">
<g>
	<path d="M472.436,128.258H39.564C17.749,128.258,0,146.007,0,167.822v176.355c0,21.815,17.749,39.564,39.564,39.564h432.871
		c21.816,0,39.564-17.749,39.564-39.564V167.822C512,146.007,494.251,128.258,472.436,128.258z M15,344.178V167.822
		c0-13.545,11.02-24.564,24.564-24.564h72.662v225.484H39.564C26.02,368.742,15,357.723,15,344.178z M497,344.178
		c0,13.545-11.02,24.564-24.564,24.564h-72.662V183.854c0-4.143-3.358-7.5-7.5-7.5s-7.5,3.357-7.5,7.5v184.888H127.226V143.258
		h257.548v8.535c0,4.143,3.358,7.5,7.5,7.5s7.5-3.357,7.5-7.5v-8.535h72.662c13.545,0,24.564,11.02,24.564,24.564V344.178z"/>
	<path d="M63.613,231.436c17.396,0,31.548-14.152,31.548-31.548s-14.152-31.548-31.548-31.548s-31.548,14.152-31.548,31.548
		S46.217,231.436,63.613,231.436z M63.613,183.339c9.125,0,16.548,7.423,16.548,16.548c0,9.125-7.423,16.548-16.548,16.548
		s-16.548-7.424-16.548-16.548C47.064,190.762,54.488,183.339,63.613,183.339z"/>
	<path d="M63.613,248.5c-4.142,0-7.5,3.358-7.5,7.5v8.016c0,4.142,3.358,7.5,7.5,7.5s7.5-3.358,7.5-7.5V256
		C71.113,251.858,67.755,248.5,63.613,248.5z"/>
	<path d="M63.613,296.597c-4.142,0-7.5,3.358-7.5,7.5v8.016c0,4.142,3.358,7.5,7.5,7.5s7.5-3.358,7.5-7.5v-8.016
		C71.113,299.955,67.755,296.597,63.613,296.597z"/>
	<path d="M91.669,276.557h-8.016c-4.142,0-7.5,3.357-7.5,7.5c0,4.142,3.358,7.5,7.5,7.5h8.016c4.142,0,7.5-3.358,7.5-7.5
		C99.169,279.914,95.812,276.557,91.669,276.557z"/>
	<path d="M43.573,276.557h-8.016c-4.142,0-7.5,3.357-7.5,7.5c0,4.142,3.358,7.5,7.5,7.5h8.016c4.142,0,7.5-3.358,7.5-7.5
		C51.073,279.914,47.715,276.557,43.573,276.557z"/>
	<path d="M448.387,256.516c-17.396,0-31.548,14.153-31.548,31.548s14.152,31.548,31.548,31.548s31.548-14.153,31.548-31.548
		S465.783,256.516,448.387,256.516z M448.387,304.613c-9.125,0-16.548-7.423-16.548-16.548s7.423-16.548,16.548-16.548
		s16.548,7.423,16.548,16.548S457.512,304.613,448.387,304.613z"/>
	<path d="M448.387,239.452c4.142,0,7.5-3.358,7.5-7.5v-8.016c0-4.142-3.358-7.5-7.5-7.5s-7.5,3.358-7.5,7.5v8.016
		C440.887,236.094,444.245,239.452,448.387,239.452z"/>
	<path d="M448.387,191.354c4.142,0,7.5-3.357,7.5-7.5v-8.016c0-4.143-3.358-7.5-7.5-7.5s-7.5,3.357-7.5,7.5v8.016
		C440.887,187.997,444.245,191.354,448.387,191.354z"/>
	<path d="M428.347,211.396c4.142,0,7.5-3.358,7.5-7.5c0-4.143-3.358-7.5-7.5-7.5h-8.016c-4.142,0-7.5,3.357-7.5,7.5
		c0,4.142,3.358,7.5,7.5,7.5H428.347z"/>
	<path d="M476.443,196.396h-8.016c-4.142,0-7.5,3.357-7.5,7.5c0,4.142,3.358,7.5,7.5,7.5h8.016c4.142,0,7.5-3.358,7.5-7.5
		C483.943,199.753,480.585,196.396,476.443,196.396z"/>
	<path d="M360.209,160.322H151.791c-4.142,0-7.5,3.358-7.5,7.5v176.355c0,4.142,3.358,7.5,7.5,7.5h16.03c4.142,0,7.5-3.358,7.5-7.5
		c0-4.143-3.358-7.5-7.5-7.5h-8.53V175.322h193.419v161.355H199.886c-4.142,0-7.5,3.357-7.5,7.5c0,4.142,3.358,7.5,7.5,7.5h160.323
		c4.142,0,7.5-3.358,7.5-7.5V167.822C367.709,163.681,364.352,160.322,360.209,160.322z"/>
</g>
<g>
</g>
<g>
</g>
<g>
</g>
<g>
</g>
<g>
</g>
<g>
</g>
<g>
</g>
<g>
</g>
<g>
</g>
<g>
</g>
<g>
</g>
<g>
</g>
<g>
</g>
<g>
</g>
<g>
</g>
</svg>
