<svg xmlns="http://www.w3.org/2000/svg" viewBox="0 0 512 512"><title>Retail - Lineal</title><g id="_1_Shopping_cart" data-name="1 Shopping cart"><path d="M470.84,69a7.5,7.5,0,0,0,0,10.61A89.11,89.11,0,0,1,497,142.43V385.08H461.76V177.74a24.53,24.53,0,0,0-49-1.67c-.29,3.11-4.52,48.31-4.92,64.13-.85,34,2.79,152.92,3.92,188.57a1,1,0,0,1-.3.78,1.07,1.07,0,0,1-.78.33H306.32V259.61l80.16-84.27a7.5,7.5,0,0,0,1.46-8.11l-15.82-37.08L389,119.54a7.5,7.5,0,0,0,3.38-7.67l-10.78-60c-.11-.62-.24-1.24-.38-1.86h20.34a88.67,88.67,0,0,1,43.61,11.49l3,1.69a7.5,7.5,0,0,0,7.38-13.06l-3-1.69a103.7,103.7,0,0,0-51-13.43H374.76A44.24,44.24,0,0,0,338,15.38H259.67A44.24,44.24,0,0,0,222.89,35H196.1a103.61,103.61,0,0,0-51,13.43l-6.95,3.92a103.69,103.69,0,0,0-52.53,90.1v35.5H47.74a11.6,11.6,0,0,0-11.59,11.59v71a99.52,99.52,0,0,0,0,153.47v71a11.6,11.6,0,0,0,11.59,11.59h36.9a7.5,7.5,0,0,0,0-15H51.15V424.3a99.45,99.45,0,0,0,97,0v57.33h-33.5a7.5,7.5,0,1,0,0,15h36.9A11.61,11.61,0,0,0,163.14,485V414a99.84,99.84,0,0,0,33.09-52.19H207a16.27,16.27,0,0,0,16.25-16.25V329A16.27,16.27,0,0,0,207,312.73H196.23a99.84,99.84,0,0,0-33.09-52.19v-71a11.61,11.61,0,0,0-11.6-11.59h-.66v-.19a9.53,9.53,0,0,1,19-.6c0,.08,0,.16,0,.23,0,.47,4.48,47.67,4.87,63.2.1,4.13.14,9.51.12,16a7.5,7.5,0,0,0,7.48,7.52h0a7.5,7.5,0,0,0,7.5-7.48c0-6.64,0-12.16-.12-16.43-.4-15.82-4.63-61-4.92-64.13a24.53,24.53,0,0,0-49,1.67v.19H100.65v-35.5a88.66,88.66,0,0,1,44.91-77l6.95-3.92A88.6,88.6,0,0,1,196.1,50h20.35c-.14.61-.26,1.23-.38,1.86l-10.78,60a7.5,7.5,0,0,0,3.38,7.67l16.84,10.62L209.7,167.23a7.5,7.5,0,0,0,1.46,8.11l80.16,84.27V429.89H187a1.09,1.09,0,0,1-1.09-1.12l.2-6.4a7.5,7.5,0,0,0-15-.47l-.2,6.39A16.09,16.09,0,0,0,187,444.89H410.69a16.08,16.08,0,0,0,16.08-16.59c-1.13-35.55-4.76-154.17-3.92-187.72.39-15.53,4.82-62.73,4.86-63.21,0-.08,0-.16,0-.23a9.53,9.53,0,0,1,19,.6V392.58a7.5,7.5,0,0,0,7.5,7.5H504.5a7.5,7.5,0,0,0,7.5-7.5V142.43A104.22,104.22,0,0,0,481.45,69,7.5,7.5,0,0,0,470.84,69ZM207,327.73A1.25,1.25,0,0,1,208.3,329v16.59a1.25,1.25,0,0,1-1.25,1.25h-8.22c.3-3.14.46-6.32.46-9.54s-.16-6.4-.46-9.55Zm-22.76,9.55a84.64,84.64,0,1,1-84.64-84.65A84.74,84.74,0,0,1,184.29,337.28ZM99.64,237.63a99,99,0,0,0-48.49,12.63V192.93h97v57.33A99,99,0,0,0,99.64,237.63Zm199.18-20.58c-11.24-31.72-33-95.27-42.58-138.9A23.2,23.2,0,0,1,278.93,50h39.8A23.2,23.2,0,0,1,341.4,78.15C331.78,121.78,310.06,185.34,298.82,217.05Zm-57-86.89a7.5,7.5,0,0,0-2.9-9.29l-18-11.33,9.89-55.05a29.27,29.27,0,0,1,28.83-24.11H338a29.27,29.27,0,0,1,28.83,24.11l9.89,55.05-18,11.33a7.5,7.5,0,0,0-2.9,9.29l16.39,38.42L307.9,236.2c7.89-21.76,36.56-102.25,48.15-154.81A38.2,38.2,0,0,0,318.72,35h-39.8a38.2,38.2,0,0,0-37.33,46.4c11.59,52.56,40.26,133.05,48.15,154.81l-64.32-67.61Z"/><path d="M334.4,288.46h-2.8a7.5,7.5,0,0,0,0,15h2.8a7.5,7.5,0,0,0,0-15Z"/><path d="M334.4,334.67h-2.8a7.5,7.5,0,0,0,0,15h2.8a7.5,7.5,0,0,0,0-15Z"/><path d="M123.26,329.78H107.14V283.2a7.5,7.5,0,0,0-15,0v54.08a7.5,7.5,0,0,0,7.5,7.5h23.62a7.5,7.5,0,1,0,0-15Z"/></g></svg>