<?xml version="1.0" encoding="iso-8859-1"?>
<!-- Generator: Adobe Illustrator 23.0.3, SVG Export Plug-In . SVG Version: 6.00 Build 0)  -->
<svg version="1.1" id="Capa_1" xmlns="http://www.w3.org/2000/svg" xmlns:xlink="http://www.w3.org/1999/xlink" x="0px" y="0px"
	 viewBox="0 0 512.106 512.106" style="enable-background:new 0 0 512.106 512.106;" xml:space="preserve">
<g>
	<polygon style="fill:#FFD06A;" points="35.829,35.837 34.061,65.89 60.577,124.226 134.824,134.832 	"/>
	<polygon style="fill:#FFE7B5;" points="65.881,34.07 32.293,39.373 103.004,130.287 124.217,60.586 	"/>
	<polygon style="fill:#5515A6;" points="44.667,55.283 42.9,42.909 7.544,7.553 34.061,65.89 	"/>
	<polygon style="fill:#6241EA;" points="65.881,34.07 7.544,7.553 44.667,55.283 	"/>
	<path style="fill:#FF3E3A;" d="M474.545,495.766l21.213-21.213c0,0-63.64-63.64-63.64-63.64l-21.213,63.64l21.213,21.213
		C443.834,507.482,462.829,507.482,474.545,495.766z"/>
	<path style="fill:#FF5D34;" d="M495.758,474.553c11.716-11.716,11.715-30.711,0-42.426l-21.213-21.213l-63.64,21.213l42.426,42.426
		C465.047,486.269,484.042,486.269,495.758,474.553z"/>
	<polygon style="fill:#C4F3FF;" points="432.118,453.34 368.478,347.274 389.692,453.34 410.905,474.553 	"/>
	<polygon style="fill:#FFFFFF;" points="474.544,410.914 453.331,389.701 347.265,368.487 432.118,453.34 	"/>
	<polygon style="fill:#6241EA;" points="103.004,81.799 81.79,103.013 210.992,260.499 410.905,432.127 432.118,410.914 
		260.49,211.001 	"/>
	
		<rect x="220.741" y="45.457" transform="matrix(0.7071 -0.7071 0.7071 0.7071 -127.6534 248.17)" style="fill:#FFB820;" width="30" height="465.438"/>
	
		<rect x="263.167" y="3.031" transform="matrix(0.7071 -0.7071 0.7071 0.7071 -85.2271 265.7436)" style="fill:#FFD06A;" width="30" height="465.438"/>
	<path style="fill:#93B7C0;" d="M495.168,81.009l-82.569,117.472l56.685,14.025C504.978,176.995,513.545,124.729,495.168,81.009z"/>
	<path style="fill:#ACD5DF;" d="M398.145,8.325c-34.966-3.981-71.676,7.725-98.567,34.475c-0.148,0.148,31.929,60.447,31.929,60.447
		L398.145,8.325z"/>
	<path style="fill:#93B7C0;" d="M398.145,8.325l-80.78,80.78l21.213,21.213l93.133-93.133
		C420.928,12.582,409.615,9.626,398.145,8.325z"/>
	<path style="fill:#ACD5DF;" d="M495.167,81.009c5.904,31.247-11.438,74.738-47.097,110.284l-52.923-10.264L495.167,81.009z"/>
	<path style="fill:#93B7C0;" d="M299.679,191.204l-287.75,287.75c2.143,4.49,5.077,8.697,8.796,12.417
		c17.572,17.572,46.061,17.579,63.64,0l257.74-257.74L299.679,191.204z M41.938,470.16c-5.858-5.858-5.858-15.355,0-21.213
		s15.355-5.858,21.213,0c5.858,5.858,5.858,15.355,0,21.212S47.796,476.017,41.938,470.16z"/>
	<path style="fill:#ACD5DF;" d="M41.937,470.161c-5.858-5.858-5.857-15.355,0.001-21.213s15.355-5.859,21.213-0.001
		c5.854,5.854,5.857,15.341,0.012,21.2l257.729-257.729l-42.426-42.426l-257.74,257.74c-13.859,13.859-16.787,34.493-8.796,51.223
		c16.72,7.986,37.339,5.066,51.198-8.773C57.268,476.017,47.788,476.011,41.937,470.161z"/>
	<path style="fill:#93B7C0;" d="M299.578,42.801c-19.892,19.892-31.4,45.094-34.404,71.025l-9.13,78.587l63.64,63.64l78.569-9.143
		c25.933-3.004,51.137-14.511,71.031-34.405L299.578,42.801z"/>
	<polygon style="fill:#ACD5DF;" points="374.16,159.59 358.25,154.286 352.947,138.377 331.734,117.163 299.914,148.983 
		321.127,170.196 337.037,175.5 342.34,191.41 363.554,212.623 395.373,180.803 	"/>
	
		<rect x="325.144" y="149.893" transform="matrix(0.7071 -0.7071 0.7071 0.7071 -14.7745 294.1173)" style="fill:#C4F3FF;" width="45" height="30"/>
	<path d="M501.017,479.857c7.082-7.083,10.983-16.5,10.983-26.517c0-10.017-3.901-19.434-10.983-26.516L335.905,261.711l63.167-7.35
		c28.387-3.288,55.189-16.269,75.457-36.538c36.94-36.747,47.739-91.591,27.511-139.723c-0.968-2.303-3.019-3.973-5.47-4.454
		c-2.45-0.483-4.981,0.29-6.748,2.056l-73.389,73.389L363.4,96.06l73.572-73.572c1.761-1.761,2.532-4.281,2.06-6.726
		c-0.472-2.445-2.128-4.497-4.418-5.475c-23.063-9.849-48.43-12.609-73.355-7.978c-25.462,4.73-48.635,16.893-67.027,35.189
		c-20.281,20.281-33.262,47.082-36.551,75.463l-7.34,63.186L129.476,55.283c-0.637-0.636-1.382-1.152-2.2-1.524L10.604,0.726
		C7.756-0.568,4.407,0.039,2.196,2.25c-2.21,2.21-2.817,5.561-1.524,8.407l53.033,116.672c0.372,0.819,0.889,1.564,1.524,2.2
		l126.525,126.525L15.377,422.432c-20.469,20.469-20.47,53.775-0.001,74.245c9.916,9.916,23.1,15.377,37.124,15.377
		c14.023,0,27.207-5.461,37.123-15.377l187.589-187.59l123.041,123.041l-10.606,10.606L282.517,335.603
		c-2.929-2.929-7.677-2.929-10.607,0c-2.929,2.929-2.929,7.678,0,10.606L426.771,501.07c7.311,7.311,16.913,10.966,26.516,10.966
		c9.604,0,19.206-3.655,26.518-10.966L501.017,479.857z M432.074,400.307L309.033,277.266l10.606-10.606L442.68,389.701
		L432.074,400.307z M492.104,94.635c11.48,37.328,2.885,77.698-23.028,107.101l-42.037-42.037L492.104,94.635z M418.07,20.176
		l-65.277,65.278l-42.454-42.454C339.797,17.43,381.125,8.768,418.07,20.176z M234.787,203.021L113.566,81.8l10.606-10.606
		l121.221,121.22L234.787,203.021z M62.882,111.27L42.995,67.518l24.469-24.469l43.751,19.887L62.882,111.27z M102.959,92.407
		L224.18,213.627l-10.606,10.606L92.353,103.013L102.959,92.407z M52.88,36.419L36.366,52.934L22.604,22.657L52.88,36.419z
		 M71.14,124.226l10.606-10.606l121.221,121.221l-10.606,10.606L71.14,124.226z M79.016,486.07
		c-7.082,7.083-16.499,10.983-26.516,10.983c-10.018,0-19.435-3.9-26.517-10.983c-14.621-14.621-14.62-38.411,0.001-53.032
		l235.319-235.321c0.277-0.277,0.518-0.574,0.743-0.879c0.035-0.048,0.072-0.095,0.106-0.144c0.216-0.31,0.406-0.632,0.57-0.964
		c0.021-0.043,0.04-0.087,0.061-0.13c0.166-0.354,0.31-0.715,0.418-1.085c0.109-0.378,0.182-0.758,0.231-1.141
		c0.004-0.032,0.015-0.062,0.019-0.093l9.13-78.59c2.615-22.563,12.195-43.981,27.148-61.087l111.397,111.396
		c0.006,0.006,47.312,47.312,47.312,47.312c-17.115,14.959-38.532,24.537-61.096,27.15l-78.569,9.142
		c-1.678,0.195-3.241,0.952-4.436,2.147L79.016,486.07z M287.82,298.479l10.606-10.606l123.041,123.041l-10.606,10.606
		L287.82,298.479z M453.287,400.308l10.606,10.606l-53.033,53.033l-10.606-10.606L453.287,400.308z M437.377,490.464l-15.91-15.91
		l53.033-53.033l15.91,15.91c4.249,4.25,6.59,9.9,6.59,15.91c0,6.01-2.341,11.66-6.591,15.91l-21.212,21.213
		C460.423,499.236,446.149,499.237,437.377,490.464z"/>
	<path d="M68.41,443.644c-4.25-4.25-9.9-6.59-15.91-6.59c-6.011,0-11.66,2.341-15.909,6.59c-8.773,8.772-8.774,23.047-0.001,31.821
		c4.386,4.386,10.148,6.579,15.909,6.579c5.763,0,11.524-2.193,15.911-6.579c4.25-4.25,6.59-9.9,6.59-15.91
		C75,453.544,72.659,447.894,68.41,443.644z M47.196,464.858c-2.925-2.924-2.924-7.683,0.001-10.607
		c1.416-1.417,3.3-2.197,5.303-2.197c2.004,0,3.887,0.78,5.303,2.196c1.417,1.417,2.197,3.3,2.197,5.304
		c0,2.003-0.78,3.887-2.196,5.303C54.878,467.781,50.12,467.782,47.196,464.858z"/>
	<path d="M363.508,220.124c1.989,0,3.896-0.79,5.304-2.197l31.819-31.82c2.929-2.929,2.929-7.678,0-10.607L379.42,154.29
		c-0.003-0.003-42.428-42.428-42.428-42.428c-2.93-2.929-7.678-2.929-10.607,0l-31.819,31.819c-2.929,2.929-2.929,7.678,0,10.607
		l21.209,21.209c0.009,0.009,21.208,21.208,21.208,21.208c0.019,0.019,21.223,21.223,21.223,21.223
		C359.611,219.334,361.519,220.124,363.508,220.124z M363.508,159.591l-21.213,21.213l-10.606-10.606l21.213-21.213L363.508,159.591
		z M331.688,127.771l10.606,10.606l-21.213,21.213l-10.606-10.606L331.688,127.771z M352.901,191.411l21.213-21.213l10.606,10.606
		l-21.213,21.213L352.901,191.411z"/>
</g>
<g>
</g>
<g>
</g>
<g>
</g>
<g>
</g>
<g>
</g>
<g>
</g>
<g>
</g>
<g>
</g>
<g>
</g>
<g>
</g>
<g>
</g>
<g>
</g>
<g>
</g>
<g>
</g>
<g>
</g>
</svg>
