<?xml version="1.0" encoding="iso-8859-1"?>
<!-- Generator: Adobe Illustrator 19.0.0, SVG Export Plug-In . SVG Version: 6.00 Build 0)  -->
<svg version="1.1" id="Layer_1" xmlns="http://www.w3.org/2000/svg" xmlns:xlink="http://www.w3.org/1999/xlink" x="0px" y="0px"
	 viewBox="0 0 512 512" style="enable-background:new 0 0 512 512;" xml:space="preserve">
<g>
	<path d="M323.081,252.768H197.505c-12.383,0-22.458,10.074-22.458,22.458v46.266c0,12.383,10.074,22.458,22.458,22.458h125.576
		c12.383,0,22.458-10.074,22.458-22.458v-46.266C345.538,262.842,335.464,252.768,323.081,252.768z M190.047,293.161h140.491v10.394
		H190.047V293.161z M190.047,275.225c0-4.112,3.345-7.458,7.458-7.458h125.576c4.112,0,7.458,3.345,7.458,7.458v2.936H190.047
		V275.225z M330.538,321.491c0,4.112-3.345,7.458-7.458,7.458H197.505c-4.112,0-7.458-3.345-7.458-7.458v-2.936h140.491V321.491z"/>
	<path d="M130.796,329.64c17.249,0,31.281-14.033,31.281-31.282s-14.032-31.282-31.281-31.282s-31.281,14.033-31.281,31.282
		S113.547,329.64,130.796,329.64z M130.796,282.076c8.978,0,16.281,7.304,16.281,16.282s-7.304,16.282-16.281,16.282
		s-16.281-7.304-16.281-16.282S121.818,282.076,130.796,282.076z"/>
	<path d="M358.508,298.358c0,17.249,14.033,31.282,31.281,31.282s31.282-14.033,31.282-31.282s-14.033-31.282-31.282-31.282
		S358.508,281.109,358.508,298.358z M406.071,298.358c0,8.978-7.304,16.282-16.282,16.282c-8.978,0-16.281-7.304-16.281-16.282
		s7.304-16.282,16.281-16.282C398.767,282.076,406.071,289.38,406.071,298.358z"/>
	<path d="M156.846,112.96v16.588c0,4.142,3.358,7.5,7.5,7.5s7.5-3.358,7.5-7.5V112.96c0-4.142-3.358-7.5-7.5-7.5
		S156.846,108.818,156.846,112.96z"/>
	<path d="M355.154,129.548V112.96c0-4.142-3.358-7.5-7.5-7.5s-7.5,3.358-7.5,7.5v16.588c0,4.142,3.358,7.5,7.5,7.5
		S355.154,133.69,355.154,129.548z"/>
	<path d="M272.975,123.458c-4.135,4.731-10.323,7.444-16.975,7.444s-12.839-2.713-16.975-7.444
		c-2.726-3.118-7.463-3.437-10.583-0.711c-3.119,2.726-3.437,7.464-0.711,10.583c6.984,7.99,17.288,12.572,28.268,12.572
		s21.284-4.582,28.268-12.572c2.726-3.118,2.408-7.856-0.711-10.583C280.439,120.021,275.701,120.34,272.975,123.458z"/>
	<path d="M512,206.834v-57.183c0-8.97-5.243-16.738-12.825-20.401c-2.646-26.297-24.906-46.895-51.889-46.895h-8.584v-0.341
		c0-38.473-31.3-69.773-69.773-69.773H143.071c-38.473,0-69.773,31.3-69.773,69.773v0.341h-8.585
		c-26.982,0-49.243,20.597-51.889,46.895C5.243,132.914,0,140.682,0,149.652v57.183c0,12.485,10.157,22.642,22.642,22.642h18.685
		c12.485,0,22.642-10.157,22.642-22.642v-57.183c0-8.517-4.729-15.948-11.697-19.813c1.897-5.036,6.751-8.635,12.442-8.635h8.585
		v236.586c-9.861,3.176-17.017,12.436-17.017,23.338v32.743c0,13.518,10.998,24.516,24.517,24.516h11.579v34.473
		c0,14.831,12.065,26.896,26.896,26.896h24.465c14.831,0,26.896-12.065,26.896-26.896v-34.473h19.04v4.18
		c0,11.371,9.251,20.622,20.622,20.622h99.993c11.371,0,20.622-9.251,20.622-20.622v-4.18h19.04v34.473
		c0,14.831,12.066,26.896,26.896,26.896h24.464c14.831,0,26.896-12.065,26.896-26.896v-34.473h2.994
		c13.518,0,24.516-10.998,24.516-24.516v-32.743c0-10.903-7.156-20.162-17.016-23.338V121.205h8.584
		c5.691,0,10.545,3.599,12.442,8.635c-6.968,3.865-11.697,11.295-11.697,19.813v57.183c0,12.485,10.157,22.642,22.642,22.642h18.685
		C501.843,229.477,512,219.319,512,206.834z M88.298,82.015c0-30.202,24.571-54.773,54.773-54.773h225.857
		c30.202,0,54.773,24.571,54.773,54.773v274.598H88.298V82.015z M48.969,206.834c0,4.214-3.429,7.642-7.642,7.642H22.642
		c-4.214,0-7.642-3.428-7.642-7.642v-57.183c0-3.703,2.647-6.797,6.148-7.493c0.485-0.096,1-0.149,1.493-0.149h18.685
		c0.467,0,0.948,0.05,1.408,0.136c3.542,0.663,6.234,3.774,6.234,7.506V206.834z M64.713,106.205c-13.011,0-24,8.826-27.296,20.805
		h-9.096c3.479-16.904,18.475-29.653,36.393-29.653h8.585v8.848H64.713z M155.634,472.861c0,6.56-5.336,11.896-11.896,11.896
		h-24.465c-6.56,0-11.896-5.337-11.896-11.896v-34.473h48.257V472.861z M315.911,442.568c0,3.1-2.522,5.622-5.622,5.622h-99.993
		c-3.1,0-5.622-2.522-5.622-5.622v-31.946c0-3.1,2.522-5.622,5.622-5.622h99.993c3.1,0,5.622,2.522,5.622,5.622V442.568z
		 M413.208,472.861c0,6.56-5.336,11.896-11.896,11.896h-24.464c-6.56,0-11.896-5.337-11.896-11.896v-34.473h48.257V472.861z
		 M440.718,413.872c0,5.247-4.269,9.516-9.516,9.516H330.911c0,0,0-12.762,0-12.766c0-11.015-9.278-20.622-20.622-20.622
		c0,0-99.952,0-99.993,0c-11.025,0-20.622,9.281-20.622,20.622v12.766H80.798c-5.248,0-9.517-4.269-9.517-9.516v-32.743
		c0-5.247,4.269-9.516,9.517-9.516h350.403c5.247,0,9.516,4.269,9.516,9.516V413.872z M447.286,106.205h-8.584v-8.848h8.584
		c17.918,0,32.914,12.749,36.393,29.653h-9.096C471.287,115.03,460.298,106.205,447.286,106.205z M497,206.834
		c0,4.214-3.428,7.642-7.642,7.642h-18.685c-4.213,0-7.642-3.428-7.642-7.642v-57.183c0-3.703,2.648-6.797,6.149-7.493
		c0.484-0.096,0.999-0.149,1.492-0.149c0,0,18.666,0,18.685,0c0.467,0,0.948,0.05,1.407,0.136c3.543,0.663,6.235,3.774,6.235,7.506
		V206.834z"/>
	<path d="M114.188,229.477h34.257c4.142,0,7.5-3.358,7.5-7.5s-3.358-7.5-7.5-7.5h-26.757v-18.388h268.624v18.388H178.329
		c-4.142,0-7.5,3.358-7.5,7.5s3.358,7.5,7.5,7.5h219.483c4.142,0,7.5-3.358,7.5-7.5V82.015c0-20.063-16.322-36.385-36.385-36.385
		h-34.171c-4.142,0-7.5,3.358-7.5,7.5s3.358,7.5,7.5,7.5h34.171c11.792,0,21.385,9.593,21.385,21.385v99.074H121.688V82.015
		c0-11.792,9.593-21.385,21.385-21.385h162.82c4.142,0,7.5-3.358,7.5-7.5s-3.358-7.5-7.5-7.5h-162.82
		c-20.063,0-36.385,16.322-36.385,36.385v139.961C106.688,226.119,110.046,229.477,114.188,229.477z"/>
</g>
<g>
</g>
<g>
</g>
<g>
</g>
<g>
</g>
<g>
</g>
<g>
</g>
<g>
</g>
<g>
</g>
<g>
</g>
<g>
</g>
<g>
</g>
<g>
</g>
<g>
</g>
<g>
</g>
<g>
</g>
</svg>
