<svg id="Capa_1" enable-background="new 0 0 512 512" height="512" viewBox="0 0 512 512" width="512" xmlns="http://www.w3.org/2000/svg"><g><path d="m97.5 232.5 30 272h53.5l75-30 75 30h53.5l30-272z" fill="#62676f"/><path d="m331 504.5h-30l-30-60 60 30z" fill="#83878c"/><path d="m301 504.5h-120v-30l120-30z" fill="#a4a6aa"/><path d="m331 474.5h-30l-30-60 60 30z" fill="#a4a6aa"/><path d="m301 474.5h-120v-30l120-30z" fill="#c2c4c6"/><path d="m414.5 444.5h-98.5l-60-15-60 15h-98.5v-212h317z" fill="#c2c4c6"/><path d="m316 322.5-59.016-45 29.016 167h30z" fill="#98d3f3"/><path d="m211.738 292.5 44.262 152h30v-152z" fill="#adf2f5"/><path d="m196 322.5v122h60v-152z" fill="#d6f9fa"/><path d="m227 232.5 60 90h30v-90z" fill="#fffbbe"/><path d="m195 232.5h92v90h-92z" fill="#fff"/><path d="m97.5 142.5h317v135h-317z" fill="#e1e1e3"/><path d="m474.5 7.5-45 75 75-45v-30z" fill="#c2c4c6"/><path d="m384.5 7.5v30l90 45v-75z" fill="#e1e1e3"/><path d="m474.5 37.5-60 233.5 60 233.5h30v-467z" fill="#fe5e49"/><path d="m474.5 37.5h-90v467h90v-47l-15-37.5 15-37.5v-30l-15-37.5 15-37.5v-30l-15-37.5 15-37.5v-30l-15-37.5 15-37.5z" fill="#fe8566"/><path d="m97.5 7.5-45 75 75-45v-30z" fill="#c2c4c6"/><path d="m7.5 7.5v30l90 45v-75z" fill="#e1e1e3"/><path d="m97.5 37.5-60 233.5 60 233.5h30v-467z" fill="#fe5e49"/><path d="m97.5 37.5h-90v467h90v-47l-15-37.5 15-37.5v-30l-15-37.5 15-37.5v-30l-15-37.5 15-37.5v-30l-15-37.5 15-37.5z" fill="#fe8566"/><path d="m67.5 67.5-15 37.5 15 37.5h30v-75z" fill="#d6f9fa"/><path d="m37.5 67.5h30v75h-30z" fill="#fff"/><path d="m67.5 172.5-15 37.5 15 37.5h30v-75z" fill="#d6f9fa"/><path d="m37.5 172.5h30v75h-30z" fill="#fff"/><path d="m67.5 277.5-15 37.5 15 37.5h30v-75z" fill="#d6f9fa"/><path d="m37.5 277.5h30v75h-30z" fill="#fff"/><path d="m67.5 382.5-15 37.5 15 37.5h30v-75z" fill="#d6f9fa"/><path d="m37.5 382.5h30v75h-30z" fill="#fff"/><path d="m444.5 67.5-15 37.5 15 37.5h30v-75z" fill="#d6f9fa"/><path d="m414.5 67.5h30v75h-30z" fill="#fff"/><path d="m444.5 172.5-15 37.5 15 37.5h30v-75z" fill="#d6f9fa"/><path d="m414.5 172.5h30v75h-30z" fill="#fff"/><path d="m444.5 277.5-15 37.5 15 37.5h30v-75z" fill="#d6f9fa"/><path d="m414.5 277.5h30v75h-30z" fill="#fff"/><path d="m444.5 382.5-15 37.5 15 37.5h30v-75z" fill="#d6f9fa"/><path d="m414.5 382.5h30v75h-30z" fill="#fff"/><path d="m271 195v-22.5h-30v22.5h-22.5v30h22.5v22.5h30v-22.5h22.5v-30z" fill="#ff3a33"/><path d="m37.5 150h60c4.142 0 7.5-3.358 7.5-7.5v-75c0-4.142-3.358-7.5-7.5-7.5h-60c-4.142 0-7.5 3.358-7.5 7.5v75c0 4.142 3.358 7.5 7.5 7.5zm7.5-75h45v60h-45z"/><path d="m37.5 255h60c4.142 0 7.5-3.358 7.5-7.5v-75c0-4.142-3.358-7.5-7.5-7.5h-60c-4.142 0-7.5 3.358-7.5 7.5v75c0 4.142 3.358 7.5 7.5 7.5zm7.5-75h45v60h-45z"/><path d="m37.5 360h60c4.142 0 7.5-3.358 7.5-7.5v-75c0-4.142-3.358-7.5-7.5-7.5h-60c-4.142 0-7.5 3.358-7.5 7.5v75c0 4.142 3.358 7.5 7.5 7.5zm7.5-75h45v60h-45z"/><path d="m37.5 465h60c4.142 0 7.5-3.358 7.5-7.5v-75c0-4.142-3.358-7.5-7.5-7.5h-60c-4.142 0-7.5 3.358-7.5 7.5v75c0 4.142 3.358 7.5 7.5 7.5zm7.5-75h45v60h-45z"/><path d="m414.5 150h60c4.143 0 7.5-3.358 7.5-7.5v-75c0-4.142-3.357-7.5-7.5-7.5h-60c-4.143 0-7.5 3.358-7.5 7.5v75c0 4.142 3.357 7.5 7.5 7.5zm7.5-75h45v60h-45z"/><path d="m414.5 255h60c4.143 0 7.5-3.358 7.5-7.5v-75c0-4.142-3.357-7.5-7.5-7.5h-60c-4.143 0-7.5 3.358-7.5 7.5v75c0 4.142 3.357 7.5 7.5 7.5zm7.5-75h45v60h-45z"/><path d="m414.5 360h60c4.143 0 7.5-3.358 7.5-7.5v-75c0-4.142-3.357-7.5-7.5-7.5h-60c-4.143 0-7.5 3.358-7.5 7.5v75c0 4.142 3.357 7.5 7.5 7.5zm7.5-75h45v60h-45z"/><path d="m414.5 465h60c4.143 0 7.5-3.358 7.5-7.5v-75c0-4.142-3.357-7.5-7.5-7.5h-60c-4.143 0-7.5 3.358-7.5 7.5v75c0 4.142 3.357 7.5 7.5 7.5zm7.5-75h45v60h-45z"/><path d="m504.5 0h-120c-4.143 0-7.5 3.358-7.5 7.5v127.5h-242v-127.5c0-4.142-3.358-7.5-7.5-7.5h-120c-4.142 0-7.5 3.358-7.5 7.5v497c0 4.142 3.358 7.5 7.5 7.5h497c4.143 0 7.5-3.358 7.5-7.5v-497c0-4.142-3.357-7.5-7.5-7.5zm-384.5 497h-105v-452h105zm0-467h-105v-15h105zm15 255h53.5v37.5c0 4.142 3.358 7.5 7.5 7.5h52.5v107h-45v-84.5c0-4.142-3.358-7.5-7.5-7.5s-7.5 3.358-7.5 7.5v84.5h-53.5zm68.5 30v-30h105v30zm105 15v107h-45v-107zm-135 167h-38.5v-45h38.5zm150 0h-135v-15h135zm0-30h-135v-15h135zm53.5 30h-38.5v-45h38.5zm0-60h-53.5v-152h53.5zm0-167h-242v-120h242zm120 227h-105v-452h105zm0-467h-105v-15h105z"/><path d="m218.5 232.5h15v15c0 4.142 3.358 7.5 7.5 7.5h30c4.143 0 7.5-3.358 7.5-7.5v-15h15c4.143 0 7.5-3.358 7.5-7.5v-30c0-4.142-3.357-7.5-7.5-7.5h-15v-15c0-4.142-3.357-7.5-7.5-7.5h-30c-4.142 0-7.5 3.358-7.5 7.5v15h-15c-4.142 0-7.5 3.358-7.5 7.5v30c0 4.142 3.358 7.5 7.5 7.5zm7.5-30h15c4.142 0 7.5-3.358 7.5-7.5v-15h15v15c0 4.142 3.357 7.5 7.5 7.5h15v15h-15c-4.143 0-7.5 3.358-7.5 7.5v15h-15v-15c0-4.142-3.358-7.5-7.5-7.5h-15z"/></g></svg>