<?xml version="1.0" encoding="iso-8859-1"?>
<!-- Generator: Adobe Illustrator 22.0.0, SVG Export Plug-In . SVG Version: 6.00 Build 0)  -->
<svg version="1.1" id="Capa_1" xmlns="http://www.w3.org/2000/svg" xmlns:xlink="http://www.w3.org/1999/xlink" x="0px" y="0px"
	 viewBox="0 0 512 512" style="enable-background:new 0 0 512 512;" xml:space="preserve">
<g>
	<path d="M171.694,356.27c-13.101,0-23.76,10.659-23.76,23.76c0,4.142,3.358,7.5,7.5,7.5s7.5-3.358,7.5-7.5
		c0-4.83,3.93-8.76,8.76-8.76s8.76,3.93,8.76,8.76c0,4.142,3.358,7.5,7.5,7.5s7.5-3.358,7.5-7.5
		C195.454,366.929,184.795,356.27,171.694,356.27z"/>
	<path d="M317.04,356.27c-13.101,0-23.76,10.659-23.76,23.76c0,4.142,3.358,7.5,7.5,7.5s7.5-3.358,7.5-7.5
		c0-4.83,3.93-8.76,8.76-8.76s8.76,3.93,8.76,8.76c0,4.142,3.358,7.5,7.5,7.5s7.5-3.358,7.5-7.5
		C340.799,366.929,330.141,356.27,317.04,356.27z"/>
	<path d="M266.542,393.381c-3.123-2.721-7.861-2.397-10.582,0.726c-2.928,3.359-7.153,5.285-11.594,5.285s-8.666-1.926-11.594-5.285
		c-2.722-3.122-7.459-3.447-10.582-0.726c-3.123,2.721-3.448,7.459-0.726,10.582c5.776,6.628,14.124,10.43,22.901,10.43
		s17.125-3.801,22.901-10.43C269.99,400.84,269.665,396.102,266.542,393.381z"/>
	<path d="M502.88,243.991c-6.753-6.743-16.059-9.973-25.534-8.857l-30.9,3.631l-82.06-74.803
		c-10.094-9.202-23.369-13.842-36.89-13.031l-46.813-42.673c-7.082-6.456-16.595-9.44-26.092-8.186l-37.01,4.881l-49.656-47.3
		c-7.208-6.866-16.661-10.647-26.616-10.647c0,0-14.637,0-14.65,0c-11.337,0-18.833,12.498-13.468,22.503l24.646,45.961
		l-21.026,2.773c-12.406,1.636-22.874,10.398-26.668,22.322c-0.089,0.281-0.162,0.567-0.218,0.857l-8.095,42.072
		c-16.833,4.155-30.631,16.876-35.956,33.612l-22.847,71.809C9.189,292.778-0.43,305.495,0.015,320.318
		c1.131,37.742,9.551,75.689,25.919,109.788c10.173,21.194,32.036,34.889,55.698,34.889h269.471
		c40.826,0,79.434-19.855,103.278-53.112c30.099-41.973,51.383-90.768,57.407-142.305
		C512.893,260.074,509.646,250.748,502.88,243.991z M126.417,62.143c0.082-0.137,0.149-0.137,0.242-0.137h14.65
		c6.086,0,11.864,2.312,16.271,6.509l40.898,38.958l-44.745,5.901l-27.322-50.952C126.367,62.339,126.335,62.28,126.417,62.143z
		 M252.544,216.756l76.189-10.053l44.598,40.653l-115.317,13.55L252.544,216.756z M60.167,221.655
		c4.132-12.988,15.534-22.532,29.047-24.314l46.565-6.141c3.85-0.508,6.631-3.851,6.517-7.651c-0.008-0.253-0.028-0.509-0.062-0.766
		c-0.542-4.106-4.303-6.996-8.416-6.455l-36.254,4.782l7-36.378c2.139-6.214,7.674-10.755,14.209-11.617l137.781-18.171
		c5.109-0.673,10.219,0.931,14.025,4.401l37.327,34.025l-145.229,19.154c-4.107,0.542-6.997,4.31-6.455,8.416
		c0.542,4.107,4.311,6.999,8.416,6.455l161.225-21.263c10.347-1.364,20.706,1.885,28.419,8.917l72.442,66.036l-33.667,3.956
		l-56.047-51.089c-1.794-1.621-4.11-2.514-6.521-2.514c-0.391,0-87.282,11.423-87.282,11.423c-4.083,0.539-6.969,4.27-6.462,8.358
		l6.373,51.441l-20.387,2.396c0,0-6.309-51.012-6.313-51.041c-0.506-4.09-4.336-7.056-8.424-6.515L92.568,222.722
		c-3.71,0.484-6.85,3.105-8.003,6.696l-17.141,53.884l-27.914,3.28L60.167,221.655z M97.843,237.156l104.614-13.799l5.374,43.446
		L83.776,281.38L97.843,237.156z M442.191,403.142c-21.034,29.338-55.085,46.853-91.088,46.853H81.632
		c-17.928,0-34.482-10.355-42.175-26.38c-9.103-18.964-15.782-39.692-19.894-61.721c0,0,368.857-43.345,369.158-43.38
		c4.028-0.473,7.048-4.299,6.573-8.324c-0.483-4.114-4.204-7.056-8.324-6.574L17.21,347.067c-1.195-9.11-1.934-18.229-2.202-27.197
		c-0.261-8.695,6.061-16.018,14.706-17.033c0,0,415.084-48.774,415.086-48.774l34.298-4.03c4.895-0.575,9.696,1.092,13.184,4.574
		c3.5,3.495,5.18,8.321,4.608,13.234c-0.909,7.775-2.194,15.594-3.829,23.309c0,0-76.971,9.044-77.054,9.054
		c-4.009,0.471-7.046,4.307-6.573,8.325c0.478,4.063,4.263,7.049,8.324,6.573l71.504-8.403
		C480.068,339.968,464.263,372.362,442.191,403.142z"/>
</g>
<g>
</g>
<g>
</g>
<g>
</g>
<g>
</g>
<g>
</g>
<g>
</g>
<g>
</g>
<g>
</g>
<g>
</g>
<g>
</g>
<g>
</g>
<g>
</g>
<g>
</g>
<g>
</g>
<g>
</g>
</svg>
