<?xml version="1.0" encoding="iso-8859-1"?>
<!-- Generator: Adobe Illustrator 22.0.0, SVG Export Plug-In . SVG Version: 6.00 Build 0)  -->
<svg version="1.1" id="Capa_1" xmlns="http://www.w3.org/2000/svg" xmlns:xlink="http://www.w3.org/1999/xlink" x="0px" y="0px"
	 viewBox="0 0 512 512" style="enable-background:new 0 0 512 512;" xml:space="preserve">
<g>
	<g>
		<rect x="354.082" y="101.001" style="fill:#5C87BD;" width="52.5" height="143.003"/>
		<polygon style="fill:#456EA2;" points="376.582,101.001 376.582,152.944 354.082,130.444 354.082,215.299 406.582,244.004 
			406.582,182.944 406.582,101.001 		"/>
	</g>
	<g>
		<path style="fill:#5C87BD;" d="M256,98.091L56,298.104v132.899c5.719,0,394.281,0,400,0V298.104L256,98.091z"/>
		<path style="fill:#456EA2;" d="M426,401.003H56v30c5.719,0,394.281,0,400,0V298.104l-29.998-30H426V401.003z"/>
	</g>
	<path style="fill:#F4EEE0;" d="M489.5,344.501c-3.839,0-7.678-1.465-10.606-4.394L256,117.214L33.106,340.107
		c-5.857,5.857-15.355,5.857-21.213,0c-5.858-5.857-5.858-15.355,0-21.213l233.5-233.5c5.857-5.857,15.355-5.857,21.213,0
		l233.5,233.5c5.858,5.857,5.858,15.355,0,21.213C497.178,343.036,493.339,344.501,489.5,344.501z"/>
	<g>
		<path style="fill:#FFCF5D;" d="M101,368.321h65c8.284,0,15-6.716,15-15v-21.105c0-8.284-6.716-15-15-15h-65
			c-8.284,0-15,6.716-15,15v21.105C86,361.605,92.716,368.321,101,368.321z"/>
		<path style="fill:#FFCF5D;" d="M331,332.216v21.105c0,8.284,6.716,15,15,15h65c8.284,0,15-6.716,15-15v-21.105
			c0-8.284-6.716-15-15-15h-65C337.716,317.216,331,323.931,331,332.216z"/>
	</g>
	<g>
		<path style="fill:#B66652;" d="M286,288.003h-60c-8.284,0-15,6.716-15,15v128h90v-128C301,294.718,294.284,288.003,286,288.003z"
			/>
		<path style="fill:#A05A4B;" d="M286,288.003h-15v113h-60v30h90v-128C301,294.719,294.284,288.003,286,288.003z"/>
	</g>
	<path style="fill:#F4EEE0;" d="M414.082,81.001h-67.5c-4.142,0-7.5,3.358-7.5,7.5v15c0,4.142,3.358,7.5,7.5,7.5h67.5
		c4.142,0,7.5-3.358,7.5-7.5v-15C421.582,84.359,418.224,81.001,414.082,81.001z"/>
	<g>
		<path d="M505.41,313.591l-91.328-91.328V118.501c8.271,0,15-6.729,15-15v-15c0-8.271-6.729-15-15-15h-67.5
			c-8.271,0-15,6.729-15,15v15c0,8.271,6.729,15,15,15v36.262L271.91,80.091c-8.793-8.791-23.026-8.793-31.82,0l-233.5,233.5
			c-4.25,4.25-6.59,9.9-6.59,15.91s2.341,11.66,6.59,15.91c8.772,8.771,23.047,8.771,31.819,0L48.5,335.32v95.683
			c0,4.143,3.358,7.5,7.5,7.5h155c0.007,0,0.013-0.001,0.019-0.001c0,0,0,0,0.001,0c0.004,0,0.008-0.001,0.012-0.001
			c4.127-0.018,7.468-3.366,7.468-7.498v-128c0-4.136,3.364-7.5,7.5-7.5h60c4.136,0,7.5,3.364,7.5,7.5v120.499H241
			c-4.14,0-7.5,3.37-7.5,7.5c0,4.14,3.36,7.5,7.5,7.5c0.01,0,0.01,0,0.02,0c8.458,0,202.825,0.001,214.98,0.001
			c4.143,0,7.5-3.357,7.5-7.5v-95.682l10.09,10.09c4.25,4.249,9.9,6.59,15.91,6.59s11.66-2.341,15.909-6.59
			c4.25-4.249,6.591-9.899,6.591-15.91C512,323.491,509.659,317.841,505.41,313.591z M346.582,88.501h67.5l0.01,15
			c0,0-0.003,0-0.01,0h-67.5V88.501z M361.582,118.501h37.5v88.762l-37.5-37.5V118.501z M448.5,423.503h-140v-120.5
			c0-12.406-10.094-22.5-22.5-22.5h-60c-12.407,0-22.5,10.094-22.5,22.5v120.5h-140V320.32L256,127.82l192.5,192.501V423.503z
			 M494.803,334.804c-2.93,2.932-7.675,2.932-10.605,0L261.304,111.91c-2.927-2.925-7.678-2.929-10.607,0L27.803,334.804
			c-2.928,2.929-7.675,2.932-10.606,0c-2.931-2.93-2.931-7.675,0-10.605l233.5-233.5c2.929-2.93,7.676-2.932,10.606,0l233.5,233.5
			c0.001,0,0.001,0,0.001,0C497.734,327.129,497.735,331.874,494.803,334.804z"/>
		<path d="M166,309.716c-6.786,0-58.022,0-65,0c-12.407,0-22.5,10.094-22.5,22.5v21.105c0,12.406,10.093,22.5,22.5,22.5
			c6.786,0,58.022,0,65,0c12.407,0,22.5-10.094,22.5-22.5v-21.105C188.5,319.81,178.407,309.716,166,309.716z M101,360.821
			c-4.136,0-7.5-3.364-7.5-7.5v-21.105c0-4.136,3.364-7.5,7.5-7.5h25v36.105H101z M173.5,353.321c0,4.136-3.364,7.5-7.5,7.5h-25
			v-36.105h25c4.136,0,7.5,3.364,7.5,7.5V353.321z"/>
		<path d="M346,375.821c6.786,0,58.022,0,65,0c12.406,0,22.5-10.094,22.5-22.5v-21.105c0-12.406-10.094-22.5-22.5-22.5
			c-6.786,0-58.022,0-65,0c-12.406,0-22.5,10.094-22.5,22.5v21.105C323.5,365.728,333.594,375.821,346,375.821z M411,324.716
			c4.136,0,7.5,3.364,7.5,7.5v21.105c0,4.136-3.364,7.5-7.5,7.5h-25v-36.105H411z M338.5,332.216c0-4.136,3.364-7.5,7.5-7.5h25
			v36.105h-25c-4.136,0-7.5-3.364-7.5-7.5V332.216z"/>
		<path d="M246.3,369.629c1.4-1.39,2.2-3.317,2.2-5.295c0-4.784-4.42-8.259-8.96-7.344c-3.719,0.778-6.04,3.946-6.04,7.344
			C233.5,370.977,241.582,374.374,246.3,369.629z"/>
	</g>
</g>
<g>
</g>
<g>
</g>
<g>
</g>
<g>
</g>
<g>
</g>
<g>
</g>
<g>
</g>
<g>
</g>
<g>
</g>
<g>
</g>
<g>
</g>
<g>
</g>
<g>
</g>
<g>
</g>
<g>
</g>
</svg>
