<svg xmlns="http://www.w3.org/2000/svg" viewBox="0 0 512 512"><title>Retail - Lineal Color</title><g id="_37_Women_Fashion" data-name="37 Women Fashion"><path d="M320.41,480.88c-27.65,21.72-60.64,26.59-91.92,22.09-36.74-5.29-72.25-22.26-108.24-34.7-27.17-9.39-55.31-16.19-82.91-13.37C49.06,351.57,80.11,243.16,99.9,209.54,92.64,174.85,81,127.69,78.72,105.91s-.72-77-.17-93.61a5,5,0,0,1,5-4.81h17.6a5,5,0,0,1,5,5V31.57a70.92,70.92,0,0,0,71.18,70.94c39.25-.13,70.69-32.73,70.69-72v-18a5,5,0,0,1,5-5h17.6a5,5,0,0,1,5,4.81c.56,16.6,2.16,71.7-.17,93.61-2.29,21.48-13.6,67.38-20.88,102.19C275.83,243.07,311.37,369,320.41,480.88Z" style="fill:#ffe1d7"/><path d="M254.46,208.11c7.29-34.81,18.6-80.71,20.88-102.19,2.33-21.9.72-77,.17-93.61a5,5,0,0,0-5-4.81h-17.6a5,5,0,0,0-5,5v18c0,.74,0,1.47-.05,2.2.49,23.48.84,57.2-.66,73.2-2,21.48-12,67.38-18.42,102.19C247.68,243.07,279,369,287,480.88a91,91,0,0,1-51.12,23c29,2.75,59-3,84.53-23C311.37,369,275.83,243.07,254.46,208.11Z" style="fill:#ffd2c0"/><path d="M99.6,208.11l.3,1.43c-19.79,33.62-50.85,142-62.56,245.36,27.6-2.82,55.75,4,82.91,13.37,36,12.44,71.5,29.42,108.24,34.7,31.28,4.5,64.27-.37,91.92-22.09-9-111.87-44.58-237.81-65.95-272.77Z" style="fill:#8cbafa"/><path d="M254.46,208.11H228.84C247.68,243.07,279,369,287,480.88a91,91,0,0,1-51.12,23c30.7,2.91,60.18-3.84,84.53-23C314.33,405.63,284,256.47,254.46,208.11Z" style="fill:#5692d8"/><path d="M249.35,512a153.88,153.88,0,0,1-21.93-1.61c-27.3-3.93-54-14.12-79.74-24-9.8-3.75-19.94-7.62-29.88-11.06-32.66-11.29-57.23-15.3-79.7-13a7.5,7.5,0,0,1-8.22-8.31C41.23,354,71.27,246.09,92,208.31c-2.05-9.68-4.44-20.39-6.75-30.77-6-27.12-12.3-55.17-14-70.83-.23-2.13-.43-4.63-.59-7.41a7.5,7.5,0,1,1,15-.88c.15,2.55.33,4.81.53,6.71,1.57,14.81,7.73,42.43,13.69,69.15,2.55,11.43,5.18,23.25,7.38,33.73a7.5,7.5,0,0,1-.88,5.34C87,246.27,58,348.85,45.85,446.81c22.16-.74,46.34,3.82,76.85,14.37,10.18,3.52,20.43,7.44,30.34,11.23,25,9.56,50.88,19.45,76.52,23.14,22.31,3.21,54.47,2.53,83-18.16-1.41-16.34-3.43-33.54-6-51.2A7.5,7.5,0,1,1,321.42,424c2.85,19.46,5,38.38,6.47,56.26a7.5,7.5,0,0,1-2.84,6.5C303.83,503.44,278,512,249.35,512Z"/><path d="M297.35,344.92a7.5,7.5,0,0,1-7.3-5.81C276.76,281.9,260.28,232,248.06,212a7.5,7.5,0,0,1-.94-5.45c2.21-10.56,4.83-22.33,7.37-33.7,5.83-26.15,11.85-53.18,13.4-67.75,2.18-20.45.81-71.37.21-90.12H255.47V30.52c0,43.68-35.06,79.34-78.16,79.49A78.42,78.42,0,0,1,98.6,31.57V15H86c-.35,10.76-1,33.16-1,53.85a7.5,7.5,0,0,1-7.5,7.5h0a7.5,7.5,0,0,1-7.5-7.5c0-22.65.74-47.27,1.06-56.8A12.42,12.42,0,0,1,83.53,0h17.6A12.49,12.49,0,0,1,113.6,12.48V31.57A63.42,63.42,0,0,0,177,95h.22c34.86-.12,63.21-29,63.21-64.49v-18A12.49,12.49,0,0,1,252.95,0h17.6A12.42,12.42,0,0,1,283,12.06c.55,16.54,2.18,72.26-.21,94.65-1.64,15.42-7.76,42.87-13.68,69.42-2.3,10.32-4.67,21-6.73,30.69,12.78,22.66,29.17,72.54,42.26,128.91a7.51,7.51,0,0,1-7.31,9.2Z"/><path d="M254.46,215.61H99.6a7.5,7.5,0,0,1,0-15H254.46a7.5,7.5,0,0,1,0,15Z"/><path d="M138.33,282.94a7.51,7.51,0,0,1-7.46-8.38c3.43-29.15,6.91-52.34,9.82-65.57l0-.32a7.5,7.5,0,1,1,15-1.14l.11,1.4a7.5,7.5,0,0,1-.16,2.27c-2.85,12.52-6.33,35.64-9.8,65.12A7.5,7.5,0,0,1,138.33,282.94Z"/><path d="M218.41,282.94a7.5,7.5,0,0,1-7.44-6.62c-3.61-30.62-7.19-54.23-10.09-66.49a7.5,7.5,0,0,1,14.6-3.45c3,12.8,6.72,37,10.39,68.19a7.51,7.51,0,0,1-7.46,8.38Z"/><path d="M436.68,247.31c-27.11,0-42.6,18.69-58.79,54.21-15.67,34.36-40.91,78.17-67,78.17-14.93,0-23.07-12.59-27.65-22.81a5.85,5.85,0,0,0-6.58-3.34c-66,14.47-73.44,60.61-73.93,77.34a5.92,5.92,0,0,0,5.93,6.13H328.78a7.9,7.9,0,0,0,7.51-5.38c14.81-44.8,62.09-90.76,81.38-90.76,4.93,5.19,4.93,27.54,4.93,39.16v51a6,6,0,0,0,6,6H441a6,6,0,0,0,6-6V380c0-26.05,20.64-42.24,20.64-69.7C467.66,272,452.87,247.31,436.68,247.31Z" style="fill:#ed5176"/><path d="M436.68,247.31a51.47,51.47,0,0,0-9.57.86c13.18,4.62,24.23,27.91,24.23,62.15C451.33,337.78,432,354,432,380v51a5.92,5.92,0,0,1-4.54,5.88,6,6,0,0,0,1.17.12H441a6,6,0,0,0,6-6V380c0-26.05,20.64-42.24,20.64-69.7C467.66,272,452.87,247.31,436.68,247.31Z" style="fill:#ba365f"/><path d="M441,444.51H428.6A13.52,13.52,0,0,1,415.1,431V380c0-15.1-.59-25.38-1.77-30.69-7.35,2.75-19.44,11.31-32.57,25.25-17.35,18.44-31,40.09-37.35,59.4a15.37,15.37,0,0,1-14.63,10.53H208.66a13.42,13.42,0,0,1-13.43-13.85,84.64,84.64,0,0,1,13.65-43.42c13.55-20.56,35.82-34.36,66.17-41a13.4,13.4,0,0,1,15,7.6c5.54,12.37,12.35,18.38,20.8,18.38,16.87,0,38.81-26.89,60.18-73.78,16-35.17,33.33-58.6,65.61-58.6,22.3,0,38.48,29.66,38.48,70.51,0,15.62-5.73,27.53-11.26,39.05-4.82,10-9.38,19.51-9.38,30.65v51A13.52,13.52,0,0,1,441,444.51Zm-10.92-15h9.42V380c0-14.56,5.52-26,10.86-37.15,5-10.47,9.78-20.35,9.78-32.55,0-36.22-13.64-55.51-23.48-55.51-21.6,0-35.19,13-52,49.82-25,54.78-49.82,82.56-73.83,82.56-14.45,0-25.86-8.76-33.94-26-56.93,13-65.72,50.91-66.65,68.35H328.78a.41.41,0,0,0,.39-.24c7-21.31,21.87-45,40.67-65,6.83-7.26,30.46-30.94,47.83-30.94a7.5,7.5,0,0,1,5.44,2.34c5.87,6.19,7,20.35,7,44.32Zm-18-83.66h0Z"/><path d="M320.44,71l-22.34,52.58a6.45,6.45,0,0,0,1.12,6.82l82.08,92.14a6.45,6.45,0,0,0,9.64,0L473,130.4a6.45,6.45,0,0,0,1.12-6.82L451.81,71a6.45,6.45,0,0,0-5.94-3.93H326.38A6.45,6.45,0,0,0,320.44,71Z" style="fill:#c8e7f7"/><path d="M474.21,123.74H416a.69.69,0,0,0,0-.16L408.44,71c-.34-2.37-1.14-3.92-2-3.92h39.44a6.48,6.48,0,0,1,6,3.92l22.33,52.59A.85.85,0,0,1,474.21,123.74Z" style="fill:#add9ea"/><path d="M365.83,67.08c-.88,0-1.68,1.55-2,3.92l-7.58,52.59a.69.69,0,0,0,0,.16H298a.85.85,0,0,1,.06-.16L320.44,71a6.48,6.48,0,0,1,6-3.92Z" style="fill:#def6ff"/><path d="M473,130.4,391,222.54a6.45,6.45,0,0,1-4.82,2.15c.6,0,1.19-.72,1.63-2.15l27.88-92.14a16.6,16.6,0,0,0,.39-6.66h58.17A6.46,6.46,0,0,1,473,130.4Z" style="fill:#90c7d3"/><path d="M415.64,130.4l-27.88,92.14c-.44,1.44-1,2.15-1.63,2.15s-1.2-.72-1.64-2.15L356.61,130.4a16.83,16.83,0,0,1-.39-6.66H416A16.6,16.6,0,0,1,415.64,130.4Z" style="fill:#add9ea"/><path d="M386.13,232.2a14,14,0,0,1-10.42-4.67l-82.08-92.14a14,14,0,0,1-2.42-14.74l7.43-17.48A7.5,7.5,0,1,1,312.43,109l-7.17,16.87,80.86,90.77L467,125.9,445.18,74.57H327.07l-2.52,5.94a7.5,7.5,0,1,1-13.81-5.87l2.79-6.58a13.93,13.93,0,0,1,12.84-8.5H445.87a13.93,13.93,0,0,1,12.84,8.5L481,120.65a14,14,0,0,1-2.42,14.74l-82.08,92.14A14,14,0,0,1,386.13,232.2Z"/><path d="M386.13,232.2h0c-1.54,0-6.71-.54-8.81-7.49l-27.88-92.14a24.49,24.49,0,0,1-.63-10.06l7.59-52.58c1.39-9.61,7.58-10.36,9.44-10.36h40.59c1.86,0,8.05.75,9.44,10.36l7.59,52.58a24.49,24.49,0,0,1-.63,10.06l-2.63,8.7a7.5,7.5,0,1,1-14.36-4.34l2.63-8.7a9.79,9.79,0,0,0,.14-3.57l-7.23-50.08h-30.5l-7.23,50.08a9.79,9.79,0,0,0,.14,3.57L386.13,202l10.75-35.53a7.5,7.5,0,1,1,14.36,4.34l-16.29,53.84C392.84,231.66,387.66,232.2,386.13,232.2Z"/><path d="M474.15,131.08h-176a7.5,7.5,0,1,1,0-15h176a7.5,7.5,0,0,1,0,15Z"/></g></svg>