<svg xmlns="http://www.w3.org/2000/svg" viewBox="0 0 512 512"><title>Retail - Lineal</title><g id="_1_Shopping_cart" data-name="1 Shopping cart"><path d="M9.85,437.67a21.64,21.64,0,0,0,15.52,32.55,21.61,21.61,0,0,0,21.58-10.29L70.29,421,72,435.47a7.5,7.5,0,1,0,14.9-1.74L82.94,400l53.57-89.28h239L429.06,400l-9.41,80.47A18.74,18.74,0,0,1,401,497H111a18.74,18.74,0,0,1-18.62-16.58l-2-16.91a7.5,7.5,0,0,0-14.9,1.74l2,16.9A33.74,33.74,0,0,0,111,512H401a33.74,33.74,0,0,0,33.52-29.84L441.7,421l23.35,38.92a21.59,21.59,0,0,0,18.53,10.5,21.82,21.82,0,0,0,3-.21,21.63,21.63,0,0,0,15.52-32.55l-52.22-87,4.68-40h6.65a21.39,21.39,0,0,0,21.37-21.37V264.83a21.39,21.39,0,0,0-21.37-21.37H431.94V215.27s0-.05,0-.08a7.51,7.51,0,0,0-.11-1.2l0-.1a7.44,7.44,0,0,0-.29-1.13l0-.1a7.46,7.46,0,0,0-.49-1.09h0a7.5,7.5,0,0,0-.65-1l0-.07L404.42,178V150.64a16.37,16.37,0,0,0-16.35-16.35H357.91c-.19-.38-.38-.77-.58-1.13-3.72-7-14-15.93-30.44-26.59a11.92,11.92,0,0,1-5.46-10.07V76.61a9.74,9.74,0,0,0,5.43-8.72V26.16A26.19,26.19,0,0,0,300.7,0H272.21A26.19,26.19,0,0,0,246,26.16V67.9a9.74,9.74,0,0,0,5.43,8.72V96.5A11.92,11.92,0,0,1,246,106.57c-2.72,1.76-5.78,3.81-8.89,6,0-.59,0-1.17,0-1.76a40,40,0,1,0-79.1,8.42l2.52,11.91a28.62,28.62,0,0,0-31.81,45,28.18,28.18,0,0,0,4.32,4.29l22.34,18a63,63,0,0,0-21.35,45H98.28l-1.57-2.95.71-.36c24-12.76,44-33.71,35.81-49.07h0c-8.17-15.36-36.72-10.49-60.7,2.27l-.69.39-10.09-19,.71-.36c11.95-6.36,22.27-14.3,29-22.37,11.17-13.29,9-22.43,6.76-26.7S89.6,114.19,72.33,116c-10.48,1.11-22.84,5.23-34.79,11.58h0l-.69.39-7.56-14.21a53.51,53.51,0,0,1-6.35-25.39A54.19,54.19,0,0,1,125,62.88l12.92,24.3a7.5,7.5,0,1,0,13.24-7l-12.92-24.3A69.19,69.19,0,1,0,16,120.82L81.29,243.46H50.74a21.39,21.39,0,0,0-21.37,21.37v24.48a21.39,21.39,0,0,0,21.37,21.37h6.65l4.68,40ZM79.56,206.6c10.14-5.4,20.83-9,29.32-9.91,7.46-.79,10.74.78,11.09,1.44s-.18,4.26-5,10c-5.49,6.54-14.46,13.38-24.61,18.78l-.7.37L78.87,207Zm-35-65.75c10.14-5.4,20.83-9,29.32-9.91,7.46-.79,10.74.78,11.09,1.44s-.18,4.26-5,10c-5.49,6.54-14.46,13.38-24.61,18.78l-.7.37-10.8-20.31.7-.37ZM34.08,452.22a6.62,6.62,0,0,1-6.62,3.16h0a6.63,6.63,0,0,1-4.75-10l99.54-165.87a6.59,6.59,0,0,1,4.08-3,6.66,6.66,0,0,1,1.62-.2,6.64,6.64,0,0,1,5.67,10Zm456-1.8a6.64,6.64,0,0,1-5.5,5h0a6.62,6.62,0,0,1-6.62-3.16L378.38,286.35a6.63,6.63,0,1,1,11.37-6.82l99.54,165.87A6.59,6.59,0,0,1,490,450.41ZM437.3,329.6l-11.35-18.92h13.57ZM285.23,243.46V217.81l23.65-29.72h84.42l15.6,19.6h-34a7.5,7.5,0,0,0,0,15h42v20.77Zm104.19-92.82v22.45H312.76V150.64a1.35,1.35,0,0,1,1.35-1.35h74A1.35,1.35,0,0,1,389.42,150.64ZM272.21,15H300.7a11.18,11.18,0,0,1,11.16,11.16V62.63H261V26.16A11.18,11.18,0,0,1,272.21,15ZM254.15,119.17A26.86,26.86,0,0,0,266.47,96.5V77.63h40V96.5a26.86,26.86,0,0,0,12.32,22.67c10.37,6.71,16.56,11.67,20.24,15.12H314.11a16.37,16.37,0,0,0-16.35,16.35V178l-25.9,32.55a7.5,7.5,0,0,0-1.63,4.67v28.27h-10a63,63,0,0,0-21.35-45l9.06-7.3,13.26-10.69a28.77,28.77,0,0,0,4.31-4.27,28.63,28.63,0,0,0-25.07-46.58c-.44,0-.88.1-1.32.17C243.25,126.54,248.34,122.93,254.15,119.17ZM228.09,158l3.12-6.05a13.89,13.89,0,0,1,1.6-2.44,13.63,13.63,0,1,1,21.11,17.23,13.81,13.81,0,0,1-2.08,2.06l-13.28,10.7L226,189.65c-1.36-.7-2.74-1.36-4.15-2ZM197.17,85.83a25,25,0,0,1,24.43,30.32L207.37,183.5a62.66,62.66,0,0,0-20.39,0l-.1-.45c-2.6-12.34-5.4-25.58-14.14-66.94a25,25,0,0,1,24.43-30.29Zm-54.67,83a13.34,13.34,0,0,1-2.06-2,13.63,13.63,0,1,1,21.12-17.23,13.87,13.87,0,0,1,1.6,2.46l3.13,6.07c2.82,13.33,4.41,20.87,5.93,28.11l.32,1.53c-1.41.6-2.79,1.27-4.15,2Zm54.67,28.89a48.2,48.2,0,0,1,48.08,45.79H149.09A48.2,48.2,0,0,1,197.17,197.67ZM44.37,289.31V264.83a6.38,6.38,0,0,1,6.37-6.37H461.26a6.38,6.38,0,0,1,6.37,6.37v24.48a6.38,6.38,0,0,1-6.37,6.37H416.94L402.61,271.8a21.63,21.63,0,0,0-37.09,22.26l1,1.62h-221l1-1.62a21.63,21.63,0,1,0-37.09-22.26L95.06,295.68H50.74A6.38,6.38,0,0,1,44.37,289.31Zm28.12,21.37H86.06L74.7,329.6Z"/><path d="M178.54,376.17V351.35a20,20,0,1,0-40.06,0v24.81a20,20,0,0,0,40.06,0Zm-25.06,0V351.35a5,5,0,1,1,10.06,0v24.81a5,5,0,0,1-10.06,0Z"/><path d="M227.29,457.24V432.43a20,20,0,0,0-40.06,0v24.81a20,20,0,0,0,40.06,0Zm-25.06,0V432.43a5,5,0,0,1,10.06,0v24.81a5,5,0,0,1-10.06,0Z"/><path d="M276,376.17V351.35a20,20,0,1,0-40.06,0v24.81a20,20,0,0,0,40.06,0Zm-25.06,0V351.35a5,5,0,1,1,10.06,0v24.81a5,5,0,1,1-10.06,0Z"/><path d="M324.78,457.24V432.43a20,20,0,1,0-40.06,0v24.81a20,20,0,1,0,40.06,0Zm-25.06,0V432.43a5,5,0,1,1,10.06,0v24.81a5,5,0,1,1-10.06,0Z"/><path d="M373.52,376.17V351.35a20,20,0,1,0-40.06,0v24.81a20,20,0,0,0,40.06,0Zm-25.06,0V351.35a5,5,0,1,1,10.06,0v24.81a5,5,0,0,1-10.06,0Z"/></g></svg>