<svg id="Layer" enable-background="new 0 0 64 64" height="512" viewBox="0 0 64 64" width="512" xmlns="http://www.w3.org/2000/svg"><path d="m32 8c-13.233 0-24 10.766-24 24s10.767 24 24 24 24-10.766 24-24-10.767-24-24-24zm0 44c-11.028 0-20-8.972-20-20s8.972-20 20-20 20 8.972 20 20-8.972 20-20 20z"/><path d="m34.267 22.398c-1.399.673-2.267 2.054-2.267 3.606v1l-5.502-4.124c-1.212-.969-2.832-1.153-4.231-.481s-2.267 2.053-2.267 3.605v11.992c0 1.552.868 2.933 2.267 3.605.563.271 1.163.402 1.754.402.876 0 1.734-.29 2.428-.846l5.551-4.161v1c0 1.552.868 2.933 2.267 3.605.563.271 1.163.402 1.754.402.876 0 1.734-.29 2.428-.846l8.05-6.035c.953-.762 1.501-1.9 1.501-3.122s-.548-2.36-1.502-3.124c-.017-.013-.033-.026-.05-.038l-7.95-5.958c-1.212-.969-2.832-1.153-4.231-.482zm-10.267 15.598.05-11.954 7.948 5.958zm12 0 .05-11.954 7.948 5.958z"/></svg>