<svg id="Capa_1" enable-background="new 0 0 512.02 512.02" height="512" viewBox="0 0 512.02 512.02" width="512" xmlns="http://www.w3.org/2000/svg"><g><path d="m371.191 216.901c6.125 0 12.25-2.331 16.912-6.993 9.326-9.326 9.326-24.499 0-33.825-9.325-9.324-24.499-9.325-33.824 0-9.326 9.326-9.326 24.499 0 33.825 4.663 4.662 10.787 6.993 16.912 6.993zm-6.305-30.211c2.771-2.556 7.907-4.053 12.611 0 3.477 3.477 3.477 9.134 0 12.61-3.478 3.478-9.135 3.478-12.611 0-3.477-3.476-3.477-9.134 0-12.61z"/><path d="m423.933 245.736c-8.461 8.176-9.755 24.313 0 33.825 8.6 8.517 23.889 9.792 33.824-.001 4.517-4.518 7.005-10.523 7.005-16.912s-2.488-12.395-7.005-16.912c-9.325-9.324-24.498-9.325-33.824 0zm23.217 23.218c-3.477 3.479-9.134 3.476-12.61.001-2.525-2.656-4.063-8.023 0-12.611 2.771-2.557 7.907-4.055 12.611 0 1.685 1.684 2.612 3.923 2.612 6.305s-.929 4.621-2.613 6.305z"/><path d="m457.373 176.474c-2.929-2.928-7.678-2.928-10.606 0l-92.097 92.097c-2.929 2.93-2.929 7.678 0 10.607 1.464 1.464 3.384 2.196 5.303 2.196s3.839-.732 5.303-2.196l92.097-92.097c2.93-2.929 2.93-7.677 0-10.607z"/><path d="m105.434 262.891c-8.734.06-11.688-.411-18.511-4.865-3.466-2.265-8.115-1.286-10.38 2.181-2.264 3.469-1.287 8.116 2.182 10.38 7.738 5.051 13.102 6.675 19.802 7.138v7.173c0 4.143 3.358 7.5 7.5 7.5s7.5-3.357 7.5-7.5v-8.052c12.783-3.358 20.971-14.31 22.784-25.114 2.379-14.181-5.047-26.506-18.919-31.398-2.889-1.019-5.532-1.804-7.864-2.497-6.959-2.067-10.163-3.134-13.189-6.734-1.672-1.99-2.294-5.542-1.583-9.049.867-4.276 3.442-7.79 7.067-9.641 7.319-3.738 14.785 1.922 16.208 3.095 3.197 2.634 7.923 2.18 10.558-1.017 2.635-3.195 2.18-7.923-1.016-10.558-3.753-3.095-8.637-5.774-14.045-7.031v-6.002c0-4.143-3.358-7.5-7.5-7.5s-7.5 3.357-7.5 7.5v6.656c-8.386 2.609-16.707 11.691-18.473 21.518-1.632 8.055.163 16.158 4.801 21.679 6.049 7.198 13.02 9.27 20.4 11.463 2.268.674 4.613 1.37 7.147 2.265 9.879 3.484 9.666 11.489 9.115 14.77-1.095 6.525-6.595 13.578-16.084 13.64z"/><path d="m483.528 318.824h-23.132c7.34-4.385 14.263-9.73 20.578-16.045 20.021-20.021 31.046-46.64 31.046-74.953s-11.026-54.932-31.046-74.952c-12.593-12.593-27.797-21.624-44.39-26.594l-15.939-53.292h17.869c12.406 0 22.5-10.093 22.5-22.499s-10.093-22.499-22.5-22.499h-58.678c-4.142 0-7.5 3.357-7.5 7.5s3.358 7.5 7.5 7.5h58.678c4.135 0 7.5 3.364 7.5 7.499s-3.364 7.499-7.5 7.499c-25.325 0-114.038 0-140.668 0 .436-2.436.676-4.939.676-7.499s-.24-5.063-.676-7.499h46.949c4.142 0 7.5-3.357 7.5-7.5s-3.358-7.5-7.5-7.5h-52.742c-7.519-12-20.854-20-36.029-20s-28.51 8-36.029 19.999h-146.46c-12.406 0-22.499 10.093-22.499 22.499s10.093 22.499 22.499 22.499h17.935l-15.96 53.363c-14.08 4.235-27.33 11.404-38.798 21.3-3.136 2.706-3.484 7.441-.778 10.578 2.707 3.136 7.442 3.485 10.578.777 22.74-19.623 53.632-26.79 82.642-19.167 23.503 6.176 43.195 21.134 55.447 42.119 12.251 20.985 15.597 45.485 9.42 68.987-12.752 48.519-62.601 77.62-111.122 64.868-23.504-6.176-43.195-21.134-55.447-42.118-12.251-20.985-15.597-45.485-9.42-68.988 2.08-7.911 5.189-15.477 9.243-22.485 2.074-3.585.849-8.173-2.737-10.247-3.586-2.073-8.173-.849-10.248 2.737-4.724 8.167-8.346 16.976-10.766 26.183-7.196 27.377-3.299 55.918 10.973 80.363 9.17 15.707 21.922 28.508 37.126 37.566h-23.102c-6.889 0-12.493 5.604-12.493 12.588 0 37.171 30.241 67.411 67.412 67.411h45.173c37.171 0 67.412-30.24 67.412-67.506 0-6.889-5.604-12.493-12.493-12.493h-23.318c23.057-13.727 40.969-36.127 48.312-64.066 7.196-27.377 3.299-55.917-10.973-80.363-13.645-23.372-35.216-40.319-61.011-48.05l-15.958-53.357h99.41c3.427 5.469 8.062 10.103 13.53 13.53v327.517h-5c-9.649 0-17.5 7.85-17.5 17.499v12.499c-8.012.2-30.642-.515-37.526.518-4.098.608-6.926 4.423-6.318 8.521.609 4.097 4.422 6.918 8.52 6.317 1.588-.236 3.212-.355 4.827-.355h150.993c17.078 0 31.122 13.242 32.402 29.998h-215.796c.382-4.986 1.905-9.819 4.461-14.108 2.121-3.559.956-8.162-2.603-10.282-3.56-2.123-8.163-.956-10.283 2.603-4.365 7.324-6.672 15.723-6.672 24.288 0 6.893 5.607 12.5 12.5 12.5h220.987c6.893 0 12.5-5.607 12.5-12.5 0-26.19-21.307-47.498-47.498-47.498h-30.498v-12.499c0-9.649-7.85-17.499-17.5-17.499h-5v-327.519c5.469-3.427 10.103-8.062 13.53-13.53h99.476l-15.927 53.251c-16.649 4.961-31.904 14.007-44.533 26.635-41.328 41.329-41.328 108.575 0 149.905 6.315 6.315 13.238 11.66 20.578 16.045h-23.132c-6.888 0-12.492 5.604-12.492 12.591 0 37.169 30.239 67.408 67.409 67.408h45.18c11.253 0 22.395-2.83 32.22-8.185 3.637-1.982 4.979-6.538 2.997-10.175s-6.537-4.98-10.174-2.997c-7.63 4.158-16.29 6.356-25.042 6.356h-45.18c-28.061 0-51.041-22.168-52.35-49.999h149.883c-.357 7.741-2.428 15.354-6.043 22.153-1.945 3.657-.556 8.199 3.101 10.144 3.657 1.943 8.198.556 10.143-3.101 5.139-9.665 7.855-20.594 7.855-31.703.002-6.887-5.602-12.491-12.491-12.491zm-354.914 64.999h-45.173c-28.063 0-51.044-22.169-52.354-49.999h149.884c-1.264 27.785-24.265 49.999-52.357 49.999zm127.41-360.833c15.163 0 27.498 12.336 27.498 27.498s-12.335 27.498-27.498 27.498-27.498-12.336-27.498-27.498 12.336-27.498 27.498-27.498zm-163.784 99.772 13.788-46.1 13.786 46.093c-9.219-1.209-18.486-1.187-27.574.007zm-18.705-64.775c-4.135 0-7.499-3.364-7.499-7.499s3.364-7.499 7.499-7.499h140.668c-.436 2.436-.676 4.939-.676 7.499s.24 5.063.676 7.499c-.001 0-134.104 0-140.668 0zm212.487 373.547v12.499h-59.996v-12.499c0-1.378 1.121-2.499 2.5-2.499h54.997c1.378 0 2.499 1.121 2.499 2.499zm-22.499-17.499h-14.998v-321.725c2.436.436 4.939.676 7.499.676s5.063-.24 7.499-.676zm142.564-337.373 13.776 46.061c-7.957-1.022-17.845-1.286-27.547-.018zm-64.411 86.819c17.188-17.188 40.04-26.654 64.346-26.654 24.307 0 47.158 9.466 64.346 26.654 17.188 17.187 26.653 40.038 26.653 64.345s-9.465 47.158-26.653 64.346c-17.742 17.742-41.04 26.612-64.346 26.61-23.3-.002-46.607-8.872-64.346-26.61-35.479-35.481-35.48-93.212 0-128.691z"/></g></svg>