<svg id="Layer" enable-background="new 0 0 64 64" height="512" viewBox="0 0 64 64" width="512" xmlns="http://www.w3.org/2000/svg"><path d="m32 8c-13.234 0-24 10.766-24 24s10.766 24 24 24 24-10.766 24-24-10.766-24-24-24zm0 44c-11.028 0-20-8.972-20-20s8.972-20 20-20 20 8.972 20 20-8.972 20-20 20z"/><path d="m41.235 20.152c-.748.31-1.235 1.039-1.235 1.848v1c-3.179.038-6.17 1.597-8.021 4.187l-.979 1.372-.979-1.371c-1.874-2.623-4.916-4.188-8.138-4.188h-2.883c-1.104 0-2 .896-2 2s.896 2 2 2h2.883c1.933 0 3.758.939 4.882 2.513l1.777 2.487-1.777 2.487c-1.123 1.574-2.949 2.513-4.882 2.513h-2.883c-1.104 0-2 .896-2 2s.896 2 2 2h2.883c3.222 0 6.264-1.565 8.137-4.188l.98-1.371.979 1.371c1.851 2.591 4.842 4.15 8.021 4.188v1c0 .809.487 1.538 1.235 1.848.247.102.507.152.765.152.521 0 1.032-.203 1.415-.586l2.989-2.989c.04-.039.079-.081.115-.123.261-.304.417-.668.465-1.042.017-.133.021-.268.012-.4-.032-.459-.223-.91-.571-1.263s-.001-.001-.001-.001c-.001 0-.002-.001-.002-.002-.002 0-.002-.002-.002-.002 0-.001-.001-.001-.002-.002-.001 0-.001-.001-.002-.002l-3-3c-.572-.572-1.433-.743-2.179-.434-.75.308-1.237 1.037-1.237 1.846v.999c-1.89-.037-3.665-.97-4.766-2.512l-1.776-2.487 1.777-2.487c1.101-1.542 2.876-2.475 4.766-2.512v.999c0 .809.487 1.538 1.235 1.848.745.308 1.607.138 2.179-.434l2.989-2.989c.04-.039.079-.081.115-.123.261-.304.417-.668.465-1.043.017-.133.021-.267.012-.4-.032-.459-.223-.91-.571-1.264 0 0-.001-.001-.001-.001-.001 0 0-.001-.002-.002-.001 0-.002-.001-.002-.002s-.001-.002-.002-.002c-.001-.001-.001-.001-.002-.002l-3-3c-.574-.572-1.435-.744-2.181-.434z"/></svg>