<?xml version="1.0" encoding="iso-8859-1"?>
<!-- Generator: Adobe Illustrator 19.0.0, SVG Export Plug-In . SVG Version: 6.00 Build 0)  -->
<svg version="1.1" id="Layer_1" xmlns="http://www.w3.org/2000/svg" xmlns:xlink="http://www.w3.org/1999/xlink" x="0px" y="0px"
	 viewBox="0 0 512 512" style="enable-background:new 0 0 512 512;" xml:space="preserve">
<g id="XMLID_2205_">
	<g id="XMLID_2206_">
		<path id="XMLID_2209_" style="fill:#E3F4FF;" d="M431.82,17.5v477c0,5.52-4.48,10-10,10H90.18c-5.52,0-10-4.48-10-10V117.18
			c0-1.46,0.32-2.89,0.93-4.19c0.48-1.06,1.16-2.04,2-2.88l99.68-99.68c0.84-0.84,1.82-1.52,2.88-2.01c1.3-0.6,2.73-0.92,4.19-0.92
			h231.96C427.34,7.5,431.82,11.98,431.82,17.5z"/>
		<path id="XMLID_2212_" style="fill:#BDDFF4;" d="M431.82,17.5v477c0,5.52-4.48,10-10,10h-21.88c5.52,0,10-4.48,10-10v-477
			c0-5.52-4.48-10-10-10h21.88C427.34,7.5,431.82,11.98,431.82,17.5z"/>
		<path id="XMLID_2213_" style="fill:#F9B200;" d="M185.67,8.42l-0.19,94.4c-0.02,5.5-4.48,9.96-9.98,9.98l-94.39,0.19
			c0.48-1.06,1.16-2.04,2-2.88l99.68-99.68C183.63,9.59,184.61,8.91,185.67,8.42z"/>
		<g id="XMLID_2214_">
			<g id="XMLID_2215_">
				<path id="XMLID_2216_" style="fill:#FD6096;" d="M395.438,204.405c0,52.19-42.31,94.5-94.5,94.5
					c-26.1,0-49.72-10.58-66.82-27.68c-17.1-17.1-27.68-40.72-27.68-66.82c0-52.19,42.31-94.5,94.5-94.5
					S395.438,152.215,395.438,204.405z"/>
				<path id="XMLID_2217_" style="fill:#F9B200;" d="M395.438,204.405h-94.5l0-94.5
					C353.128,109.905,395.438,152.215,395.438,204.405z"/>
				<path id="XMLID_2218_" style="fill:#9BE058;" d="M395.438,204.405c0,52.19-42.31,94.5-94.5,94.5
					c-26.1,0-49.72-10.58-66.82-27.68l66.82-66.82H395.438z"/>
			</g>
		</g>
	</g>
	<g id="XMLID_2219_">
		<path id="XMLID_2220_" d="M421.82,0H189.862c-4.674,0-9.068,1.82-12.375,5.125l-99.682,99.682
			c-3.306,3.305-5.126,7.7-5.126,12.375V494.5c0,9.649,7.851,17.5,17.5,17.5h331.64c9.649,0,17.5-7.851,17.5-17.5v-43.17
			c0-4.142-3.358-7.5-7.5-7.5s-7.5,3.358-7.5,7.5v43.17c0,1.378-1.122,2.5-2.5,2.5H90.18c-1.378,0-2.5-1.122-2.5-2.5V120.48
			l87.847-0.181c9.588-0.035,17.417-7.864,17.453-17.464L193.161,15H421.82c1.378,0,2.5,1.122,2.5,2.5v83.17
			c0,4.142,3.358,7.5,7.5,7.5s7.5-3.358,7.5-7.5V17.5C439.32,7.851,431.469,0,421.82,0z M175.484,105.3l-77.116,0.159l79.77-79.77
			l-0.159,77.104C177.975,104.17,176.85,105.295,175.484,105.3z"/>
		<path id="XMLID_2223_" d="M431.82,125.83c-4.142,0-7.5,3.358-7.5,7.5v31.34c0,4.142,3.358,7.5,7.5,7.5s7.5-3.358,7.5-7.5v-31.34
			C439.32,129.188,435.962,125.83,431.82,125.83z"/>
		<path id="XMLID_2224_" d="M431.82,189.83c-4.142,0-7.5,3.358-7.5,7.5v221.34c0,4.142,3.358,7.5,7.5,7.5s7.5-3.358,7.5-7.5V197.33
			C439.32,193.188,435.962,189.83,431.82,189.83z"/>
		<path id="XMLID_2225_" d="M300.938,102.405c-56.243,0-102,45.757-102,102c0,27.243,10.61,52.857,29.877,72.124
			c19.266,19.266,44.88,29.876,72.123,29.876c56.243,0,102-45.757,102-102S357.181,102.405,300.938,102.405z M387.611,196.905
			h-79.173v-79.173C350.439,121.336,384.007,154.905,387.611,196.905z M293.438,117.732v83.567l-59.081,59.082
			c-13.207-15.656-20.419-35.258-20.419-55.975C213.938,158.96,248.964,121.548,293.438,117.732z M300.938,291.405
			c-20.718,0-40.319-7.211-55.975-20.418l59.081-59.082h83.567C383.795,256.379,346.383,291.405,300.938,291.405z"/>
		<path id="XMLID_2230_" d="M374.242,54c0-4.142-3.358-7.5-7.5-7.5h-0.078c-4.142,0-7.461,3.358-7.461,7.5s3.397,7.5,7.539,7.5
			S374.242,58.142,374.242,54z"/>
		<path id="XMLID_2231_" d="M394.482,54c0-4.142-3.358-7.5-7.5-7.5h-0.078c-4.142,0-7.461,3.358-7.461,7.5s3.397,7.5,7.539,7.5
			S394.482,58.142,394.482,54z"/>
		<path id="XMLID_2232_" d="M339.938,61.5c4.142,0,7.5-3.358,7.5-7.5s-3.358-7.5-7.5-7.5h-39c-4.142,0-7.5,3.358-7.5,7.5
			s3.358,7.5,7.5,7.5H339.938z"/>
		<path id="XMLID_2233_" d="M126,203.52h42.04c4.142,0,7.5-3.358,7.5-7.5s-3.358-7.5-7.5-7.5H126c-4.142,0-7.5,3.358-7.5,7.5
			S121.858,203.52,126,203.52z"/>
		<path id="XMLID_2234_" d="M126,224.52h42.04c4.142,0,7.5-3.358,7.5-7.5s-3.358-7.5-7.5-7.5H126c-4.142,0-7.5,3.358-7.5,7.5
			S121.858,224.52,126,224.52z"/>
		<path id="XMLID_2235_" d="M126,245.52h42.04c4.142,0,7.5-3.358,7.5-7.5s-3.358-7.5-7.5-7.5H126c-4.142,0-7.5,3.358-7.5,7.5
			S121.858,245.52,126,245.52z"/>
		<path id="XMLID_2236_" d="M126,266.52h42.04c4.142,0,7.5-3.358,7.5-7.5s-3.358-7.5-7.5-7.5H126c-4.142,0-7.5,3.358-7.5,7.5
			S121.858,266.52,126,266.52z"/>
		<path id="XMLID_2237_" d="M114.26,342c0,4.142,3.358,7.5,7.5,7.5h15.175c4.142,0,7.5-3.358,7.5-7.5s-3.358-7.5-7.5-7.5H121.76
			C117.618,334.5,114.26,337.858,114.26,342z"/>
		<path id="XMLID_2238_" d="M390.24,334.5H160.95c-4.142,0-7.5,3.358-7.5,7.5s3.358,7.5,7.5,7.5h229.29c4.142,0,7.5-3.358,7.5-7.5
			S394.382,334.5,390.24,334.5z"/>
		<path id="XMLID_2239_" d="M390.24,359.5H121.76c-4.142,0-7.5,3.358-7.5,7.5s3.358,7.5,7.5,7.5H390.24c4.142,0,7.5-3.358,7.5-7.5
			S394.382,359.5,390.24,359.5z"/>
		<path id="XMLID_2240_" d="M397.74,392c0-4.142-3.358-7.5-7.5-7.5H121.76c-4.142,0-7.5,3.358-7.5,7.5s3.358,7.5,7.5,7.5H390.24
			C394.382,399.5,397.74,396.142,397.74,392z"/>
		<path id="XMLID_2241_" d="M126.039,176.5c4.142,0,7.5-3.358,7.5-7.5s-3.358-7.5-7.5-7.5h-0.078c-4.142,0-7.461,3.358-7.461,7.5
			S121.897,176.5,126.039,176.5z"/>
		<path id="XMLID_2242_" d="M248.5,450.332v13c0,4.142,3.358,7.5,7.5,7.5s7.5-3.358,7.5-7.5v-13c0-4.142-3.358-7.5-7.5-7.5
			S248.5,446.189,248.5,450.332z"/>
		<path id="XMLID_2243_" d="M276.739,449.332c-4.142,0-7.5,3.358-7.5,7.5s3.358,7.5,7.5,7.5h14.405c4.142,0,7.5-3.358,7.5-7.5
			s-3.358-7.5-7.5-7.5H276.739z"/>
		<path id="XMLID_2244_" d="M220.856,449.332c-4.142,0-7.5,3.358-7.5,7.5s3.358,7.5,7.5,7.5h14.405c4.142,0,7.5-3.358,7.5-7.5
			s-3.358-7.5-7.5-7.5H220.856z"/>
	</g>
</g>
<g>
</g>
<g>
</g>
<g>
</g>
<g>
</g>
<g>
</g>
<g>
</g>
<g>
</g>
<g>
</g>
<g>
</g>
<g>
</g>
<g>
</g>
<g>
</g>
<g>
</g>
<g>
</g>
<g>
</g>
</svg>
