<?xml version="1.0" encoding="iso-8859-1"?>
<!-- Generator: Adobe Illustrator 23.0.3, SVG Export Plug-In . SVG Version: 6.00 Build 0)  -->
<svg version="1.1" id="Capa_1" xmlns="http://www.w3.org/2000/svg" xmlns:xlink="http://www.w3.org/1999/xlink" x="0px" y="0px"
	 viewBox="0 0 512.029 512.029" style="enable-background:new 0 0 512.029 512.029;" xml:space="preserve">
<g>
	<path style="fill:#FFB820;" d="M503.046,197.676c-4.016-12.36-15.534-20.729-28.531-20.729l-145.121-0.002L284.546,38.926
		c-4.016-12.36-15.534-20.729-28.531-20.729c-3.211,0-6.331,0.515-9.27,1.471l9.27,236.335l141.229,237.142
		c4.043-0.851,7.951-2.527,11.445-5.065c10.514-7.639,14.914-21.18,10.898-33.541L374.744,316.52l117.404-85.303
		C502.663,223.577,507.063,210.036,503.046,197.676z"/>
	<path style="fill:#FFD06A;" d="M474.514,206.947l-166.917-0.002L246.744,19.668c-8.959,2.913-16.237,9.952-19.261,19.259
		l-44.847,138.018l-145.122,0.002c-12.997,0-24.515,8.369-28.531,20.729s0.383,25.901,10.898,33.541l117.405,85.303L92.443,454.539
		c-4.017,12.36,0.383,25.901,10.898,33.54c10.514,7.639,24.752,7.639,35.267,0l117.407-85.298l117.407,85.299
		c7.021,5.101,15.698,6.776,23.822,5.065l-57.766-188.084L474.514,206.947z"/>
	<path d="M391.055,501.331c-7.726,0-15.449-2.395-22.042-7.185l-112.999-82.096l-112.999,82.095c-13.183,9.58-30.9,9.579-44.084,0
		c-13.184-9.578-18.659-26.426-13.623-41.925l43.159-132.837L86.31,288.753c-3.351-2.435-4.094-7.125-1.659-10.476
		c2.434-3.353,7.123-4.097,10.476-1.659l46.567,33.834c2.628,1.91,3.728,5.295,2.724,8.385L99.575,456.856
		c-3.021,9.299,0.264,19.408,8.174,25.155c7.91,5.746,18.54,5.749,26.45,0l117.407-85.298c2.629-1.91,6.188-1.91,8.816,0
		l117.407,85.299c7.91,5.746,18.539,5.747,26.45,0c7.91-5.748,11.195-15.857,8.174-25.156l-44.843-138.019
		c-1.004-3.09,0.096-6.475,2.724-8.385L487.74,225.15c7.911-5.748,11.195-15.856,8.173-25.155
		c-3.021-9.3-11.621-15.548-21.398-15.548l-145.121-0.002c-3.249,0-6.129-2.092-7.133-5.183L277.413,41.244
		c-3.021-9.299-11.62-15.546-21.398-15.546c-9.777,0-18.377,6.248-21.399,15.548l-44.847,138.017
		c-1.004,3.091-3.884,5.183-7.133,5.183l-145.122,0.002c-9.777,0-18.377,6.248-21.398,15.547c-3.021,9.3,0.263,19.408,8.174,25.156
		l46.567,33.834c3.351,2.435,4.094,7.125,1.659,10.476c-2.434,3.35-7.125,4.096-10.476,1.659l-46.568-33.834
		C2.289,227.705-3.186,210.857,1.85,195.359c5.036-15.499,19.368-25.912,35.664-25.912l139.673-0.002L220.35,36.61
		c5.037-15.499,19.369-25.912,35.665-25.912c16.297,0,30.629,10.413,35.664,25.911l43.164,132.836l139.672,0.002
		c16.297,0,30.629,10.413,35.664,25.912c5.036,15.498-0.438,32.347-13.622,41.926l-112.996,82.1l43.159,132.837
		c5.036,15.498-0.439,32.347-13.623,41.926C406.505,498.936,398.779,501.33,391.055,501.331z"/>
</g>
<g>
</g>
<g>
</g>
<g>
</g>
<g>
</g>
<g>
</g>
<g>
</g>
<g>
</g>
<g>
</g>
<g>
</g>
<g>
</g>
<g>
</g>
<g>
</g>
<g>
</g>
<g>
</g>
<g>
</g>
</svg>
