<svg xmlns="http://www.w3.org/2000/svg" viewBox="0 0 512 512"><title>Retail - Lineal Color</title><g id="_16_Groceries" data-name="16 Groceries"><rect x="70.42" y="12.93" width="123.37" height="357.49" rx="61.69" ry="61.69" transform="translate(-74.54 84.49) rotate(-28.01)" style="fill:#eab875"/><path d="M241.54,266.05,131.6,59.36A61.69,61.69,0,0,0,48.17,33.87h0c-1.62.86-3.18,1.8-4.7,2.78,24.6-10,55.3,3.66,70.43,32.12L223.85,275.46c15.14,28.45,9.27,61.52-12.73,76.36,1.66-.71,3.31-1.47,4.93-2.34h0A61.69,61.69,0,0,0,241.54,266.05Z" style="fill:#c68d4e"/><path d="M187.2,364.2A69.25,69.25,0,0,1,126,327.52L16.05,120.82a69.19,69.19,0,0,1,81.3-98.66,68.73,68.73,0,0,1,40.87,33.68l12.92,24.29a7.5,7.5,0,0,1-13.24,7L125,62.89a54.19,54.19,0,0,0-95.68,50.9L139.24,320.47a54.19,54.19,0,0,0,95.68-50.9l-52.37-98.46a7.5,7.5,0,0,1,13.24-7l52.37,98.46a69.17,69.17,0,0,1-61,101.67Z"/><path d="M126.6,194.61C121.67,185.34,99,187.74,76,200c-2.5,1.33-4.89,2.72-7.18,4.16l17.57,33c2.47-1.09,5-2.3,7.46-3.63C116.89,221.3,131.53,203.87,126.6,194.61Z" style="fill:#fff7af"/><path d="M161.58,260.35c-4.93-9.27-27.57-6.86-50.56,5.37-2.5,1.33-4.89,2.72-7.18,4.16l17.57,33c2.47-1.09,5-2.3,7.46-3.63C151.86,287,166.5,269.62,161.58,260.35Z" style="fill:#fff7af"/><path d="M41.07,134.23c-2.5,1.33-4.89,2.72-7.18,4.16l17.57,33c2.47-1.09,5-2.3,7.46-3.63,23-12.23,37.64-29.66,32.71-38.93S64.06,122,41.07,134.23Z" style="fill:#fff7af"/><path d="M86.44,244.67a7.5,7.5,0,0,1-6.63-4l-17.57-33a7.5,7.5,0,0,1,2.64-9.88c2.51-1.57,5.08-3.06,7.64-4.43,24-12.76,52.53-17.63,60.7-2.27h0c8.17,15.36-11.83,36.31-35.81,49.07-2.57,1.37-5.24,2.67-7.94,3.86A7.47,7.47,0,0,1,86.44,244.67ZM78.87,207l10.8,20.31.7-.37c10.14-5.4,19.11-12.24,24.61-18.78,4.82-5.74,5.36-9.34,5-10s-3.64-2.23-11.09-1.44c-8.49.9-19.18,4.51-29.32,9.91Z"/><path d="M121.41,310.41a7.5,7.5,0,0,1-6.63-4l-17.57-33a7.5,7.5,0,0,1,2.64-9.88c2.51-1.57,5.08-3.06,7.64-4.43,24-12.76,52.53-17.63,60.7-2.27h0c8.17,15.36-11.83,36.31-35.81,49.07-2.57,1.37-5.25,2.67-7.94,3.86A7.47,7.47,0,0,1,121.41,310.41Zm-7.57-37.69L124.64,293l.7-.37c10.14-5.4,19.11-12.24,24.6-18.78,4.82-5.74,5.36-9.34,5-10s-3.64-2.23-11.09-1.44c-8.49.9-19.18,4.51-29.32,9.91Z"/><path d="M51.46,178.92a7.5,7.5,0,0,1-6.63-4l-17.57-33A7.5,7.5,0,0,1,29.9,132c2.5-1.57,5.07-3.06,7.64-4.43h0c11.95-6.36,24.3-10.47,34.79-11.58,17.27-1.83,23.65,5,25.92,9.31s4.41,13.41-6.76,26.7c-6.78,8.07-17.1,16-29,22.37-2.56,1.36-5.23,2.66-7.94,3.86A7.47,7.47,0,0,1,51.46,178.92Zm-7.57-37.69,10.8,20.31.7-.37c10.15-5.4,19.11-12.24,24.61-18.78,4.82-5.74,5.36-9.34,5-10s-3.63-2.23-11.09-1.44c-8.49.9-19.18,4.51-29.32,9.91h0Z"/><path d="M253.54,26.16V67.9a2.24,2.24,0,0,0,2.24,2.24h61.35a2.24,2.24,0,0,0,2.24-2.24V26.16A18.66,18.66,0,0,0,300.7,7.5H272.21A18.66,18.66,0,0,0,253.54,26.16Z" style="fill:#ed5176"/><path d="M300.7,7.5H284.32c8.43,0,15.26,8.36,15.26,18.66V67.9a2.06,2.06,0,0,1-1.83,2.24h19.38a2.24,2.24,0,0,0,2.24-2.24V26.16A18.66,18.66,0,0,0,300.7,7.5Z" style="fill:#ba365f"/><path d="M317.13,77.63H255.78A9.75,9.75,0,0,1,246,67.9V26.16A26.19,26.19,0,0,1,272.21,0H300.7a26.19,26.19,0,0,1,26.16,26.16V67.9A9.75,9.75,0,0,1,317.13,77.63ZM261,62.63h50.82V26.16A11.18,11.18,0,0,0,300.7,15H272.21A11.18,11.18,0,0,0,261,26.16Z"/><path d="M313.94,96.5V70.13H259V96.5a19.48,19.48,0,0,1-8.89,16.37c-9.54,6.16-23.88,16.28-27.88,23.8-18,33.82-8.95,153.23-8.95,153.23H359.66s9-119.41-8.95-153.23c-4-7.52-18.34-17.64-27.88-23.8A19.48,19.48,0,0,1,313.94,96.5Z" style="fill:#804c68"/><path d="M350.71,136.68c-4-7.52-18.34-17.64-27.88-23.8a19.48,19.48,0,0,1-8.89-16.37V70.13h-18.8V96.5c0,6.61,2.73,12.79,7.27,16.37,7.8,6.16,19.52,16.28,22.79,23.8,14.71,33.82,7.31,153.23,7.31,153.23h27.15S368.7,170.5,350.71,136.68Z" style="fill:#60364e"/><path d="M359.66,297.41H213.25a7.5,7.5,0,0,1-7.48-6.93c-.38-5-9-122,9.8-157.32,3.73-7,14-15.95,30.43-26.58a11.93,11.93,0,0,0,5.46-10.07V70.13a7.5,7.5,0,0,1,7.5-7.5h55a7.5,7.5,0,0,1,7.5,7.5V96.5a11.93,11.93,0,0,0,5.46,10.07c16.47,10.63,26.71,19.58,30.43,26.58,18.8,35.33,10.18,152.35,9.81,157.32A7.5,7.5,0,0,1,359.66,297.41Zm-139.41-15H352.66c2.35-37,4.46-117.72-8.57-142.2-.89-1.67-5.34-8.12-25.33-21A26.87,26.87,0,0,1,306.44,96.5V77.63h-40V96.5a26.87,26.87,0,0,1-12.32,22.67c-20,12.91-24.44,19.36-25.33,21C215.79,164.7,217.9,245.43,220.25,282.41Z"/><polygon points="396.92 180.59 305.26 180.59 277.73 215.19 277.73 377.56 424.44 377.56 424.44 215.19 396.92 180.59" style="fill:#e9e9ea"/><polygon points="396.92 180.59 378.64 180.59 401.94 215.19 401.94 377.56 424.44 377.56 424.44 215.19 396.92 180.59" style="fill:#c5c4cc"/><path d="M424.44,385.06H277.73a7.5,7.5,0,0,1-7.5-7.5V215.19a7.5,7.5,0,0,1,1.63-4.67l27.53-34.6a7.5,7.5,0,0,1,5.87-2.83h91.66a7.5,7.5,0,0,1,5.87,2.83l27.53,34.6a7.5,7.5,0,0,1,1.63,4.67V377.56A7.5,7.5,0,0,1,424.44,385.06Zm-139.21-15H416.94V217.81L393.3,188.09H308.88l-23.65,29.72Z"/><path d="M314.11,141.79h74a8.85,8.85,0,0,1,8.85,8.85v30a0,0,0,0,1,0,0H305.26a0,0,0,0,1,0,0v-30A8.85,8.85,0,0,1,314.11,141.79Z" style="fill:#c8e7f7"/><path d="M388.07,141.79H370.49a8.14,8.14,0,0,1,8.14,8.14v30.66h18.28v-30A8.85,8.85,0,0,0,388.07,141.79Z" style="fill:#8cbcd6"/><path d="M396.92,188.09H305.26a7.5,7.5,0,0,1-7.5-7.5v-30a16.37,16.37,0,0,1,16.35-16.35h74a16.37,16.37,0,0,1,16.35,16.35v30A7.5,7.5,0,0,1,396.92,188.09Zm-84.16-15h76.66V150.64a1.35,1.35,0,0,0-1.35-1.35h-74a1.35,1.35,0,0,0-1.35,1.35Z"/><path d="M424.44,222.69H374.91a7.5,7.5,0,0,1,0-15h49.53a7.5,7.5,0,0,1,0,15Z"/><path d="M211.74,210.73l.05,0,44.75-36a21.13,21.13,0,1,0-32-26.11L198.2,199.6l0,.06h0a8.95,8.95,0,0,0,13.56,11.07h0Z" style="fill:#7fab38"/><path d="M182.61,210.73l-.05,0-44.75-36a21.13,21.13,0,1,1,32-26.11l26.33,51.07,0,.06h0a8.95,8.95,0,0,1-13.56,11.07h0Z" style="fill:#7fab38"/><path d="M206.12,220.2a16.42,16.42,0,0,1-14.65-23.91l.06-.11,26.34-51.08a28.63,28.63,0,0,1,43.59-9.15,28.63,28.63,0,0,1,4.08,40.28,28.81,28.81,0,0,1-4.32,4.27l-44.73,36-.07.06,0,0A16.41,16.41,0,0,1,206.12,220.2Zm5.61-9.46h0Zm0-.06,0,.06,0-.06Zm-6.87-7.55A1.45,1.45,0,0,0,207,204.9l.08-.06,44.74-36a13.83,13.83,0,0,0,2.09-2.06,13.63,13.63,0,0,0-21.12-17.23,13.78,13.78,0,0,0-1.59,2.43L204.87,203l0,.06Z"/><path d="M188.22,220.2A16.41,16.41,0,0,1,178,216.63l-.06,0h0l-.07-.06-44.75-36a28.79,28.79,0,0,1-4.3-4.26A28.63,28.63,0,1,1,173.17,140a28.8,28.8,0,0,1,3.32,5.09l26.32,51v0l0,0a16.42,16.42,0,0,1-14.62,24Zm-.94-15.33,0,0a1.45,1.45,0,0,0,2.19-1.79l0-.07L163.15,152a13.86,13.86,0,0,0-1.6-2.46,13.63,13.63,0,0,0-21.12,17.23,13.8,13.8,0,0,0,2.07,2l44.77,36.06Z"/><path d="M210.64,204.26l0-.1,18.28-86.47a32.5,32.5,0,1,0-63.53,0l18.28,86.47,0,.1v0h0a13.76,13.76,0,0,0,26.93,0h0Z" style="fill:#aed559"/><path d="M197.17,222.69a21.35,21.35,0,0,1-20.78-16.76v-.05h0l0-.12-18.29-86.51a40,40,0,1,1,78.2,0L218,205.71l0,.1h0A21.35,21.35,0,0,1,197.17,222.69Zm-6.13-20v0a6.26,6.26,0,0,0,12.25,0l0-.12h0l18.28-86.47a25.29,25.29,0,0,0,.57-5.32,25,25,0,1,0-49.43,5.29L191,202.61Zm19.6,1.59h0Z"/><path d="M251.55,257.58a55.64,55.64,0,1,0-108.76,0L175,408.29a22.61,22.61,0,0,0,44.34,0Z" style="fill:#ffcd34"/><path d="M197.17,190.17a56.12,56.12,0,0,0-6.65.41c21.7,3.29,38.54,26.75,38.54,55.23a70.42,70.42,0,0,1-1,11.78L202.74,408.29c-1.28,8.17-6,14.74-12.21,17.15a22.56,22.56,0,0,0,28.82-17.15l32.21-150.71a55.64,55.64,0,0,0-54.38-67.42Z" style="fill:#e69012"/><path d="M197.17,434a30.18,30.18,0,0,1-29.52-24.14l-32.2-150.66a63.14,63.14,0,1,1,123.43,0l-32.2,150.65A30.18,30.18,0,0,1,197.17,434Zm0-236.29a48.14,48.14,0,0,0-47,58.33l32.21,150.72,0,.1a15.11,15.11,0,0,0,29.63,0l0-.1L244.22,256h0a48.14,48.14,0,0,0-47-58.33Z"/><path d="M64.06,303.18,68.2,338.6l3.09,26.46L84.9,481.29A26.26,26.26,0,0,0,111,504.5H401a26.26,26.26,0,0,0,26.08-23.21l20.84-178.11Z" style="fill:#aed559"/><polygon points="445.3 325.79 447.94 303.18 64.06 303.18 66.7 325.79 445.3 325.79" style="fill:#7fab38"/><path d="M422.94,303.18,402.1,481.29A26.26,26.26,0,0,1,376,504.5h25a26.26,26.26,0,0,0,26.08-23.21l20.84-178.11Z" style="fill:#7fab38"/><path d="M401,512H111a33.76,33.76,0,0,1-33.53-29.83l-2-16.91a7.5,7.5,0,1,1,14.9-1.74l2,16.91A18.76,18.76,0,0,0,111,497H401a18.76,18.76,0,0,0,18.63-16.58l20.84-178.11a7.5,7.5,0,0,1,14.9,1.74L434.55,482.17A33.76,33.76,0,0,1,401,512ZM79.42,442.1A7.5,7.5,0,0,1,72,435.48L56.61,304.05a7.5,7.5,0,0,1,14.9-1.74L86.88,433.73a7.5,7.5,0,0,1-7.46,8.37Z"/><rect x="36.87" y="250.96" width="438.27" height="52.22" rx="13.87" ry="13.87" style="fill:#90b6e1"/><path d="M461.26,251h-25.4a13.87,13.87,0,0,1,13.87,13.87v24.48a13.87,13.87,0,0,1-13.87,13.87h25.4a13.87,13.87,0,0,0,13.87-13.87V264.83A13.87,13.87,0,0,0,461.26,251Z" style="fill:#5692d8"/><path d="M461.26,310.68H50.74a21.4,21.4,0,0,1-21.37-21.37V264.83a21.4,21.4,0,0,1,21.37-21.37H461.26a21.4,21.4,0,0,1,21.37,21.37v24.48A21.4,21.4,0,0,1,461.26,310.68ZM50.74,258.46a6.38,6.38,0,0,0-6.37,6.37v24.48a6.38,6.38,0,0,0,6.37,6.37H461.26a6.38,6.38,0,0,0,6.37-6.37V264.83a6.38,6.38,0,0,0-6.37-6.37Z"/><path d="M485.59,462.8a14.13,14.13,0,0,1-14.1-6.72L372,290.2a14.13,14.13,0,0,1,24.23-14.54l99.54,165.87a14.14,14.14,0,0,1-10.13,21.26Z" style="fill:#575b7a"/><path d="M483.59,470.44a21.59,21.59,0,0,1-18.53-10.5L365.52,294.06a21.63,21.63,0,1,1,37.09-22.26l99.54,165.87a21.64,21.64,0,0,1-15.52,32.55h0A21.82,21.82,0,0,1,483.59,470.44ZM384.06,276.3a6.64,6.64,0,0,0-5.67,10l99.54,165.87a6.62,6.62,0,0,0,6.62,3.16h0a6.63,6.63,0,0,0,4.75-10L389.75,279.52a6.59,6.59,0,0,0-4.08-3A6.66,6.66,0,0,0,384.06,276.3Z"/><path d="M26.41,462.8a14.13,14.13,0,0,0,14.1-6.72L140,290.2a14.13,14.13,0,0,0-24.23-14.54L16.28,441.53A14.14,14.14,0,0,0,26.41,462.8Z" style="fill:#575b7a"/><path d="M28.41,470.44a21.75,21.75,0,0,1-3-.21A21.63,21.63,0,0,1,9.85,437.67L109.39,271.8a21.63,21.63,0,1,1,37.09,22.26L46.94,459.93A21.6,21.6,0,0,1,28.41,470.44ZM127.94,276.3a6.66,6.66,0,0,0-1.62.2,6.59,6.59,0,0,0-4.08,3L22.71,445.39a6.64,6.64,0,0,0,4.75,10h0a6.62,6.62,0,0,0,6.62-3.16l99.54-165.87a6.64,6.64,0,0,0-5.67-10Z"/><rect x="145.98" y="338.82" width="25.06" height="49.88" rx="12.53" ry="12.53" style="fill:#7fab38"/><rect x="194.72" y="419.9" width="25.06" height="49.88" rx="12.53" ry="12.53" style="fill:#7fab38"/><path d="M268.53,376.17a12.53,12.53,0,1,1-25.06,0V351.35a12.53,12.53,0,1,1,25.06,0Z" style="fill:#7fab38"/><rect x="292.21" y="419.9" width="25.06" height="49.88" rx="12.53" ry="12.53" style="fill:#7fab38"/><rect x="340.96" y="338.82" width="25.06" height="49.88" rx="12.53" ry="12.53" style="fill:#7fab38"/><path d="M158.51,396.2a20.05,20.05,0,0,1-20-20V351.35a20,20,0,1,1,40.06,0v24.81A20.05,20.05,0,0,1,158.51,396.2Zm0-49.88a5,5,0,0,0-5,5v24.81a5,5,0,0,0,10.06,0V351.35A5,5,0,0,0,158.51,346.32Z"/><path d="M207.25,477.27a20.05,20.05,0,0,1-20-20V432.43a20,20,0,0,1,40.06,0v24.81A20.05,20.05,0,0,1,207.25,477.27Zm0-49.88a5,5,0,0,0-5,5v24.81a5,5,0,0,0,10.06,0V432.43A5,5,0,0,0,207.25,427.4Z"/><path d="M256,396.2a20.05,20.05,0,0,1-20-20V351.35a20,20,0,1,1,40.06,0v24.81A20.05,20.05,0,0,1,256,396.2Zm0-49.88a5,5,0,0,0-5,5v24.81a5,5,0,1,0,10.06,0V351.35A5,5,0,0,0,256,346.32Z"/><path d="M304.75,477.27a20.05,20.05,0,0,1-20-20V432.43a20,20,0,1,1,40.06,0v24.81A20.05,20.05,0,0,1,304.75,477.27Zm0-49.88a5,5,0,0,0-5,5v24.81a5,5,0,1,0,10.06,0V432.43A5,5,0,0,0,304.75,427.4Z"/><path d="M353.49,396.2a20.05,20.05,0,0,1-20-20V351.35a20,20,0,1,1,40.06,0v24.81A20.05,20.05,0,0,1,353.49,396.2Zm0-49.88a5,5,0,0,0-5,5v24.81a5,5,0,0,0,10.06,0V351.35A5,5,0,0,0,353.49,346.32Z"/></g></svg>