<?xml version="1.0" encoding="iso-8859-1"?>
<!-- Generator: Adobe Illustrator 19.0.0, SVG Export Plug-In . SVG Version: 6.00 Build 0)  -->
<svg version="1.1" id="Layer_1" xmlns="http://www.w3.org/2000/svg" xmlns:xlink="http://www.w3.org/1999/xlink" x="0px" y="0px"
	 viewBox="0 0 512 512" style="enable-background:new 0 0 512 512;" xml:space="preserve">
<g id="XMLID_1939_">
	<g id="XMLID_1940_">
		<path id="XMLID_1943_" style="fill:#E3F4FF;" d="M453.85,17.5v477c0,5.52-4.47,10-10,10H68.15c-5.53,0-10-4.48-10-10v-477
			c0-5.52,4.47-10,10-10h375.7C449.38,7.5,453.85,11.98,453.85,17.5z"/>
		<path id="XMLID_1946_" style="fill:#BDDFF4;" d="M453.85,17.5v477c0,5.52-4.47,10-10,10h-25.03c5.53,0,10-4.48,10-10v-477
			c0-5.52-4.47-10-10-10h25.03C449.38,7.5,453.85,11.98,453.85,17.5z"/>
		<path id="XMLID_1947_" style="fill:#FC3E81;" d="M453.85,17.5V88H58.15V17.5c0-5.52,4.47-10,10-10h375.7
			C449.38,7.5,453.85,11.98,453.85,17.5z"/>
		<path id="XMLID_1948_" style="fill:#F01054;" d="M453.85,17.5V88h-25.03V17.5c0-5.52-4.47-10-10-10h25.03
			C449.38,7.5,453.85,11.98,453.85,17.5z"/>
		<g id="XMLID_1949_">
			<circle id="XMLID_2560_" style="fill:#FC3E81;" cx="256" cy="428.969" r="18.635"/>
		</g>
		<g id="XMLID_1950_">
			<g id="XMLID_1951_">
				<path id="XMLID_1954_" style="fill:#1685FB;" d="M404.08,139.42v86.41c0,4.18-3.39,7.57-7.57,7.57H274.46
					c-4.18,0-7.57-3.39-7.57-7.57v-86.41c0-4.18,3.39-7.57,7.57-7.57h122.05C400.69,131.85,404.08,135.24,404.08,139.42z"/>
				<path id="XMLID_1957_" style="fill:#364EC6;" d="M404.08,158.33v67.5c0,4.181-3.389,7.57-7.57,7.57H296.33V194
					c0-2.761,2.239-5,5-5h29.85v-11.5c0-2.761,2.239-5,5-5h10.49c2.761,0,5,2.239,5,5v26.28c0,2.761,2.239,5,5,5h11.67
					c2.761,0,5-2.239,5-5v-40.45c0-2.761,2.239-5,5-5H404.08z"/>
			</g>
		</g>
	</g>
	<g id="XMLID_1958_">
		<path id="XMLID_1959_" d="M453.85,258.831c-4.142,0-7.5,3.358-7.5,7.5V494.5c0,1.378-1.122,2.5-2.5,2.5h-53.52
			c-4.142,0-7.5,3.358-7.5,7.5s3.358,7.5,7.5,7.5h53.52c9.649,0,17.5-7.851,17.5-17.5V266.331
			C461.35,262.188,457.992,258.831,453.85,258.831z"/>
		<path id="XMLID_1960_" d="M443.85,0H68.15c-9.649,0-17.5,7.851-17.5,17.5v477c0,9.649,7.851,17.5,17.5,17.5h289.52
			c4.142,0,7.5-3.358,7.5-7.5s-3.358-7.5-7.5-7.5H68.15c-1.378,0-2.5-1.122-2.5-2.5v-399h380.7v65.169c0,4.142,3.358,7.5,7.5,7.5
			s7.5-3.358,7.5-7.5V17.5C461.35,7.851,453.5,0,443.85,0z M65.65,80.5v-63c0-1.378,1.122-2.5,2.5-2.5h375.7
			c1.378,0,2.5,1.122,2.5,2.5v63H65.65z"/>
		<path id="XMLID_1963_" d="M453.85,185.831c-4.142,0-7.5,3.358-7.5,7.5v40.339c0,4.142,3.358,7.5,7.5,7.5s7.5-3.358,7.5-7.5
			v-40.339C461.35,189.188,457.992,185.831,453.85,185.831z"/>
		<path id="XMLID_1964_" d="M143.966,306.851c-2.929-2.929-7.678-2.929-10.606,0l-5.704,5.704l-5.704-5.704
			c-2.929-2.929-7.678-2.929-10.606,0c-2.929,2.929-2.929,7.678,0,10.606l5.704,5.704l-5.704,5.704
			c-2.929,2.929-2.929,7.678,0,10.606c1.464,1.464,3.384,2.197,5.303,2.197s3.839-0.732,5.303-2.197l5.704-5.704l5.704,5.704
			c1.464,1.464,3.384,2.197,5.303,2.197s3.839-0.732,5.303-2.197c2.929-2.929,2.929-7.678,0-10.606l-5.704-5.704l5.704-5.704
			C146.895,314.528,146.895,309.779,143.966,306.851z"/>
		<path id="XMLID_1965_" d="M208.138,306.851c-2.929-2.929-7.678-2.929-10.606,0l-5.704,5.704l-5.704-5.704
			c-2.929-2.929-7.678-2.929-10.606,0c-2.929,2.929-2.929,7.678,0,10.606l5.704,5.704l-5.704,5.704
			c-2.929,2.929-2.929,7.678,0,10.606c1.464,1.464,3.384,2.197,5.303,2.197s3.839-0.732,5.303-2.197l5.704-5.704l5.704,5.704
			c1.464,1.464,3.384,2.197,5.303,2.197s3.839-0.732,5.303-2.197c2.929-2.929,2.929-7.678,0-10.606l-5.704-5.704l5.704-5.704
			C211.067,314.528,211.067,309.779,208.138,306.851z"/>
		<path id="XMLID_1966_" d="M239.689,339.472c1.464,1.465,3.384,2.197,5.303,2.197c1.919,0,3.839-0.732,5.303-2.197l5.705-5.704
			l5.705,5.704c1.464,1.464,3.384,2.197,5.303,2.197s3.839-0.732,5.303-2.197c2.929-2.929,2.929-7.678,0-10.606l-5.704-5.704
			l5.704-5.704c2.929-2.929,2.929-7.678,0-10.606c-2.929-2.93-7.678-2.929-10.606,0L256,312.555l-5.705-5.704
			c-2.929-2.929-7.678-2.929-10.606,0c-2.929,2.929-2.929,7.678,0,10.606l5.704,5.704l-5.704,5.704
			C236.76,331.794,236.76,336.543,239.689,339.472z"/>
		<path id="XMLID_1967_" d="M336.483,306.851c-2.929-2.929-7.678-2.929-10.606,0l-5.704,5.704l-5.704-5.704
			c-2.929-2.929-7.678-2.929-10.606,0c-2.929,2.929-2.929,7.678,0,10.606l5.704,5.704l-5.704,5.704
			c-2.929,2.929-2.929,7.678,0,10.606c1.464,1.464,3.384,2.197,5.303,2.197s3.839-0.732,5.303-2.197l5.704-5.704l5.704,5.704
			c1.464,1.464,3.384,2.197,5.303,2.197s3.839-0.732,5.303-2.197c2.929-2.929,2.929-7.678,0-10.606l-5.704-5.704l5.704-5.704
			C339.413,314.528,339.413,309.779,336.483,306.851z"/>
		<path id="XMLID_1968_" d="M400.656,306.851c-2.929-2.929-7.678-2.929-10.606,0l-5.704,5.704l-5.704-5.704
			c-2.929-2.929-7.678-2.929-10.606,0c-2.929,2.929-2.929,7.678,0,10.606l5.704,5.704l-5.704,5.704
			c-2.929,2.929-2.929,7.678,0,10.606c1.464,1.464,3.384,2.197,5.303,2.197s3.839-0.732,5.303-2.197l5.704-5.704l5.704,5.704
			c1.464,1.464,3.384,2.197,5.303,2.197s3.839-0.732,5.303-2.197c2.929-2.929,2.929-7.678,0-10.606l-5.704-5.704l5.704-5.704
			C403.585,314.528,403.585,309.779,400.656,306.851z"/>
		<path id="XMLID_1969_" d="M143.966,359.754c-2.929-2.929-7.678-2.929-10.606,0l-5.704,5.704l-5.704-5.704
			c-2.929-2.929-7.678-2.929-10.606,0c-2.929,2.929-2.929,7.678,0,10.606l5.704,5.704l-5.704,5.704
			c-2.929,2.929-2.929,7.678,0,10.606c1.464,1.464,3.384,2.197,5.303,2.197s3.839-0.732,5.303-2.197l5.704-5.704l5.704,5.704
			c1.464,1.464,3.384,2.197,5.303,2.197s3.839-0.732,5.303-2.197c2.929-2.929,2.929-7.678,0-10.606l-5.704-5.704l5.704-5.704
			C146.895,367.432,146.895,362.683,143.966,359.754z"/>
		<path id="XMLID_1970_" d="M208.138,359.754c-2.929-2.929-7.678-2.929-10.606,0l-5.704,5.704l-5.704-5.704
			c-2.929-2.929-7.678-2.929-10.606,0c-2.929,2.929-2.929,7.678,0,10.606l5.704,5.704l-5.704,5.704
			c-2.929,2.929-2.929,7.678,0,10.606c1.464,1.464,3.384,2.197,5.303,2.197s3.839-0.732,5.303-2.197l5.704-5.704l5.704,5.704
			c1.464,1.464,3.384,2.197,5.303,2.197s3.839-0.732,5.303-2.197c2.929-2.929,2.929-7.678,0-10.606l-5.704-5.704l5.704-5.704
			C211.067,367.432,211.067,362.683,208.138,359.754z"/>
		<path id="XMLID_1971_" d="M239.689,392.376c1.464,1.465,3.384,2.197,5.303,2.197s3.839-0.732,5.303-2.197l5.705-5.704l5.705,5.704
			c1.464,1.464,3.384,2.197,5.303,2.197s3.839-0.732,5.303-2.197c2.929-2.929,2.929-7.678,0-10.606l-5.704-5.704l5.704-5.704
			c2.929-2.929,2.929-7.678,0-10.606c-2.928-2.93-7.677-2.929-10.606,0L256,365.459l-5.705-5.704c-2.929-2.929-7.678-2.929-10.606,0
			c-2.929,2.929-2.929,7.678,0,10.606l5.704,5.704l-5.704,5.704C236.76,384.698,236.76,389.447,239.689,392.376z"/>
		<path id="XMLID_1972_" d="M336.483,359.754c-2.929-2.929-7.678-2.929-10.606,0l-5.704,5.704l-5.704-5.704
			c-2.929-2.929-7.678-2.929-10.606,0c-2.929,2.929-2.929,7.678,0,10.606l5.704,5.704l-5.704,5.704
			c-2.929,2.929-2.929,7.678,0,10.606c1.464,1.464,3.384,2.197,5.303,2.197s3.839-0.732,5.303-2.197l5.704-5.704l5.704,5.704
			c1.464,1.464,3.384,2.197,5.303,2.197s3.839-0.732,5.303-2.197c2.929-2.929,2.929-7.678,0-10.606l-5.704-5.704l5.704-5.704
			C339.413,367.432,339.413,362.683,336.483,359.754z"/>
		<path id="XMLID_1973_" d="M390.049,392.376c1.464,1.464,3.384,2.197,5.303,2.197s3.839-0.732,5.303-2.197
			c2.929-2.929,2.929-7.678,0-10.606l-5.704-5.704l5.704-5.704c2.929-2.929,2.929-7.678,0-10.606c-2.929-2.929-7.678-2.929-10.606,0
			l-5.704,5.704l-5.704-5.704c-2.929-2.929-7.678-2.929-10.606,0c-2.929,2.929-2.929,7.678,0,10.606l5.704,5.704l-5.704,5.704
			c-2.929,2.929-2.929,7.678,0,10.606c1.464,1.464,3.384,2.197,5.303,2.197s3.839-0.732,5.303-2.197l5.704-5.704L390.049,392.376z"
			/>
		<path id="XMLID_1974_" d="M143.966,412.658c-2.929-2.929-7.678-2.929-10.606,0l-5.704,5.704l-5.704-5.704
			c-2.928-2.929-7.677-2.929-10.606,0c-2.929,2.929-2.929,7.678,0,10.606l5.704,5.705l-5.704,5.705
			c-2.929,2.929-2.929,7.678,0,10.606c1.464,1.464,3.384,2.197,5.303,2.197s3.839-0.732,5.303-2.197l5.704-5.704l5.704,5.704
			c1.464,1.465,3.384,2.197,5.303,2.197c1.919,0,3.839-0.732,5.303-2.197c2.929-2.929,2.929-7.678,0-10.606l-5.704-5.705
			l5.704-5.705C146.895,420.335,146.895,415.586,143.966,412.658z"/>
		<path id="XMLID_1975_" d="M208.138,412.658c-2.929-2.929-7.678-2.929-10.606,0l-5.704,5.704l-5.704-5.704
			c-2.929-2.929-7.678-2.929-10.606,0c-2.929,2.929-2.929,7.678,0,10.606l5.704,5.705l-5.704,5.705
			c-2.929,2.929-2.929,7.678,0,10.606c1.464,1.464,3.384,2.197,5.303,2.197s3.839-0.732,5.303-2.197l5.704-5.704l5.704,5.704
			c1.464,1.465,3.384,2.197,5.303,2.197c1.919,0,3.839-0.732,5.303-2.197c2.929-2.929,2.929-7.678,0-10.606l-5.704-5.705
			l5.704-5.705C211.067,420.335,211.067,415.586,208.138,412.658z"/>
		<path id="XMLID_1976_" d="M256,455.104c14.411,0,26.135-11.725,26.135-26.136S270.411,402.833,256,402.833
			s-26.135,11.724-26.135,26.135S241.589,455.104,256,455.104z M256,417.833c6.14,0,11.135,4.995,11.135,11.135
			S262.14,440.104,256,440.104s-11.135-4.996-11.135-11.136S249.86,417.833,256,417.833z"/>
		<path id="XMLID_1979_" d="M229.919,199.191c0-9.698-4.555-18.346-11.631-23.936c4.035-4.493,6.495-10.427,6.495-16.927
			c0-13.985-11.378-25.363-25.363-25.363s-25.363,11.378-25.363,25.363c0,6.5,2.46,12.434,6.495,16.927
			c-7.077,5.59-11.631,14.239-11.631,23.936c0,16.818,13.682,30.5,30.5,30.5S229.919,216.009,229.919,199.191z M189.056,158.328
			c0-5.714,4.649-10.363,10.363-10.363s10.363,4.649,10.363,10.363s-4.649,10.363-10.363,10.363S189.056,164.042,189.056,158.328z
			 M199.419,214.691c-8.547,0-15.5-6.953-15.5-15.5s6.953-15.5,15.5-15.5s15.5,6.953,15.5,15.5S207.966,214.691,199.419,214.691z"/>
		<path id="XMLID_1983_" d="M135.785,207.077c16.576-16.975,24.634-30.621,24.634-41.719c0-16.542-13.458-30-30-30s-30,13.458-30,30
			c0,4.142,3.358,7.5,7.5,7.5s7.5-3.358,7.5-7.5c0-8.271,6.729-15,15-15s15,6.729,15,15c0,12.292-24.638,37.185-42.133,50.935
			c-2.513,1.976-3.499,5.328-2.454,8.35c1.045,3.021,3.89,5.048,7.087,5.048h51c4.142,0,7.5-3.358,7.5-7.5s-3.358-7.5-7.5-7.5
			h-30.923C130.495,212.352,133.136,209.79,135.785,207.077z"/>
		<path id="XMLID_1984_" d="M411.581,225.833v-86.417c0-8.309-6.76-15.069-15.069-15.069H274.462
			c-8.309,0-15.069,6.76-15.069,15.069v86.417c0,8.309,6.76,15.069,15.069,15.069h122.049
			C404.821,240.902,411.581,234.142,411.581,225.833z M396.512,225.902l-92.682-0.053V196.5h27.35c4.142,0,7.5-3.358,7.5-7.5v-9
			h5.49v23.78c0,6.893,5.607,12.5,12.5,12.5h11.67c6.893,0,12.5-5.607,12.5-12.5v-37.95h15.741v60.003
			C396.581,225.871,396.55,225.902,396.512,225.902z M274.393,225.833l0.069-86.487l122.119,0.069v11.415H378.34
			c-6.893,0-12.5,5.607-12.5,12.5v37.95h-6.67V177.5c0-6.893-5.607-12.5-12.5-12.5h-10.49c-6.893,0-12.5,5.607-12.5,12.5v4h-22.35
			c-6.893,0-12.5,5.607-12.5,12.5v31.841L274.393,225.833z"/>
		<path id="XMLID_1988_" d="M107.919,263.5h19.736c4.142,0,7.5-3.358,7.5-7.5s-3.358-7.5-7.5-7.5h-19.736
			c-4.142,0-7.5,3.358-7.5,7.5S103.777,263.5,107.919,263.5z"/>
		<path id="XMLID_1989_" d="M183.919,275.321c0-4.142-3.358-7.5-7.5-7.5h-68.5c-4.142,0-7.5,3.358-7.5,7.5s3.358,7.5,7.5,7.5h68.5
			C180.561,282.821,183.919,279.463,183.919,275.321z"/>
		<path id="XMLID_1990_" d="M411.256,275.321c0-4.142-3.358-7.5-7.5-7.5h-68.5c-4.142,0-7.5,3.358-7.5,7.5s3.358,7.5,7.5,7.5h68.5
			C407.898,282.821,411.256,279.463,411.256,275.321z"/>
		<path id="XMLID_1991_" d="M97.644,22.75h-0.078c-4.142,0-7.461,3.358-7.461,7.5s3.396,7.5,7.539,7.5s7.5-3.358,7.5-7.5
			S101.786,22.75,97.644,22.75z"/>
		<path id="XMLID_1992_" d="M126.443,22.75h-0.078c-4.142,0-7.461,3.358-7.461,7.5s3.397,7.5,7.539,7.5s7.5-3.358,7.5-7.5
			S130.585,22.75,126.443,22.75z"/>
		<path id="XMLID_1993_" d="M155.242,22.75h-0.078c-4.142,0-7.461,3.358-7.461,7.5s3.397,7.5,7.539,7.5s7.5-3.358,7.5-7.5
			S159.384,22.75,155.242,22.75z"/>
		<path id="XMLID_1994_" d="M184.042,22.75h-0.078c-4.142,0-7.461,3.358-7.461,7.5s3.397,7.5,7.539,7.5s7.5-3.358,7.5-7.5
			S188.184,22.75,184.042,22.75z"/>
		<path id="XMLID_1995_" d="M212.84,22.75h-0.078c-4.142,0-7.461,3.358-7.461,7.5s3.397,7.5,7.539,7.5s7.5-3.358,7.5-7.5
			S216.982,22.75,212.84,22.75z"/>
		<path id="XMLID_1996_" d="M241.64,22.75h-0.078c-4.142,0-7.461,3.358-7.461,7.5s3.397,7.5,7.539,7.5s7.5-3.358,7.5-7.5
			S245.782,22.75,241.64,22.75z"/>
		<path id="XMLID_1997_" d="M270.438,22.75h-0.078c-4.142,0-7.461,3.358-7.461,7.5s3.397,7.5,7.539,7.5s7.5-3.358,7.5-7.5
			S274.581,22.75,270.438,22.75z"/>
		<path id="XMLID_1998_" d="M299.238,22.75h-0.078c-4.142,0-7.461,3.358-7.461,7.5s3.397,7.5,7.539,7.5s7.5-3.358,7.5-7.5
			S303.38,22.75,299.238,22.75z"/>
		<path id="XMLID_1999_" d="M328.037,22.75h-0.078c-4.142,0-7.461,3.358-7.461,7.5s3.397,7.5,7.539,7.5s7.5-3.358,7.5-7.5
			S332.179,22.75,328.037,22.75z"/>
		<path id="XMLID_2000_" d="M356.835,22.75h-0.078c-4.142,0-7.461,3.358-7.461,7.5s3.396,7.5,7.539,7.5s7.5-3.358,7.5-7.5
			S360.978,22.75,356.835,22.75z"/>
		<path id="XMLID_2001_" d="M385.635,22.75h-0.078c-4.142,0-7.461,3.358-7.461,7.5s3.397,7.5,7.539,7.5s7.5-3.358,7.5-7.5
			S389.777,22.75,385.635,22.75z"/>
		<path id="XMLID_2002_" d="M414.434,22.75h-0.078c-4.142,0-7.461,3.358-7.461,7.5s3.397,7.5,7.539,7.5s7.5-3.358,7.5-7.5
			S418.576,22.75,414.434,22.75z"/>
	</g>
</g>
<g>
</g>
<g>
</g>
<g>
</g>
<g>
</g>
<g>
</g>
<g>
</g>
<g>
</g>
<g>
</g>
<g>
</g>
<g>
</g>
<g>
</g>
<g>
</g>
<g>
</g>
<g>
</g>
<g>
</g>
</svg>
