<?xml version="1.0" encoding="iso-8859-1"?>
<!-- Generator: Adobe Illustrator 23.0.6, SVG Export Plug-In . SVG Version: 6.00 Build 0)  -->
<svg version="1.1" id="Capa_1" xmlns="http://www.w3.org/2000/svg" xmlns:xlink="http://www.w3.org/1999/xlink" x="0px" y="0px"
	 viewBox="0 0 512 512" style="enable-background:new 0 0 512 512;" xml:space="preserve">
<g>
	<g>
		<path style="fill:#FFC269;" d="M120.888,300.089L14.442,484.46c-3.085,5.344,0.771,12.024,6.942,12.024h212.892
			c6.171,0,10.028-6.68,6.942-12.024L134.773,300.089C131.687,294.745,123.974,294.745,120.888,300.089z"/>
		<path style="fill:#A4CCFF;" d="M446.648,31.549H321.868c-4.061,0-7.97,1.541-10.939,4.312l-41.65,38.874
			c-2.993,2.794-3.4,7.394-0.943,10.67l109.51,146.014c3.206,4.275,9.619,4.275,12.826,0l109.51-146.014
			c2.457-3.276,2.05-7.876-0.943-10.67l-41.65-38.874C454.619,33.09,450.709,31.549,446.648,31.549z"/>
		<path style="fill:#C3DDFF;" d="M499.238,74.734l-41.65-38.873c-2.969-2.771-6.879-4.312-10.939-4.312h-14.293v48.097h69.332
			C501.468,77.826,500.669,76.069,499.238,74.734z"/>
		<path style="fill:#739AD6;" d="M266.829,79.645c-0.238,1.986,0.223,4.049,1.505,5.758l109.51,146.014
			c1.603,2.138,4.008,3.207,6.413,3.207V79.645H266.829z"/>
		<path style="fill:#8BB3EA;" d="M382.353,234.188c1.275,0.315,2.536,0.315,3.81,0l66.426-201.492
			c-1.874-0.748-3.887-1.148-5.941-1.148h-124.78c-2.054,0-4.067,0.4-5.941,1.148L382.353,234.188z"/>
		<polygon style="fill:#A4CCFF;" points="384.258,31.549 336.161,79.645 432.355,79.645 		"/>
		<path style="fill:#B3E59F;" d="M441.749,496.484H326.771c-4.252,0-8.33-1.689-11.337-4.696l-30.69-30.69
			c-3.007-3.007-4.696-7.085-4.696-11.337V334.783c0-4.252,1.689-8.33,4.696-11.337l30.686-30.686
			c3.007-3.007,7.084-4.696,11.337-4.696h114.979c4.252,0,8.329,1.689,11.336,4.695l30.69,30.686
			c3.007,3.007,4.696,7.085,4.696,11.337v114.979c0,4.252-1.689,8.329-4.695,11.336l-30.686,30.69
			C450.079,494.795,446.001,496.484,441.749,496.484z"/>
		<path style="fill:#FF8086;" d="M135.754,20.139l88.177,50.872c4.963,2.863,8.021,8.157,8.021,13.887V186.62
			c0,5.73-3.058,11.024-8.021,13.887l-88.177,50.871c-4.958,2.86-11.065,2.86-16.023,0l-88.177-50.871
			c-4.963-2.863-8.021-8.157-8.021-13.887V84.897c0-5.73,3.058-11.024,8.021-13.887l88.177-50.872
			C124.688,17.278,130.795,17.278,135.754,20.139z"/>
		<path style="fill:#E5646E;" d="M31.553,200.507c-2.469-1.425-4.463-3.455-5.847-5.837l39.557-22.838l62.48,28.056v53.636
			c-2.766,0-5.533-0.715-8.012-2.145L31.553,200.507z"/>
		<path style="fill:#DB4655;" d="M23.61,84.314v102.888c0.099,2.664,0.795,5.229,2.096,7.467l39.557-22.838V99.686L25.706,76.847
			C24.405,79.086,23.708,81.65,23.61,84.314z"/>
		<path style="fill:#FF9A9F;" d="M231.952,187.202V84.314c-0.099-2.664-0.795-5.229-2.096-7.467l-39.557,22.838v72.145
			l39.557,22.838C231.156,192.43,231.853,189.866,231.952,187.202z"/>
		<path style="fill:#E5646E;" d="M31.553,71.01c-2.469,1.425-4.463,3.455-5.847,5.837l39.557,22.838l62.48-28.056V17.993
			c-2.766,0-5.533,0.715-8.012,2.145L31.553,71.01z"/>
		<polygon style="fill:#FF8086;" points="127.742,61.782 63.613,98.779 63.613,172.738 127.742,209.735 191.871,172.738 
			191.871,98.779 		"/>
		<path style="fill:#FF9A9F;" d="M123.744,91.829l-32.081,18.508c-2.476,1.429-4.002,4.07-4.002,6.93v36.984
			c0,2.859,1.526,5.501,4.002,6.929l32.081,18.508c2.474,1.427,5.521,1.427,7.996,0l32.081-18.508
			c2.476-1.429,4.002-4.07,4.002-6.929v-36.984c0-2.859-1.526-5.501-4.002-6.93L131.74,91.829
			C129.266,90.402,126.218,90.402,123.744,91.829z"/>
		<path style="fill:#FFA95F;" d="M234.277,496.484c2.679,0,4.872-1.297,6.3-3.159l-69.581-41.999l-81.831-8.45l-74.789,49.44
			c1.328,2.417,3.858,4.168,7.01,4.168H234.277z"/>
		<path style="fill:#FF8B5A;" d="M127.157,377.96v-81.795c-2.466,0.205-4.855,1.476-6.268,3.924L14.442,484.46
			c-1.509,2.615-1.34,5.541-0.068,7.857l74.178-42.309L127.157,377.96z"/>
		<polygon style="fill:#FFE07D;" points="127.83,362.5 71.963,459.266 183.698,459.266 		"/>
		
			<rect x="440.371" y="336.162" transform="matrix(-1 -1.224647e-16 1.224647e-16 -1 928.8387 784.5489)" style="fill:#CCF49F;" width="48.097" height="112.226"/>
		
			<rect x="280.048" y="336.162" transform="matrix(-1 -1.224647e-16 1.224647e-16 -1 608.1935 784.5489)" style="fill:#95D6A4;" width="48.097" height="112.226"/>
		<rect x="328.145" y="288.065" style="fill:#CCF49F;" width="112.225" height="48.097"/>
		<rect x="328.145" y="448.387" style="fill:#95D6A4;" width="112.225" height="48.097"/>
		<path style="fill:#CCF49F;" d="M400.29,424.339h-32.065c-8.854,0-16.032-7.178-16.032-16.032v-32.065
			c0-8.854,7.178-16.032,16.032-16.032h32.065c8.854,0,16.032,7.178,16.032,16.032v32.065
			C416.323,417.161,409.145,424.339,400.29,424.339z"/>
	</g>
	<g>
		<path d="M509.617,74.162l-51.532-48.097c-1.389-1.296-3.217-2.017-5.117-2.017H315.548c-1.9,0-3.729,0.721-5.117,2.017
			l-51.532,48.097c-2.801,2.614-3.181,6.918-0.883,9.983l120.242,160.323c1.417,1.889,3.639,3,6,3s4.583-1.111,6-3L510.5,84.145
			C512.798,81.08,512.418,76.776,509.617,74.162z M402.365,39.049h40.233l-9.975,30.258L402.365,39.049z M414.249,72.145h-59.981
			l29.991-29.99L414.249,72.145z M335.893,69.307l-9.975-30.258h40.234L335.893,69.307z M321.035,72.145h-37.991l29.052-27.115
			L321.035,72.145z M325.98,87.145l36.835,111.731L279.016,87.145H325.98z M423.604,120.62c-3.933-1.295-8.174,0.84-9.471,4.775
			l-29.874,90.618L341.774,87.145h84.968l-2.038,6.182c-1.297,3.934,0.841,8.174,4.775,9.471c0.78,0.257,1.571,0.379,2.35,0.379
			c3.149,0,6.082-2,7.122-5.154l3.586-10.878H489.5l-83.797,111.731l22.676-68.784C429.675,126.158,427.538,121.917,423.604,120.62z
			 M447.481,72.145l8.939-27.115l29.052,27.115H447.481z"/>
		<path d="M19.784,202.376l104.209,60.121c1.16,0.669,2.454,1.003,3.748,1.003s2.588-0.334,3.748-1.003l104.21-60.121
			c2.321-1.34,3.752-3.816,3.752-6.497V75.637c0-2.68-1.431-5.157-3.752-6.497L131.49,9.02c-2.319-1.338-5.177-1.338-7.496,0
			L19.784,69.141c-2.322,1.34-3.752,3.816-3.752,6.497V195.88C16.032,198.56,17.462,201.036,19.784,202.376z M63.653,181.42
			l56.589,32.647v28.948l-81.667-47.115L63.653,181.42z M135.242,214.067l56.589-32.647l25.078,14.479l-81.668,47.115V214.067z
			 M199.371,168.453v-16.662c0-4.142-3.358-7.5-7.5-7.5s-7.5,3.358-7.5,7.5v16.616l-56.629,32.67l-56.629-32.67v-65.296
			l56.629-32.67l56.629,32.67v16.615c0,4.142,3.358,7.5,7.5,7.5s7.5-3.358,7.5-7.5v-16.662l25.081-14.48v94.35L199.371,168.453z
			 M191.83,90.097L135.242,57.45V28.502l81.667,47.116L191.83,90.097z M120.242,57.45L63.653,90.097L38.575,75.618l81.667-47.116
			V57.45z M56.113,103.064v65.39l-25.081,14.48v-94.35L56.113,103.064z"/>
		<path d="M134.326,284.315c-1.34-2.32-3.815-3.75-6.495-3.75c-2.679,0-5.156,1.43-6.495,3.75L1.005,492.734
			c-1.34,2.32-1.34,5.18,0,7.5s3.815,3.75,6.495,3.75h240.661c2.68,0,5.155-1.43,6.495-3.75s1.34-5.18,0-7.5L134.326,284.315z
			 M119.657,361.658l-53.192,92.131l-38.652,22.511l91.844-159.078V361.658z M75.737,465.747c1.172-0.683,2.085-1.637,2.716-2.733
			l0.004,0.003l49.373-85.516l42.877,74.266h-58.998c-4.142,0-7.5,3.358-7.5,7.5s3.358,7.5,7.5,7.5h69.926l37.343,22.217H35.841
			L75.737,465.747z M189.214,453.822l-54.558-94.498v-44.435l93.636,162.183L189.214,453.822z"/>
		<path d="M453.689,282.761c-1.407-1.406-3.314-2.196-5.303-2.196h-128.26c-1.989,0-3.897,0.79-5.303,2.197l-40.078,40.078
			c-1.407,1.406-2.197,3.314-2.197,5.303v128.26c0,1.989,0.79,3.897,2.197,5.303l40.082,40.082c1.406,1.406,3.314,2.196,5.303,2.196
			h128.26c1.989,0,3.897-0.79,5.304-2.197l40.078-40.081c1.406-1.407,2.196-3.314,2.196-5.303v-128.26
			c0-1.989-0.79-3.897-2.197-5.304L453.689,282.761z M447.871,440.887v-97.226h33.097v97.226H447.871z M432.871,488.984h-97.226
			v-33.096h97.226V488.984z M335.645,440.887v-97.226h56.628c4.142,0,7.5-3.358,7.5-7.5s-3.358-7.5-7.5-7.5h-56.628v-33.097h97.226
			v33.097h-8.53c-4.142,0-7.5,3.358-7.5,7.5s3.358,7.5,7.5,7.5h8.53v97.226H335.645z M287.548,343.661h33.097v97.226h-33.097
			V343.661z M478.38,328.661h-30.509v-30.506L478.38,328.661z M320.645,298.152v30.509h-30.509L320.645,298.152z M290.14,455.887
			h30.505v30.505L290.14,455.887z M447.871,486.396v-30.509h30.506L447.871,486.396z"/>
	</g>
</g>
<g>
</g>
<g>
</g>
<g>
</g>
<g>
</g>
<g>
</g>
<g>
</g>
<g>
</g>
<g>
</g>
<g>
</g>
<g>
</g>
<g>
</g>
<g>
</g>
<g>
</g>
<g>
</g>
<g>
</g>
</svg>
