<svg xmlns="http://www.w3.org/2000/svg" viewBox="0 0 512 512"><title>Retail - Lineal Color</title><g id="_36_Appliances" data-name="36 Appliances"><rect x="28.6" y="7.5" width="305.55" height="462.26" rx="13.08" ry="13.08" style="fill:#e9e9ea"/><path d="M321.07,7.5h-25a13.08,13.08,0,0,1,13.08,13.08v436.1a13.08,13.08,0,0,1-13.08,13.08h25a13.08,13.08,0,0,0,13.08-13.08V20.58A13.08,13.08,0,0,0,321.07,7.5Z" style="fill:#c5c4cc"/><path d="M321.07,477.26H41.68A20.6,20.6,0,0,1,21.1,456.68V90.25a7.5,7.5,0,0,1,15,0V456.68a5.59,5.59,0,0,0,5.58,5.58H321.07a5.59,5.59,0,0,0,5.58-5.58V20.58A5.59,5.59,0,0,0,321.07,15H41.68a5.59,5.59,0,0,0-5.58,5.58V60.25a7.5,7.5,0,1,1-15,0V20.58A20.6,20.6,0,0,1,41.68,0H321.07a20.6,20.6,0,0,1,20.58,20.58v436.1A20.6,20.6,0,0,1,321.07,477.26Z"/><path d="M54.11,469.76V502.5a2,2,0,0,0,2,2H81a2,2,0,0,0,2-2v-5.3a2,2,0,0,1,2-2H277.78a2,2,0,0,1,2,2v5.3a2,2,0,0,0,2,2h24.85a2,2,0,0,0,2-2V469.76Z" style="fill:#575b7a"/><path d="M306.64,512H281.78a9.51,9.51,0,0,1-9.5-9.5v-2.2a7.5,7.5,0,0,1,5.5-12.6,9.51,9.51,0,0,1,9.5,9.3h13.85V477.26H61.61V497H75.46a9.51,9.51,0,0,1,9.5-9.3h32.12a7.5,7.5,0,0,1,0,15H90.46A9.51,9.51,0,0,1,81,512H56.11a9.51,9.51,0,0,1-9.5-9.5V469.76a7.5,7.5,0,0,1,7.5-7.5H308.64a7.5,7.5,0,0,1,7.5,7.5V502.5A9.51,9.51,0,0,1,306.64,512Zm-28.85-9.3h0Z"/><path d="M28.6,149.3V192H88.34a4,4,0,0,0,2.83-1.17l18-18a4,4,0,0,1,2.83-1.17H334.15V149.3Z" style="fill:#575b7a"/><rect x="309.15" y="149.3" width="25" height="22.37" style="fill:#252d4c"/><path d="M88.34,199.5H28.6a7.5,7.5,0,0,1-7.5-7.5V149.3a7.5,7.5,0,0,1,7.5-7.5H334.15a7.5,7.5,0,0,1,7.5,7.5v22.37a7.5,7.5,0,0,1-7.5,7.5H113.44l-17,17A11.43,11.43,0,0,1,88.34,199.5Zm-52.24-15H86.89l17-17a11.43,11.43,0,0,1,8.13-3.37H326.65V156.8H36.1Z"/><path d="M72.19,125.29a7.5,7.5,0,0,1-7.5-7.5V75.25a7.5,7.5,0,0,1,15,0v42.54A7.5,7.5,0,0,1,72.19,125.29Z"/><path d="M72.19,268.82a7.5,7.5,0,0,1-7.5-7.5V218.78a7.5,7.5,0,0,1,15,0v42.54A7.5,7.5,0,0,1,72.19,268.82Z"/><rect x="146.33" y="296.05" width="337.07" height="208.45" rx="17.65" ry="17.65" style="fill:#575b7a"/><path d="M465.75,296.05h-26.3A17.65,17.65,0,0,1,457.1,313.7V486.85a17.65,17.65,0,0,1-17.65,17.65h26.3a17.65,17.65,0,0,0,17.65-17.65V313.7A17.65,17.65,0,0,0,465.75,296.05Z" style="fill:#252d4c"/><path d="M465.75,512H164a25.18,25.18,0,0,1-25.15-25.15V313.7A25.18,25.18,0,0,1,164,288.55H465.75A25.18,25.18,0,0,1,490.9,313.7v34.51a7.5,7.5,0,0,1-15,0V313.7a10.16,10.16,0,0,0-10.15-10.15H164a10.16,10.16,0,0,0-10.15,10.15V486.85A10.16,10.16,0,0,0,164,497H465.75a10.16,10.16,0,0,0,10.15-10.15V378.21a7.5,7.5,0,0,1,15,0V486.85A25.18,25.18,0,0,1,465.75,512Z"/><path d="M384.28,296.05H164a17.65,17.65,0,0,0-17.65,17.65V486.85A17.65,17.65,0,0,0,164,504.5h220.3Z" style="fill:#5692d8"/><path d="M384.28,512H164a25.18,25.18,0,0,1-25.15-25.15V313.7A25.18,25.18,0,0,1,164,288.55H384.28a7.5,7.5,0,0,1,7.5,7.5V504.5A7.5,7.5,0,0,1,384.28,512ZM164,303.55a10.16,10.16,0,0,0-10.15,10.15V486.85A10.16,10.16,0,0,0,164,497H376.78V303.55Z"/><rect x="168.24" y="317.96" width="194.12" height="164.63" rx="4" ry="4" style="fill:#c8e7f7"/><path d="M358.37,490.09H172.24a11.51,11.51,0,0,1-11.5-11.5V322a11.51,11.51,0,0,1,11.5-11.5h19.18a7.5,7.5,0,0,1,0,15H175.74V475.09H354.87V325.46H221.42a7.5,7.5,0,0,1,0-15H358.37a11.51,11.51,0,0,1,11.5,11.5V478.59A11.51,11.51,0,0,1,358.37,490.09Zm0-164.63h0Z"/><circle cx="433.84" cy="363.21" r="17.26" style="fill:#aed559"/><path d="M433.84,388a24.76,24.76,0,1,1,24.76-24.76A24.79,24.79,0,0,1,433.84,388Zm0-34.52a9.76,9.76,0,1,0,9.76,9.76A9.77,9.77,0,0,0,433.84,353.45Z"/><path d="M421.63,423.48h-7.4a7.5,7.5,0,0,1,0-15h7.4a7.5,7.5,0,0,1,0,15Z"/><path d="M453.44,423.48H446a7.5,7.5,0,0,1,0-15h7.4a7.5,7.5,0,0,1,0,15Z"/><path d="M421.63,452.08h-7.4a7.5,7.5,0,0,1,0-15h7.4a7.5,7.5,0,0,1,0,15Z"/><path d="M453.44,452.08H446a7.5,7.5,0,0,1,0-15h7.4a7.5,7.5,0,0,1,0,15Z"/></g></svg>