<?xml version="1.0" encoding="iso-8859-1"?>
<!-- Generator: Adobe Illustrator 23.1.0, SVG Export Plug-In . SVG Version: 6.00 Build 0)  -->
<svg version="1.1" id="Layer_1" xmlns="http://www.w3.org/2000/svg" xmlns:xlink="http://www.w3.org/1999/xlink" x="0px" y="0px"
	 viewBox="0 0 512 512" style="enable-background:new 0 0 512 512;" xml:space="preserve">
<path d="M497.715,325.064c-0.006-0.074-0.006-0.148-0.014-0.221c-0.013-0.12-0.036-0.24-0.055-0.36
	c-0.021-0.135-0.038-0.271-0.067-0.404c-0.013-0.059-0.031-0.117-0.045-0.176c-0.045-0.191-0.094-0.381-0.153-0.566
	c-0.002-0.007-0.004-0.014-0.006-0.022l-43.759-134.319c16.408-4.99,28.384-20.257,28.384-38.274
	c0-21.762-16.929-39.419-38.54-40.198c-0.091-0.003-0.181-0.005-0.271-0.005h-9.031L259.988,1.148c-2.438-1.531-5.538-1.531-7.977,0
	l-174.17,109.37h-9.031c-0.09,0-0.18,0.001-0.27,0.005C46.929,111.302,30,128.958,30,150.721c0,18.679,12.871,34.405,30.21,38.783
	L14.657,323.219c-0.007,0.021-0.011,0.043-0.018,0.065c-0.052,0.156-0.094,0.315-0.136,0.476c-0.023,0.09-0.049,0.179-0.069,0.269
	c-0.028,0.128-0.048,0.26-0.07,0.39c-0.021,0.125-0.043,0.251-0.057,0.376c-0.011,0.096-0.015,0.194-0.022,0.292
	c-0.012,0.16-0.023,0.32-0.024,0.479c0,0.024-0.004,0.047-0.004,0.071c0,30.314,24.674,54.977,55.003,54.977
	s55.003-24.663,55.003-54.977c0-0.008-0.001-0.016-0.001-0.024c-0.001-0.191-0.013-0.383-0.029-0.575
	c-0.005-0.064-0.005-0.129-0.012-0.192c-0.014-0.133-0.039-0.266-0.061-0.399c-0.019-0.121-0.035-0.244-0.06-0.364
	c-0.016-0.073-0.038-0.146-0.056-0.218c-0.043-0.177-0.087-0.352-0.142-0.524c-0.003-0.009-0.004-0.018-0.007-0.027L80.252,189.355
	c11.723-3.12,21.551-11.442,26.44-22.697h69.974v35.531c0,9.813,15,9.385,15,0v-35.531h30.885v248.396h-30.885V238.188
	c0-9.813-15-9.385-15,0v176.867h-9.043c-24.182,0-44.281,17.813-47.868,41.007H79.749c-26.709,0-48.438,21.729-48.438,48.438
	c0,4.142,3.358,7.5,7.5,7.5h349.273c9.386,0,9.813-15,0-15H47.159c3.414-14.838,16.73-25.938,32.59-25.938h352.502
	c15.859,0,29.177,11.1,32.591,25.938h-36.76c-9.386,0-9.813,15,0,15h45.107c4.143,0,7.5-3.358,7.5-7.5
	c0-26.709-21.729-48.438-48.438-48.438h-40.005c-3.586-23.194-23.685-41.007-47.868-41.007h-9.043V166.659h69.974
	c5.141,11.84,15.745,20.45,28.277,23.153l-45.448,133.407c-0.008,0.023-0.012,0.047-0.02,0.07c-0.049,0.149-0.09,0.302-0.13,0.455
	c-0.025,0.097-0.053,0.193-0.074,0.29c-0.026,0.121-0.045,0.245-0.066,0.368c-0.022,0.133-0.046,0.267-0.061,0.4
	c-0.01,0.088-0.014,0.178-0.021,0.267c-0.013,0.168-0.024,0.336-0.026,0.504c0,0.022-0.003,0.043-0.003,0.065
	c0,30.314,24.674,54.977,55.003,54.977s55.004-24.663,55.004-54.977c0-0.009-0.001-0.018-0.001-0.027
	C497.742,325.429,497.729,325.247,497.715,325.064z M479.913,318.138h-74.197l37.927-111.331L479.913,318.138z M256,16.356
	l149.952,94.162h-55.054l-90.895-57.361c-2.446-1.543-5.561-1.543-8.005,0l-90.895,57.361h-55.054L256,16.356z M322.791,110.518
	H189.209L256,68.369L322.791,110.518z M69.259,365.615c-19.493,0-35.775-14.006-39.297-32.477h78.595
	C105.034,351.608,88.752,365.615,69.259,365.615z M32.234,318.138l37.928-111.331l36.27,111.331H32.234z M237.55,166.659h36.9
	v248.396h-36.9V166.659z M376.969,455.993H135.032c3.414-14.838,16.73-25.938,32.59-25.938h176.756
	C360.237,430.055,373.555,441.154,376.969,455.993z M320.335,415.055H289.45V166.659h30.885V415.055z M417.857,157.216
	c-0.879-3.278-3.851-5.558-7.244-5.558H101.387c-3.394,0-6.365,2.279-7.244,5.557C86.729,184.857,45,179.091,45,150.721
	c0-13.378,10.735-24.657,23.955-25.203h374.09C456.266,126.063,467,137.342,467,150.721
	C467,179.416,425.245,184.763,417.857,157.216z M442.74,365.615c-19.493,0-35.774-14.006-39.297-32.477h78.595
	C478.516,351.608,462.233,365.615,442.74,365.615z"/>
<g>
</g>
<g>
</g>
<g>
</g>
<g>
</g>
<g>
</g>
<g>
</g>
<g>
</g>
<g>
</g>
<g>
</g>
<g>
</g>
<g>
</g>
<g>
</g>
<g>
</g>
<g>
</g>
<g>
</g>
</svg>
