<?xml version="1.0" encoding="iso-8859-1"?>
<!-- Generator: Adobe Illustrator 22.0.0, SVG Export Plug-In . SVG Version: 6.00 Build 0)  -->
<svg version="1.1" id="Capa_1" xmlns="http://www.w3.org/2000/svg" xmlns:xlink="http://www.w3.org/1999/xlink" x="0px" y="0px"
	 viewBox="0 0 512 512" style="enable-background:new 0 0 512 512;" xml:space="preserve">
<g>
	<g>
		<g>
			<path style="fill:#FFF7E5;" d="M360.822,430.979l-29.228-48.637l64.723-38.894c16.241-9.76,26.33-27.593,26.33-46.54V236.72
				c0-5.707-4.643-10.35-10.35-10.35h-66.09v-56.743h66.09c36.995,0,67.093,30.098,67.093,67.093v60.189
				c0,38.749-20.633,75.218-53.845,95.176L360.822,430.979z"/>
		</g>
		<g>
			<path style="fill:#FFD4A2;" d="M407.182,334.825c-3.206,3.298-6.846,6.208-10.864,8.623l-64.723,38.894l29.228,48.636
				l46.359-27.858V334.825z"/>
			<rect x="346.208" y="169.627" style="fill:#FFD4A2;" width="60.973" height="56.743"/>
		</g>
		<path style="fill:#F8D070;" d="M53.933,128.226v321.288c0,30.368,24.618,54.986,54.986,54.986h213.276
			c30.368,0,54.986-24.618,54.986-54.986V128.226H53.933z"/>
		<path style="fill:#FFA83F;" d="M83.933,449.514V128.226h-30v321.288c0,30.368,24.618,54.986,54.986,54.986h30
			C108.551,504.5,83.933,479.882,83.933,449.514z"/>
		<path style="fill:#FFF7E5;" d="M399.587,99.823c-0.774-27.971-23.368-49.916-51.349-49.916c-4.528,0-8.92,0.586-13.102,1.687
			c-8.807,2.317-17.937-1.611-22.456-9.517C300.875,21.422,278.635,7.5,253.14,7.5c-13.359,0-25.818,3.83-36.354,10.444
			c-6.612,4.151-15.015,4.151-21.627,0C184.624,11.33,172.165,7.5,158.805,7.5c-27.342,0-50.943,16.012-61.941,39.171
			c-3.157,6.649-9.575,11.075-16.909,11.704c-0.153,0.013-0.306,0.027-0.459,0.041c-25.886,2.446-46.149,24.171-46.873,50.163
			c-0.005,0.194-0.01,0.387-0.013,0.58c-0.2,11.855,9.464,21.53,21.321,21.53h161.624h161.624c9.522,0,17.921-6.305,20.506-15.469
			C399.063,110.343,399.735,105.173,399.587,99.823z"/>
		<path style="fill:#FFD4A2;" d="M62.612,109.159c0.003-0.193,0.008-0.386,0.013-0.58c0.723-25.991,20.986-47.717,46.873-50.162
			c0.153-0.015,0.306-0.028,0.459-0.042c7.333-0.629,13.751-5.055,16.909-11.704c8.922-18.789,26.142-32.873,46.924-37.519
			c-4.822-1.078-9.835-1.652-14.983-1.652c-27.342,0-50.943,16.012-61.941,39.171c-3.157,6.649-9.575,11.075-16.909,11.704
			c-0.153,0.013-0.306,0.027-0.459,0.042c-25.886,2.446-46.149,24.171-46.873,50.162c-0.005,0.194-0.01,0.387-0.013,0.58
			c-0.2,11.855,9.464,21.53,21.321,21.53h30C72.076,130.688,62.412,121.013,62.612,109.159z"/>
		<path style="fill:#FFA83F;" d="M216.108,174.797L216.108,174.797c-15.151,0-27.433,12.282-27.433,27.433v226.171
			c0,15.151,12.282,27.433,27.433,27.433h0c15.151,0,27.433-12.282,27.433-27.433V202.23
			C243.542,187.079,231.259,174.797,216.108,174.797z"/>
		<path style="fill:#FFA83F;" d="M121.138,174.797L121.138,174.797c-15.151,0-27.433,12.282-27.433,27.433v226.171
			c0,15.151,12.282,27.433,27.433,27.433h0c15.151,0,27.433-12.282,27.433-27.433V202.23
			C148.571,187.079,136.289,174.797,121.138,174.797z"/>
		<path style="fill:#FFA83F;" d="M311.078,174.797L311.078,174.797c15.151,0,27.433,12.282,27.433,27.433v226.171
			c0,15.151-12.282,27.433-27.433,27.433h0c-15.151,0-27.433-12.282-27.433-27.433V202.23
			C283.645,187.079,295.927,174.797,311.078,174.797z"/>
	</g>
	<g>
		<path d="M140.117,63.581c-4.142,0-7.5,3.358-7.5,7.5v14.602c0,4.142,3.358,7.5,7.5,7.5s7.5-3.358,7.5-7.5V71.081
			C147.617,66.939,144.259,63.581,140.117,63.581z"/>
		<path d="M292.099,63.581c-4.142,0-7.5,3.358-7.5,7.5v14.602c0,4.142,3.358,7.5,7.5,7.5s7.5-3.358,7.5-7.5V71.081
			C299.599,66.939,296.241,63.581,292.099,63.581z"/>
		<path d="M241.071,79.594c-3.123-2.722-7.86-2.396-10.582,0.727c-3.63,4.166-8.872,6.555-14.38,6.555s-10.75-2.389-14.38-6.555
			c-2.722-3.123-7.458-3.448-10.582-0.727c-3.123,2.721-3.448,7.459-0.727,10.582c6.48,7.435,15.843,11.7,25.689,11.7
			s19.209-4.264,25.689-11.7C244.518,87.053,244.193,82.316,241.071,79.594z"/>
		<path d="M251.041,428.401V202.23c0-19.262-15.671-34.933-34.933-34.933s-34.934,15.671-34.934,34.933v226.171
			c0,19.262,15.671,34.933,34.934,34.933S251.041,447.664,251.041,428.401z M196.175,428.401V202.23
			c0-10.991,8.942-19.933,19.934-19.933s19.933,8.942,19.933,19.933v226.171c0,10.991-8.942,19.933-19.933,19.933
			S196.175,439.393,196.175,428.401z"/>
		<path d="M156.071,428.401V202.23c0-19.262-15.671-34.933-34.933-34.933c-19.263,0-34.934,15.671-34.934,34.933v226.171
			c0,19.262,15.671,34.933,34.934,34.933C140.4,463.334,156.071,447.664,156.071,428.401z M101.204,428.401V202.23
			c0-10.991,8.942-19.933,19.934-19.933s19.933,8.942,19.933,19.933v226.171c0,10.991-8.942,19.933-19.933,19.933
			S101.204,439.393,101.204,428.401z"/>
		<path d="M346.012,428.401V202.23c0-19.262-15.671-34.933-34.933-34.933c-19.263,0-34.934,15.671-34.934,34.933v226.171
			c0,19.262,15.671,34.933,34.934,34.933C330.341,463.334,346.012,447.664,346.012,428.401z M291.145,428.401V202.23
			c0-10.991,8.942-19.933,19.934-19.933s19.933,8.942,19.933,19.933v226.171c0,10.991-8.942,19.933-19.933,19.933
			S291.145,439.393,291.145,428.401z"/>
		<path d="M369.682,449.514c0,26.184-21.302,47.486-47.486,47.486H108.919c-26.184,0-47.486-21.302-47.486-47.486V252.418
			c0-4.142-3.358-7.5-7.5-7.5s-7.5,3.358-7.5,7.5v197.096c0,34.455,28.031,62.486,62.486,62.486h213.276
			c34.455,0,62.486-28.031,62.486-62.486v-24.123l44.728-26.878c10.77-6.472,20.42-14.634,28.683-24.259
			c2.698-3.143,2.338-7.878-0.805-10.576c-3.143-2.698-7.878-2.338-10.576,0.805c-7.216,8.405-15.637,15.529-25.029,21.172
			l-37.001,22.235v-48.7l15.5-9.314c18.484-11.108,29.967-31.404,29.967-52.969V236.72c0-9.842-8.008-17.85-17.851-17.85h-27.616
			v-41.743h27.616c32.86,0,59.593,26.733,59.593,59.593v60.188c0,15.221-3.514,30.618-10.162,44.527
			c-1.787,3.737-0.205,8.215,3.532,10.001c3.738,1.787,8.215,0.205,10.001-3.532c7.608-15.916,11.629-33.55,11.629-50.996V236.72
			c0-41.131-33.462-74.593-74.593-74.593h-27.616v-24.953c9.597-2.604,17.445-10.066,20.224-19.919
			c1.611-5.713,2.344-11.648,2.179-17.639v0c-0.888-32.08-26.737-57.208-58.847-57.208c-5.084,0-10.134,0.651-15.01,1.934
			c-5.519,1.453-11.161-0.953-14.036-5.986C305.671,14.697,280.361,0,253.14,0c-14.313,0-28.262,4.009-40.342,11.592
			c-4.146,2.603-9.505,2.603-13.651,0C187.067,4.009,173.117,0,158.806,0c-29.208,0-56.18,17.057-68.716,43.454
			c-2.022,4.259-6.05,7.043-10.766,7.448l-0.532,0.048c-29.76,2.812-52.831,27.497-53.664,57.421l-0.015,0.661
			c-0.13,7.712,2.788,15,8.216,20.521c3.674,3.737,8.179,6.34,13.104,7.653v85.498c0,4.142,3.358,7.5,7.5,7.5s7.5-3.358,7.5-7.5
			v-84.515h308.249V449.514z M412.298,233.87c1.572,0,2.851,1.278,2.851,2.85v60.188c0,16.33-8.696,31.7-22.694,40.111l-7.773,4.671
			V233.87H412.298z M390.469,113.183c-1.662,5.891-7.126,10.006-13.288,10.006H53.933c-3.756,0-7.275-1.475-9.908-4.153
			c-2.586-2.63-3.976-6.093-3.914-9.763l0.011-0.485c0.623-22.36,17.854-40.804,40.077-42.904l0.398-0.036
			c9.943-0.853,18.772-6.968,23.042-15.959C113.704,28.695,135.358,15,158.806,15c11.487,0,22.679,3.215,32.366,9.296
			c8.991,5.645,20.611,5.645,29.602,0C230.461,18.215,241.653,15,253.14,15c21.852,0,42.171,11.801,53.028,30.798
			c6.193,10.837,18.891,16.202,30.876,13.049c3.631-0.956,7.397-1.44,11.193-1.44c23.929,0,43.191,18.722,43.853,42.623v0
			C392.214,104.505,391.668,108.93,390.469,113.183z"/>
	</g>
</g>
<g>
</g>
<g>
</g>
<g>
</g>
<g>
</g>
<g>
</g>
<g>
</g>
<g>
</g>
<g>
</g>
<g>
</g>
<g>
</g>
<g>
</g>
<g>
</g>
<g>
</g>
<g>
</g>
<g>
</g>
</svg>
