<?xml version="1.0" encoding="iso-8859-1"?>
<!-- Generator: Adobe Illustrator 22.0.0, SVG Export Plug-In . SVG Version: 6.00 Build 0)  -->
<svg version="1.1" id="Capa_1" xmlns="http://www.w3.org/2000/svg" xmlns:xlink="http://www.w3.org/1999/xlink" x="0px" y="0px"
	 viewBox="0 0 512 512" style="enable-background:new 0 0 512 512;" xml:space="preserve">
<g>
	<g>
		<path style="fill:#FFF7E5;" d="M162.755,63.084c-5.781-5.507-13.459-8.578-21.443-8.578h-14.65c-5.882,0-9.638,6.275-6.858,11.459
			l29.772,55.522l44.264,14.619l21.169-23.248L162.755,63.084z"/>
		<polygon style="fill:#FFD4A2;" points="149.576,121.487 193.84,136.106 215.008,112.857 187.104,86.278 134.422,93.226 		"/>
		<path style="fill:#FF748F;" d="M88.236,189.906l9.056-47.065c2.93-9.21,10.919-15.898,20.502-17.161l137.781-18.171
			c7.287-0.961,14.627,1.342,20.059,6.293l49.25,44.894l-109.412,30.438L88.236,189.906z"/>
		<path style="fill:#F5385D;" d="M127.293,137.111c1.598-5.634,4.708-10.417,8.753-13.84l-18.252,2.407
			c-9.582,1.264-17.571,7.951-20.502,17.162l-9.057,47.065l30.031-0.183L127.293,137.111z"/>
		<path style="fill:#FFF7E5;" d="M28.841,295.387l24.182-76.006c5.033-15.819,18.755-27.305,35.213-29.476l236.647-31.211
			c12.516-1.651,25.123,2.305,34.453,10.809l84.589,77.109l-187.922,52.28L28.841,295.387z"/>
		<path style="fill:#FFD4A2;" d="M58.841,294.216l24.182-79.708c3.631-11.969,11.785-21.57,22.226-26.847l-17.013,2.244
			c-16.458,2.17-30.18,13.656-35.213,29.476l-24.182,76.005L58.841,294.216z"/>
		<path style="fill:#9AE0EB;" d="M218.791,294.23L67.536,307.7l24.179-76.009c0.264-0.822,0.974-1.421,1.827-1.533l115.434-15.226
			l9.775,79.033C218.761,294.058,218.771,294.139,218.791,294.23z"/>
		<path style="fill:#9AE0EB;" d="M416.568,276.619l-162.442,14.465c-0.01-0.487-0.051-0.985-0.112-1.482l-9.826-79.308
			l86.007-11.348c0.091-0.01,0.193-0.01,0.294-0.01c0.548,0,1.076,0.203,1.492,0.579L416.568,276.619z"/>
		<path style="fill:#475066;" d="M499.225,297.976c-10.496,44.937-31.406,82.302-50.936,109.536
			c-22.474,31.345-58.62,49.982-97.183,49.982H81.635c-20.829,0-39.923-11.856-48.937-30.635
			c-12.079-25.164-18.515-50.226-21.865-71.492l245.17-56.475L499.225,297.976z"/>
		<path style="fill:#FF748F;" d="M504.341,268.711c-1.177,10.07-2.913,19.835-5.116,29.265L10.834,355.368
			c-2.152-13.663-3.035-25.752-3.319-35.274c-0.376-12.526,8.882-23.245,21.327-24.707l449.383-52.804
			C493.318,240.807,506.097,253.607,504.341,268.711z"/>
		<path style="fill:#303646;" d="M81.635,457.494h30c-20.829,0-39.923-12.403-48.937-32.047
			c-12.079-26.324-18.515-52.542-21.865-74.789c-0.108-0.715-0.21-1.422-0.311-2.129c0,0-29.686,6.838-29.69,6.839
			c-0.741,0.297,2.858,15.361,3.132,16.603c4.168,18.917,10.347,37.417,18.734,54.888C41.712,445.638,60.806,457.494,81.635,457.494
			z"/>
		<path style="fill:#F5385D;" d="M10.834,355.368l30.183-3.547c-0.06-0.386-0.126-0.779-0.183-1.163
			c-2.152-14.292-3.035-26.939-3.319-36.9c-0.235-8.188,3.292-15.637,9.007-20.448c0,0-17.677,2.077-17.68,2.077
			c-12.331,1.363-21.804,12.275-21.327,24.707C7.968,331.901,8.995,343.697,10.834,355.368z"/>
		<g>
			<ellipse style="fill:#FFA0AB;" cx="151.788" cy="409.633" rx="34.161" ry="27.204"/>
			<ellipse style="fill:#FFA0AB;" cx="336.952" cy="409.633" rx="34.161" ry="27.204"/>
		</g>
	</g>
	<g>
		<path d="M171.694,356.27c-13.101,0-23.76,10.659-23.76,23.76c0,4.142,3.358,7.5,7.5,7.5s7.5-3.358,7.5-7.5
			c0-4.83,3.93-8.76,8.76-8.76s8.76,3.93,8.76,8.76c0,4.142,3.358,7.5,7.5,7.5s7.5-3.358,7.5-7.5
			C195.454,366.929,184.795,356.27,171.694,356.27z"/>
		<path d="M317.04,356.27c-13.101,0-23.76,10.659-23.76,23.76c0,4.142,3.358,7.5,7.5,7.5s7.5-3.358,7.5-7.5
			c0-4.83,3.93-8.76,8.76-8.76s8.76,3.93,8.76,8.76c0,4.142,3.358,7.5,7.5,7.5s7.5-3.358,7.5-7.5
			C340.799,366.929,330.141,356.27,317.04,356.27z"/>
		<path d="M266.542,393.381c-3.123-2.721-7.861-2.397-10.582,0.726c-2.928,3.359-7.153,5.285-11.594,5.285
			s-8.666-1.926-11.594-5.285c-2.722-3.122-7.459-3.447-10.582-0.726c-3.123,2.721-3.448,7.459-0.726,10.582
			c5.776,6.628,14.124,10.43,22.901,10.43s17.125-3.801,22.901-10.43C269.99,400.84,269.665,396.102,266.542,393.381z"/>
		<path d="M502.88,243.991c-6.753-6.743-16.059-9.973-25.534-8.857l-30.9,3.631l-82.06-74.803
			c-10.094-9.202-23.369-13.842-36.89-13.031l-46.813-42.673c-7.082-6.456-16.595-9.44-26.092-8.186l-37.01,4.881l-49.656-47.3
			c-7.208-6.866-16.661-10.647-26.616-10.647c0,0-14.637,0-14.65,0c-11.337,0-18.833,12.498-13.468,22.503l24.646,45.961
			l-21.026,2.773c-12.406,1.636-22.874,10.398-26.668,22.322c-0.089,0.281-0.162,0.567-0.218,0.857l-8.095,42.072
			c-16.833,4.155-30.631,16.876-35.956,33.612l-22.847,71.809C9.189,292.778-0.43,305.495,0.015,320.318
			c1.131,37.742,9.551,75.689,25.919,109.788c10.173,21.194,32.036,34.889,55.698,34.889h269.471
			c40.826,0,79.434-19.855,103.278-53.112c30.099-41.973,51.383-90.768,57.407-142.305
			C512.893,260.074,509.646,250.748,502.88,243.991z M126.417,62.143c0.082-0.137,0.149-0.137,0.242-0.137h14.65
			c6.086,0,11.864,2.312,16.271,6.509l40.898,38.958l-44.745,5.901l-27.322-50.952C126.367,62.339,126.335,62.28,126.417,62.143z
			 M252.544,216.756l76.189-10.053l44.598,40.653l-115.317,13.55L252.544,216.756z M60.167,221.655
			c4.132-12.988,15.534-22.532,29.047-24.314l46.565-6.141c3.85-0.508,6.631-3.851,6.517-7.651
			c-0.008-0.253-0.028-0.509-0.062-0.766c-0.542-4.106-4.303-6.996-8.416-6.455l-36.254,4.782l7-36.378
			c2.139-6.214,7.674-10.755,14.209-11.617l137.781-18.171c5.109-0.673,10.219,0.931,14.025,4.401l37.327,34.025l-145.229,19.154
			c-4.107,0.542-6.997,4.31-6.455,8.416c0.542,4.107,4.311,6.999,8.416,6.455l161.225-21.263
			c10.347-1.364,20.706,1.885,28.419,8.917l72.442,66.036l-33.667,3.956l-56.047-51.089c-1.794-1.621-4.11-2.514-6.521-2.514
			c-0.391,0-87.282,11.423-87.282,11.423c-4.083,0.539-6.969,4.27-6.462,8.358l6.373,51.441l-20.387,2.396
			c0,0-6.309-51.012-6.313-51.041c-0.506-4.09-4.336-7.056-8.424-6.515L92.568,222.722c-3.71,0.484-6.85,3.105-8.003,6.696
			l-17.141,53.884l-27.914,3.28L60.167,221.655z M97.843,237.156l104.614-13.799l5.374,43.446L83.776,281.38L97.843,237.156z
			 M442.191,403.142c-21.034,29.338-55.085,46.853-91.088,46.853H81.632c-17.928,0-34.482-10.355-42.175-26.38
			c-9.103-18.964-15.782-39.692-19.894-61.721c0,0,368.857-43.345,369.158-43.38c4.028-0.473,7.048-4.299,6.573-8.324
			c-0.483-4.114-4.204-7.056-8.324-6.574L17.21,347.067c-1.195-9.11-1.934-18.229-2.202-27.197
			c-0.261-8.695,6.061-16.018,14.706-17.033c0,0,415.084-48.774,415.086-48.774l34.298-4.03c4.895-0.575,9.696,1.092,13.184,4.574
			c3.5,3.495,5.18,8.321,4.608,13.234c-0.909,7.775-2.194,15.594-3.829,23.309c0,0-76.971,9.044-77.054,9.054
			c-4.009,0.471-7.046,4.307-6.573,8.325c0.478,4.063,4.263,7.049,8.324,6.573l71.504-8.403
			C480.068,339.968,464.263,372.362,442.191,403.142z"/>
	</g>
</g>
<g>
</g>
<g>
</g>
<g>
</g>
<g>
</g>
<g>
</g>
<g>
</g>
<g>
</g>
<g>
</g>
<g>
</g>
<g>
</g>
<g>
</g>
<g>
</g>
<g>
</g>
<g>
</g>
<g>
</g>
</svg>
