<svg xmlns="http://www.w3.org/2000/svg" viewBox="0 0 512 512"><title>Retail - Lineal Color</title><g id="_3_Credit_card" data-name="3 Credit card"><rect x="44.93" y="95.11" width="381.3" height="246.45" rx="26.81" ry="26.81" transform="translate(-85.39 230.53) rotate(-45)" style="fill:#8cbafa"/><path d="M438.57,151.7l-17-17c9.32,9.32,8.39,25.37-2.08,35.84l-231.7,231.7c-10.47,10.47-26.52,11.4-35.84,2.08l17,17a26.81,26.81,0,0,0,37.92,0l231.7-231.7A26.81,26.81,0,0,0,438.57,151.7Z" style="fill:#5692d8"/><path d="M78.88,338.77a7.48,7.48,0,0,1-5.3-2.2L27.29,290.28a34.35,34.35,0,0,1,0-48.52L211.08,58a7.5,7.5,0,1,1,10.61,10.61L37.9,252.36a19.33,19.33,0,0,0,0,27.31L84.19,326a7.5,7.5,0,0,1-5.3,12.8Z"/><path d="M187.9,436.66a34.21,34.21,0,0,1-24.26-10A7.5,7.5,0,1,1,174.25,416a19.34,19.34,0,0,0,27.31,0l231.7-231.7a19.31,19.31,0,0,0,0-27.31L296.91,20.66a19.31,19.31,0,0,0-27.31,0L242.89,47.37a7.5,7.5,0,0,1-10.61-10.61L259,10a34.31,34.31,0,0,1,48.53,0L443.87,146.4a34.31,34.31,0,0,1,0,48.52L212.17,426.63A34.21,34.21,0,0,1,187.9,436.66Z"/><path d="M77.15,275.66a7.5,7.5,0,0,1-5.3-12.8L185.34,149.36A7.5,7.5,0,1,1,195.94,160L82.45,273.46A7.48,7.48,0,0,1,77.15,275.66Z"/><path d="M113.22,311.73a7.5,7.5,0,0,1-5.3-12.8L221.4,185.43A7.5,7.5,0,0,1,232,196L118.52,309.53A7.48,7.48,0,0,1,113.22,311.73Z"/><rect x="226.41" y="72.82" width="77.82" height="45.71" rx="22.86" ry="22.86" transform="translate(10.06 215.63) rotate(-45)" style="fill:#ffcd34"/><path d="M254,137.38a30.36,30.36,0,0,1-21.46-51.82l22.7-22.7h0a30.36,30.36,0,0,1,42.93,42.93l-22.7,22.7A30.16,30.16,0,0,1,254,137.38Zm11.84-63.92-22.7,22.7a15.36,15.36,0,1,0,21.72,21.72l22.7-22.7a15.36,15.36,0,1,0-21.72-21.72Z"/><rect x="105.95" y="258.05" width="381.3" height="246.45" rx="26.81" ry="26.81" style="fill:#ffcd34"/><path d="M460.45,258h-24a26.81,26.81,0,0,1,26.81,26.81V477.69a26.81,26.81,0,0,1-26.81,26.81h24a26.81,26.81,0,0,0,26.81-26.81V284.86A26.81,26.81,0,0,0,460.45,258Z" style="fill:#e69012"/><path d="M460.45,512H132.77a34.35,34.35,0,0,1-34.31-34.31V284.86a34.35,34.35,0,0,1,34.31-34.31H460.45a34.35,34.35,0,0,1,34.31,34.31V420a7.5,7.5,0,0,1-15,0V284.86a19.33,19.33,0,0,0-19.31-19.31H132.77a19.33,19.33,0,0,0-19.31,19.31V477.69A19.33,19.33,0,0,0,132.77,497H460.45a19.33,19.33,0,0,0,19.31-19.31V450a7.5,7.5,0,0,1,15,0v27.72A34.35,34.35,0,0,1,460.45,512Z"/><rect x="105.95" y="318.63" width="381.3" height="46.32" style="fill:#575b7a"/><rect x="463.26" y="318.63" width="24" height="46.32" style="fill:#252d4c"/><path d="M487.26,372.45H106a7.5,7.5,0,0,1-7.5-7.5V318.63a7.5,7.5,0,0,1,7.5-7.5h381.3a7.5,7.5,0,0,1,7.5,7.5v46.32A7.5,7.5,0,0,1,487.26,372.45Zm-373.8-15h366.3V326.13H113.45Z"/><rect x="393.54" y="434.97" width="53.45" height="36.57" rx="4" ry="4" style="fill:#e9e9ea"/><path d="M443,479H397.54a11.51,11.51,0,0,1-11.5-11.5V439a11.51,11.51,0,0,1,11.5-11.5H443a11.51,11.51,0,0,1,11.5,11.5v28.57A11.51,11.51,0,0,1,443,479ZM401,464h38.45V442.47H401ZM443,442.47h0Z"/><rect x="256.52" y="434.97" width="104.12" height="36.57" rx="4" ry="4" style="fill:#e9e9ea"/><path d="M356.64,479H260.52a11.51,11.51,0,0,1-11.5-11.5V439a11.51,11.51,0,0,1,11.5-11.5h96.12a11.51,11.51,0,0,1,11.5,11.5v28.57A11.51,11.51,0,0,1,356.64,479ZM264,464h89.12V442.47H264Zm92.62-21.57h0Z"/><path d="M217.34,479H169.45a7.5,7.5,0,1,1,0-15h47.89a7.5,7.5,0,1,1,0,15Z"/></g></svg>