<svg xmlns="http://www.w3.org/2000/svg" viewBox="0 0 512 512"><title>Retail - Lineal Color</title><g id="_41_Men_s_Fashion" data-name="41 Men&apos;s Fashion"><path d="M401.54,42.48H196.1a96,96,0,0,0-47.3,12.46l-6.93,3.92a96,96,0,0,0-48.73,83.57V392.58h50.24V177.74a17,17,0,0,1,9.4-15.22h0a17,17,0,0,1,24.61,14.16s4.49,47.75,4.89,63.72c.85,33.94-2.85,154.39-3.92,188.15a8.58,8.58,0,0,0,8.58,8.85H410.69a8.58,8.58,0,0,0,8.58-8.85c-1.07-33.76-4.77-154.21-3.92-188.15.4-16,4.89-63.72,4.89-63.72a17,17,0,0,1,24.61-14.16h0a17,17,0,0,1,9.4,15.22V392.58H504.5V142.43a96,96,0,0,0-48.73-83.57l-6.93-3.92A96,96,0,0,0,401.54,42.48Z" style="fill:#6a7193"/><path d="M420.24,176.67A16.83,16.83,0,0,1,425,165.91a17,17,0,0,0-4.62-3.4h0a17,17,0,0,0-24.61,14.16s-4.49,47.75-4.89,63.72c-.85,33.94,2.85,154.39,3.92,188.15a8.58,8.58,0,0,1-8.58,8.85h24.5a8.58,8.58,0,0,0,8.58-8.85c-1.07-33.76-4.77-154.21-3.92-188.15C415.75,224.42,420.24,176.67,420.24,176.67Z" style="fill:#575b7a"/><path d="M455.77,58.86l-6.93-3.92a96,96,0,0,0-47.3-12.46H377a96,96,0,0,1,47.3,12.46l6.93,3.92A96,96,0,0,1,480,142.43V392.58h24.5V142.43A96,96,0,0,0,455.77,58.86Z" style="fill:#575b7a"/><path d="M143.38,400.08H93.15a7.5,7.5,0,0,1-7.5-7.5V142.43a103.69,103.69,0,0,1,52.53-90.09l6.93-3.92A103.73,103.73,0,0,1,196.1,35H401.54a103.73,103.73,0,0,1,51,13.43l3,1.69a7.5,7.5,0,1,1-7.39,13.05l-3-1.69A88.7,88.7,0,0,0,401.54,50H196.1a88.7,88.7,0,0,0-43.6,11.48l-6.93,3.92a88.66,88.66,0,0,0-44.92,77V385.08h35.24V177.74a24.53,24.53,0,0,1,49-1.67c.29,3.12,4.52,48.31,4.92,64.13.1,4.09.14,9.62.12,16.43a7.5,7.5,0,0,1-7.5,7.48h0a7.5,7.5,0,0,1-7.48-7.52c0-6.67,0-12.06-.12-16-.39-15.53-4.82-62.73-4.86-63.21,0-.08,0-.16,0-.23a9.53,9.53,0,0,0-13.77-7.92,9.47,9.47,0,0,0-5.26,8.52V392.58A7.5,7.5,0,0,1,143.38,400.08Z"/><path d="M410.69,444.89H187a16.09,16.09,0,0,1-16.08-16.6l.2-6.39a7.5,7.5,0,0,1,15,.47l-.2,6.4a1.09,1.09,0,0,0,1.09,1.12H410.69a1.07,1.07,0,0,0,.78-.33,1,1,0,0,0,.3-.78c-1.14-35.65-4.77-154.62-3.92-188.57.4-15.83,4.62-61,4.92-64.13a24.53,24.53,0,0,1,49,1.67V385.08H497V142.43a89.11,89.11,0,0,0-26.13-62.79A7.5,7.5,0,0,1,481.45,69,104.22,104.22,0,0,1,512,142.43V392.58a7.5,7.5,0,0,1-7.5,7.5H454.26a7.5,7.5,0,0,1-7.5-7.5V177.74a9.48,9.48,0,0,0-5.26-8.52,9.53,9.53,0,0,0-13.77,7.92c0,.08,0,.16,0,.23,0,.47-4.47,47.68-4.86,63.21-.84,33.56,2.79,152.17,3.92,187.72a16.08,16.08,0,0,1-16.08,16.59Z"/><path d="M298.82,444.89a7.5,7.5,0,0,1-7.5-7.5V239.17a7.5,7.5,0,0,1,15,0V437.39A7.5,7.5,0,0,1,298.82,444.89Z"/><path d="M216.6,170.17l82.23,86.44,82.23-86.44-18.33-43,22.25-14-10.78-60A36.79,36.79,0,0,0,338,22.88H259.67a36.79,36.79,0,0,0-36.21,30.29l-10.78,60,22.25,14Z" style="fill:#e9e9ea"/><path d="M298.82,264.11a7.5,7.5,0,0,1-5.43-2.33l-82.23-86.44a7.5,7.5,0,0,1-1.46-8.11l15.82-37.08-16.84-10.62a7.5,7.5,0,0,1-3.38-7.67l10.78-60a44.25,44.25,0,0,1,43.59-36.46H338a44.25,44.25,0,0,1,43.59,36.46l10.78,60a7.5,7.5,0,0,1-3.38,7.67l-16.84,10.62,15.82,37.08a7.5,7.5,0,0,1-1.46,8.11l-82.23,86.44A7.5,7.5,0,0,1,298.82,264.11Zm-73.39-95.53,73.39,77.15,73.39-77.15-16.39-38.42a7.5,7.5,0,0,1,2.9-9.29l18-11.33-9.89-55.05A29.27,29.27,0,0,0,338,30.38H259.67a29.27,29.27,0,0,0-28.83,24.11l-9.89,55.05,18,11.33a7.5,7.5,0,0,1,2.9,9.29Z"/><path d="M318.72,42.48h-39.8a30.7,30.7,0,0,0-30,37.29c13.48,61.13,49.9,159.41,49.9,159.41s36.42-98.27,49.9-159.41A30.7,30.7,0,0,0,318.72,42.48Z" style="fill:#252d4c"/><path d="M298.82,246.67h0a7.5,7.5,0,0,1-7-4.89c-.37-1-36.76-99.46-50.19-160.4A38.2,38.2,0,0,1,278.93,35h39.8A38.2,38.2,0,0,1,356,81.38c-13.44,60.93-49.83,159.41-50.19,160.4A7.5,7.5,0,0,1,298.82,246.67ZM278.93,50a23.2,23.2,0,0,0-22.68,28.17c9.62,43.63,31.34,107.18,42.58,138.9,11.24-31.72,33-95.27,42.58-138.9A23.2,23.2,0,0,0,318.72,50Z"/><path d="M334.4,303.45h-2.8a7.5,7.5,0,0,1,0-15h2.8a7.5,7.5,0,0,1,0,15Z"/><path d="M334.4,349.67h-2.8a7.5,7.5,0,0,1,0-15h2.8a7.5,7.5,0,0,1,0,15Z"/><path d="M181.72,320.23h25.33A8.75,8.75,0,0,1,215.8,329v16.58a8.75,8.75,0,0,1-8.75,8.75H181.72a0,0,0,0,1,0,0V320.23A0,0,0,0,1,181.72,320.23Z" style="fill:#8cbafa"/><path d="M207.05,361.82H181.72a7.5,7.5,0,0,1-7.5-7.5V320.23a7.5,7.5,0,0,1,7.5-7.5h25.33A16.27,16.27,0,0,1,223.3,329v16.58A16.27,16.27,0,0,1,207.05,361.82Zm-17.83-15h17.83a1.25,1.25,0,0,0,1.25-1.25V329a1.25,1.25,0,0,0-1.25-1.25H189.22Z"/><rect x="43.65" y="185.43" width="111.99" height="303.7" rx="4.09" ry="4.09" style="fill:#f9aa4b"/><path d="M151.54,185.43h-24a4.09,4.09,0,0,1,4.09,4.09V485a4.09,4.09,0,0,1-4.09,4.09h24a4.09,4.09,0,0,0,4.09-4.09V189.52A4.09,4.09,0,0,0,151.54,185.43Z" style="fill:#c1762b"/><path d="M43.65,291V425.54a92.15,92.15,0,0,0,112,10.76V280.25A92.15,92.15,0,0,0,43.65,291Z" style="fill:#c1762b"/><path d="M151.54,496.63h-36.9a7.5,7.5,0,1,1,0-15h33.49V192.93h-97v288.7H84.64a7.5,7.5,0,0,1,0,15H47.74A11.61,11.61,0,0,1,36.15,485V189.52a11.61,11.61,0,0,1,11.59-11.59h103.8a11.61,11.61,0,0,1,11.59,11.59V485A11.61,11.61,0,0,1,151.54,496.63Z"/><circle cx="99.64" cy="337.28" r="92.14" style="fill:#e9e9ea"/><path d="M136.15,252.65A92.16,92.16,0,0,1,43.48,410.32a92.15,92.15,0,1,0,92.67-157.67Z" style="fill:#c5c4cc"/><path d="M99.64,436.92a99.64,99.64,0,1,1,99.64-99.64A99.76,99.76,0,0,1,99.64,436.92Zm0-184.29a84.64,84.64,0,1,0,84.64,84.64A84.74,84.74,0,0,0,99.64,252.63Z"/><path d="M123.26,344.78H99.64a7.5,7.5,0,0,1-7.5-7.5V283.2a7.5,7.5,0,0,1,15,0v46.58h16.12a7.5,7.5,0,1,1,0,15Z"/></g></svg>