<?xml version="1.0" encoding="iso-8859-1"?>
<!-- Generator: Adobe Illustrator 23.0.6, SVG Export Plug-In . SVG Version: 6.00 Build 0)  -->
<svg version="1.1" id="Capa_1" xmlns="http://www.w3.org/2000/svg" xmlns:xlink="http://www.w3.org/1999/xlink" x="0px" y="0px"
	 viewBox="0 0 512 512" style="enable-background:new 0 0 512 512;" xml:space="preserve">
<g>
	<g>
		<rect x="119.726" y="135.758" style="fill:#5D5360;" width="272.548" height="240.484"/>
		<polygon style="fill:#4B3F4E;" points="392.274,376.242 119.726,376.242 119.726,351.569 165.187,351.569 166.875,342.875 
			203,342.875 205.25,351.569 392.274,351.569 		"/>
		<path style="fill:#A4CCFF;" d="M39.565,376.242h80.161V135.758H39.565c-17.709,0-32.065,14.356-32.065,32.065v176.355
			C7.5,361.886,21.856,376.242,39.565,376.242z"/>
		<path style="fill:#FF8086;" d="M472.435,135.758h-80.161v240.484h80.161c17.709,0,32.065-14.356,32.065-32.065V167.823
			C504.5,150.114,490.144,135.758,472.435,135.758z"/>
		<circle style="fill:#5D5360;" cx="63.613" cy="199.887" r="24.048"/>
		<rect x="151.79" y="167.823" style="fill:#B3E59F;" width="208.419" height="176.355"/>
		<path style="fill:#4B3F4E;" d="M75.637,211.911c-13.282,0-24.048-10.767-24.048-24.048c0-3.524,0.8-6.846,2.162-9.862
			c-8.35,3.771-14.186,12.129-14.186,21.886c0,13.282,10.767,24.048,24.048,24.048c9.757,0,18.116-5.836,21.886-14.186
			C82.483,211.111,79.161,211.911,75.637,211.911z"/>
		<circle style="fill:#5D5360;" cx="448.387" cy="288.065" r="24.048"/>
		<path style="fill:#4B3F4E;" d="M460.411,300.089c-13.282,0-24.048-10.767-24.048-24.048c0-3.524,0.8-6.846,2.162-9.862
			c-8.35,3.771-14.186,12.129-14.186,21.886c0,13.282,10.767,24.048,24.048,24.048c9.757,0,18.116-5.836,21.886-14.186
			C467.258,299.289,463.935,300.089,460.411,300.089z"/>
		<path style="fill:#CCF49F;" d="M312.113,320.129H199.887c-13.282,0-24.048-10.767-24.048-24.048v-80.161
			c0-13.282,10.767-24.048,24.048-24.048h112.226c13.282,0,24.048,10.767,24.048,24.048v80.161
			C336.161,309.362,325.394,320.129,312.113,320.129z"/>
		<path style="fill:#8BB3EA;" d="M32.111,320.129V136.892C18.306,140.467,7.5,152.899,7.5,167.823v176.355
			c0,17.708,14.355,32.065,32.065,32.065h80.161v-24.048h-55.55C46.495,352.194,32.111,337.81,32.111,320.129z"/>
		<path style="fill:#E5646E;" d="M503.367,352.194H392.274v24.048h80.161C487.359,376.242,499.79,365.999,503.367,352.194z"/>
	</g>
	<g>
		<path d="M472.436,128.258H39.564C17.749,128.258,0,146.007,0,167.822v176.355c0,21.815,17.749,39.564,39.564,39.564h432.871
			c21.816,0,39.564-17.749,39.564-39.564V167.822C512,146.007,494.251,128.258,472.436,128.258z M15,344.178V167.822
			c0-13.545,11.02-24.564,24.564-24.564h72.662v225.484H39.564C26.02,368.742,15,357.723,15,344.178z M497,344.178
			c0,13.545-11.02,24.564-24.564,24.564h-72.662V183.854c0-4.143-3.358-7.5-7.5-7.5s-7.5,3.357-7.5,7.5v184.888H127.226V143.258
			h257.548v8.535c0,4.143,3.358,7.5,7.5,7.5s7.5-3.357,7.5-7.5v-8.535h72.662c13.545,0,24.564,11.02,24.564,24.564V344.178z"/>
		<path d="M63.613,231.436c17.396,0,31.548-14.152,31.548-31.548s-14.152-31.548-31.548-31.548s-31.548,14.152-31.548,31.548
			S46.217,231.436,63.613,231.436z M63.613,183.339c9.125,0,16.548,7.423,16.548,16.548c0,9.125-7.423,16.548-16.548,16.548
			s-16.548-7.424-16.548-16.548C47.064,190.762,54.488,183.339,63.613,183.339z"/>
		<path d="M63.613,248.5c-4.142,0-7.5,3.358-7.5,7.5v8.016c0,4.142,3.358,7.5,7.5,7.5s7.5-3.358,7.5-7.5V256
			C71.113,251.858,67.755,248.5,63.613,248.5z"/>
		<path d="M63.613,296.597c-4.142,0-7.5,3.358-7.5,7.5v8.016c0,4.142,3.358,7.5,7.5,7.5s7.5-3.358,7.5-7.5v-8.016
			C71.113,299.955,67.755,296.597,63.613,296.597z"/>
		<path d="M91.669,276.557h-8.016c-4.142,0-7.5,3.357-7.5,7.5c0,4.142,3.358,7.5,7.5,7.5h8.016c4.142,0,7.5-3.358,7.5-7.5
			C99.169,279.914,95.812,276.557,91.669,276.557z"/>
		<path d="M43.573,276.557h-8.016c-4.142,0-7.5,3.357-7.5,7.5c0,4.142,3.358,7.5,7.5,7.5h8.016c4.142,0,7.5-3.358,7.5-7.5
			C51.073,279.914,47.715,276.557,43.573,276.557z"/>
		<path d="M448.387,256.516c-17.396,0-31.548,14.153-31.548,31.548s14.152,31.548,31.548,31.548s31.548-14.153,31.548-31.548
			S465.783,256.516,448.387,256.516z M448.387,304.613c-9.125,0-16.548-7.423-16.548-16.548s7.423-16.548,16.548-16.548
			s16.548,7.423,16.548,16.548S457.512,304.613,448.387,304.613z"/>
		<path d="M448.387,239.452c4.142,0,7.5-3.358,7.5-7.5v-8.016c0-4.142-3.358-7.5-7.5-7.5s-7.5,3.358-7.5,7.5v8.016
			C440.887,236.094,444.245,239.452,448.387,239.452z"/>
		<path d="M448.387,191.354c4.142,0,7.5-3.357,7.5-7.5v-8.016c0-4.143-3.358-7.5-7.5-7.5s-7.5,3.357-7.5,7.5v8.016
			C440.887,187.997,444.245,191.354,448.387,191.354z"/>
		<path d="M428.347,211.396c4.142,0,7.5-3.358,7.5-7.5c0-4.143-3.358-7.5-7.5-7.5h-8.016c-4.142,0-7.5,3.357-7.5,7.5
			c0,4.142,3.358,7.5,7.5,7.5H428.347z"/>
		<path d="M476.443,196.396h-8.016c-4.142,0-7.5,3.357-7.5,7.5c0,4.142,3.358,7.5,7.5,7.5h8.016c4.142,0,7.5-3.358,7.5-7.5
			C483.943,199.753,480.585,196.396,476.443,196.396z"/>
		<path d="M360.209,160.322H151.791c-4.142,0-7.5,3.358-7.5,7.5v176.355c0,4.142,3.358,7.5,7.5,7.5h16.03c4.142,0,7.5-3.358,7.5-7.5
			c0-4.143-3.358-7.5-7.5-7.5h-8.53V175.322h193.419v161.355H199.886c-4.142,0-7.5,3.357-7.5,7.5c0,4.142,3.358,7.5,7.5,7.5h160.323
			c4.142,0,7.5-3.358,7.5-7.5V167.822C367.709,163.681,364.352,160.322,360.209,160.322z"/>
	</g>
</g>
<g>
</g>
<g>
</g>
<g>
</g>
<g>
</g>
<g>
</g>
<g>
</g>
<g>
</g>
<g>
</g>
<g>
</g>
<g>
</g>
<g>
</g>
<g>
</g>
<g>
</g>
<g>
</g>
<g>
</g>
</svg>
