<?xml version="1.0" encoding="iso-8859-1"?>
<!-- Generator: Adobe Illustrator 22.0.0, SVG Export Plug-In . SVG Version: 6.00 Build 0)  -->
<svg version="1.1" id="Capa_1" xmlns="http://www.w3.org/2000/svg" xmlns:xlink="http://www.w3.org/1999/xlink" x="0px" y="0px"
	 viewBox="0 0 512 512" style="enable-background:new 0 0 512 512;" xml:space="preserve">
<g>
	<g>
		<path style="fill:#FF9A9F;" d="M376.242,191.871H135.758c-8.854,0-16.032-7.178-16.032-16.032v0
			c0-8.854,7.178-16.032,16.032-16.032h240.484c8.854,0,16.032,7.178,16.032,16.032v0
			C392.274,184.693,385.096,191.871,376.242,191.871z"/>
		<path style="fill:#FF9A9F;" d="M320.129,71.629c-2.99,0-5.904,0.302-8.769,0.752c0.451-2.864,0.753-5.778,0.753-8.769
			C312.113,32.622,286.99,7.5,256,7.5s-56.113,25.122-56.113,56.113c0,2.99,0.302,5.904,0.752,8.769
			c-2.864-0.451-5.778-0.752-8.769-0.752c-30.99,0-56.113,25.122-56.113,56.113c0,30.99,25.123,56.113,56.113,56.113h128.258
			c30.99,0,56.113-25.123,56.113-56.113C376.242,96.751,351.119,71.629,320.129,71.629z"/>
		<path style="fill:#F6D190;" d="M175.839,272.032l22.561,218.085c0.845,8.172,7.731,14.382,15.947,14.382h83.307
			c8.216,0,15.102-6.211,15.947-14.382l22.561-218.085H175.839z"/>
		<path style="fill:#ECBD83;" d="M242.69,296.081h91.813l1.659-24.048H175.839l22.561,218.085
			c0.845,8.172,7.731,14.382,15.947,14.382h23.963l-19.53-181.802C217.252,308.481,228.391,296.081,242.69,296.081z"/>
		<path style="fill:#F6D190;" d="M143.774,191.871l6.572,65.724c0.82,8.196,7.716,14.437,15.953,14.437h179.401
			c8.237,0,15.133-6.242,15.953-14.437l6.572-65.724H143.774z"/>
		<path style="fill:#ECBD83;" d="M218.824,215.919h147.798l1.603-24.048H143.774l6.572,65.724
			c0.82,8.196,7.716,14.437,15.953,14.437h31.984l-3.352-29.334C193.301,228.428,204.461,215.919,218.824,215.919z"/>
		<path style="fill:#FF8086;" d="M187.125,159.806c-16.344-9.807-27.319-27.648-27.319-48.097c0-14.233,5.343-27.189,14.075-37.081
			c-22.156,7.504-38.124,28.423-38.124,53.113c0,11.931,3.752,22.972,10.1,32.065h-10.1c-8.854,0-16.032,7.178-16.032,16.032
			c0,8.854,7.179,16.032,16.032,16.032h56.113v-32.065H187.125z"/>
	</g>
	<g>
		<path d="M378.76,152.443c3.274-7.758,4.982-16.117,4.982-24.701c0-35.076-28.537-63.613-63.613-63.613
			c-0.176,0-0.352,0.009-0.528,0.01c0.002-0.174,0.012-0.353,0.012-0.526C319.613,28.537,291.076,0,256,0
			s-63.613,28.537-63.613,63.613c0,0.172,0.001,0.345,0.002,0.519c-0.173-0.001-0.346-0.002-0.519-0.002
			c-35.076,0-63.613,28.537-63.613,63.613c0,8.569,1.705,16.929,4.995,24.697c-11.803,1.254-21.028,11.27-21.028,23.4
			c0,12.976,10.557,23.532,23.533,23.532h1.229l5.897,58.97c1.208,12.081,11.274,21.191,23.416,21.191h2.776l21.864,211.357
			C192.184,502.924,202.247,512,214.346,512h83.308c12.1,0,22.162-9.076,23.407-21.11l21.865-211.357h2.776
			c12.141,0,22.208-9.11,23.416-21.191l5.897-58.97h1.229c12.976,0,23.533-10.557,23.533-23.532
			C399.774,163.714,390.556,153.704,378.76,152.443z M306.141,489.346c-0.452,4.363-4.1,7.654-8.487,7.654h-83.308
			c-4.387,0-8.035-3.291-8.487-7.654l-11.754-113.62h123.789L306.141,489.346z M324.422,312.629h-20.326c-4.142,0-7.5,3.358-7.5,7.5
			s3.358,7.5,7.5,7.5h18.774l-3.424,33.097H192.554l-3.424-33.097h82.901c4.142,0,7.5-3.358,7.5-7.5s-3.358-7.5-7.5-7.5h-84.453
			l-3.424-33.097h143.691L324.422,312.629z M354.19,256.849c-0.438,4.38-4.087,7.683-8.49,7.683H166.299
			c-4.402,0-8.052-3.303-8.49-7.683l-5.748-57.478h207.876L354.19,256.849z M376.242,184.371H135.758
			c-4.705,0-8.533-3.828-8.533-8.532s3.828-8.532,8.533-8.532h64.129c4.142,0,7.5-3.358,7.5-7.5s-3.358-7.5-7.5-7.5H149.95
			c-4.388-7.45-6.691-15.867-6.691-24.565c0-26.805,21.808-48.613,48.613-48.613c2.285,0,4.772,0.216,7.604,0.662
			c2.369,0.373,4.773-0.411,6.468-2.106s2.478-4.1,2.105-6.469c-0.445-2.827-0.661-5.314-0.661-7.603
			C207.387,36.808,229.195,15,256,15s48.613,21.808,48.613,48.613c0,0.788-0.035,1.611-0.087,2.452
			c-7.389,1.862-14.405,5.042-20.757,9.474c-3.397,2.37-4.229,7.045-1.859,10.442c2.37,3.397,7.045,4.23,10.442,1.859
			c8.169-5.699,17.774-8.712,27.777-8.712c26.805,0,48.613,21.808,48.613,48.613c0,8.72-2.291,17.138-6.653,24.565h-9.895
			c-4.142,0-7.5,3.358-7.5,7.5s3.358,7.5,7.5,7.5h24.048c4.705,0,8.533,3.828,8.533,8.532S380.947,184.371,376.242,184.371z"/>
		<path d="M293.368,138.471c-2.929-2.929-7.678-2.929-10.606,0c-2.929,2.929-2.929,7.678,0,10.606l8.016,8.016
			c1.464,1.464,3.384,2.197,5.303,2.197s3.839-0.732,5.303-2.197c2.929-2.929,2.929-7.678,0-10.606L293.368,138.471z"/>
		<path d="M178.552,114.422l-8.016,8.016c-2.929,2.929-2.929,7.678,0,10.606c1.464,1.464,3.384,2.197,5.303,2.197
			s3.839-0.732,5.303-2.197l8.016-8.016c2.929-2.929,2.929-7.678,0-10.606C186.229,111.494,181.48,111.494,178.552,114.422z"/>
		<path d="M264.016,40.081H256c-4.142,0-7.5,3.358-7.5,7.5s3.358,7.5,7.5,7.5h8.016c4.142,0,7.5-3.358,7.5-7.5
			S268.158,40.081,264.016,40.081z"/>
		<path d="M328.225,104.209h-0.08c-4.142,0-7.46,3.358-7.46,7.5s3.398,7.5,7.54,7.5s7.5-3.358,7.5-7.5
			S332.367,104.209,328.225,104.209z"/>
		<path d="M237.255,82.358c-2.929-2.929-7.678-2.929-10.606,0c-2.929,2.929-2.929,7.678,0,10.606l8.016,8.016
			c1.464,1.464,3.384,2.197,5.303,2.197s3.839-0.732,5.303-2.197c2.929-2.929,2.929-7.678,0-10.606L237.255,82.358z"/>
		<path d="M239.968,128.258h-0.08c-4.142,0-7.46,3.358-7.46,7.5s3.398,7.5,7.54,7.5s7.5-3.358,7.5-7.5
			S244.11,128.258,239.968,128.258z"/>
	</g>
</g>
<g>
</g>
<g>
</g>
<g>
</g>
<g>
</g>
<g>
</g>
<g>
</g>
<g>
</g>
<g>
</g>
<g>
</g>
<g>
</g>
<g>
</g>
<g>
</g>
<g>
</g>
<g>
</g>
<g>
</g>
</svg>
