<svg xmlns="http://www.w3.org/2000/svg" viewBox="0 0 512 512"><title>Retail - Lineal</title><g id="_1_Shopping_cart" data-name="1 Shopping cart"><path d="M28.6,82.75a7.5,7.5,0,0,0-7.5,7.5V456.68a20.6,20.6,0,0,0,20.58,20.58h4.93V502.5a9.51,9.51,0,0,0,9.5,9.5H81a9.51,9.51,0,0,0,9.5-9.3h26.62a7.5,7.5,0,0,0,0-15H85a9.51,9.51,0,0,0-9.5,9.3H61.61V477.26h77.22v9.59A25.18,25.18,0,0,0,164,512H465.75a25.18,25.18,0,0,0,25.15-25.15V378.21a7.5,7.5,0,0,0-15,0V486.85A10.16,10.16,0,0,1,465.75,497h-74V303.55h74A10.16,10.16,0,0,1,475.9,313.7v34.51a7.5,7.5,0,0,0,15,0V313.7a25.18,25.18,0,0,0-25.15-25.15H341.65v-268A20.6,20.6,0,0,0,321.07,0H41.68A20.6,20.6,0,0,0,21.1,20.58V60.25a7.5,7.5,0,0,0,15,0V20.58A5.59,5.59,0,0,1,41.68,15H321.07a5.59,5.59,0,0,1,5.58,5.58V141.8H36.1V90.25A7.5,7.5,0,0,0,28.6,82.75ZM376.78,497H164a10.16,10.16,0,0,1-10.15-10.15V313.7A10.16,10.16,0,0,1,164,303.55H376.78ZM326.65,288.55H164a25.14,25.14,0,0,0-25.15,25.15V462.26H41.68a5.59,5.59,0,0,1-5.58-5.58V199.5H88.34a11.43,11.43,0,0,0,8.13-3.37l17-17H326.65Zm0-131.75v7.37H112a11.43,11.43,0,0,0-8.13,3.37l-17,17H36.1V156.8Z"/><path d="M79.69,117.79V75.25a7.5,7.5,0,0,0-15,0v42.54a7.5,7.5,0,0,0,15,0Z"/><path d="M72.19,211.28a7.5,7.5,0,0,0-7.5,7.5v42.54a7.5,7.5,0,0,0,15,0V218.78A7.5,7.5,0,0,0,72.19,211.28Z"/><path d="M160.74,478.59a11.51,11.51,0,0,0,11.5,11.5H358.37a11.51,11.51,0,0,0,11.5-11.5V322a11.51,11.51,0,0,0-11.5-11.5H221.42a7.5,7.5,0,0,0,0,15H354.87V475.09H175.74V325.46h15.68a7.5,7.5,0,0,0,0-15H172.24a11.51,11.51,0,0,0-11.5,11.5Z"/><path d="M458.6,363.21A24.76,24.76,0,1,0,433.84,388,24.79,24.79,0,0,0,458.6,363.21Zm-34.52,0a9.76,9.76,0,1,1,9.76,9.76A9.77,9.77,0,0,1,424.08,363.21Z"/><path d="M421.63,408.48h-7.4a7.5,7.5,0,0,0,0,15h7.4a7.5,7.5,0,0,0,0-15Z"/><path d="M453.44,408.48H446a7.5,7.5,0,0,0,0,15h7.4a7.5,7.5,0,0,0,0-15Z"/><path d="M421.63,437.08h-7.4a7.5,7.5,0,0,0,0,15h7.4a7.5,7.5,0,0,0,0-15Z"/><path d="M453.44,437.08H446a7.5,7.5,0,0,0,0,15h7.4a7.5,7.5,0,0,0,0-15Z"/></g></svg>