<?xml version="1.0" encoding="iso-8859-1"?>
<!-- Generator: Adobe Illustrator 22.0.0, SVG Export Plug-In . SVG Version: 6.00 Build 0)  -->
<svg version="1.1" id="Capa_1" xmlns="http://www.w3.org/2000/svg" xmlns:xlink="http://www.w3.org/1999/xlink" x="0px" y="0px"
	 viewBox="0 0 512 512" style="enable-background:new 0 0 512 512;" xml:space="preserve">
<g>
	<path style="fill:#838383;" d="M265.914,504.509h-19.835c-7.575,0-13.716-6.141-13.716-13.716v-23.276h47.267v23.276
		C279.63,498.369,273.489,504.509,265.914,504.509z"/>
	<path style="fill:#5A5A5A;" d="M279.626,467.514v23.28c0,7.57-6.142,13.713-13.713,13.713h-19.835c-0.19,0-0.39,0-0.579-0.02
		c7.301-0.29,13.133-6.312,13.133-13.693v-23.28H279.626z"/>
	<g>
		<g>
			<path style="fill:#ACACAC;" d="M282.262,467.319h-52.531c-15.3,0-27.703-12.403-27.703-27.703v-36.35h107.937v36.35
				C309.965,454.916,297.562,467.319,282.262,467.319z"/>
		</g>
		<g>
			<path style="fill:#9C9C9C;" d="M309.968,403.265v36.354c0,15.301-12.404,27.695-27.705,27.695h-23.63
				c15.291,0,27.695-12.394,27.695-27.695v-36.354H309.968z"/>
		</g>
		<g>
			<path style="fill:#FFD86E;" d="M436.418,187.936c0-117.637-112.584-208.979-235.881-172.155
				C144.739,32.445,100.812,76.195,84,131.948c-29.675,98.41,22.347,190.083,104.308,223.278
				c8.343,3.379,13.721,11.579,13.721,20.58v27.385h107.937v-27.387c0-9.012,5.397-17.205,13.75-20.59
				C389.803,328.435,436.418,263.631,436.418,187.936z"/>
		</g>
		<g>
			<path style="fill:#FFB509;" d="M436.418,187.938c0,75.688-46.614,140.494-112.7,167.273c-8.352,3.384-13.749,11.578-13.749,20.59
				v27.395h-23.64V360.92c0-9.012,5.398-17.206,13.75-20.59c66.094-26.779,112.709-91.584,112.709-167.273
				c0-59.345-28.654-112.008-72.878-144.896C397.287,58.372,436.418,118.586,436.418,187.938z"/>
		</g>
	</g>
	<g>
		<path d="M91.171,134.111c16.154-53.572,57.84-95.125,111.509-111.153c28.793-8.599,57.649-10.253,85.771-4.914
			c4.057,0.773,7.984-1.898,8.755-5.962s-1.897-7.984-5.962-8.756c-30.498-5.791-61.738-4.014-92.851,5.277
			c-28.566,8.532-54.858,24.195-76.032,45.297c-21.184,21.112-36.929,47.353-45.533,75.886
			c-12.461,41.323-11.578,83.672,2.555,122.469c1.107,3.041,3.979,4.928,7.038,4.928c0.851,0,1.717-0.146,2.563-0.454
			c3.887-1.416,5.89-5.714,4.474-9.602C80.442,211.394,79.651,172.313,91.171,134.111z"/>
		<path d="M414.3,86.648c-18.856-29.41-45.424-52.955-76.832-68.09c-3.725-1.795-8.203-0.23-10,3.497
			c-1.796,3.727-0.23,8.203,3.497,10c28.91,13.93,53.366,35.604,70.724,62.679c17.82,27.796,27.24,60.025,27.24,93.203
			c0,35.113-10.461,68.912-30.254,97.742c-19.337,28.167-46.229,49.812-77.773,62.594c-11.194,4.536-18.427,15.343-18.427,27.533
			v19.897h-38.988V281.176l18.32,8.814c1.027,0.494,2.137,0.74,3.248,0.74s2.222-0.247,3.248-0.74l29.062-13.982
			c3.728-1.794,5.296-6.27,3.502-9.998c-1.795-3.728-6.269-5.294-9.998-3.502l-25.814,12.42l-25.814-12.42
			c-2.053-0.987-4.444-0.988-6.495,0.001l-25.81,12.419l-25.811-12.419c-3.729-1.797-8.204-0.227-9.998,3.501
			c-1.794,3.728-0.226,8.203,3.502,9.997l29.058,13.982c2.053,0.989,4.444,0.989,6.496,0l18.323-8.816v114.528h-38.987v-19.895
			c0-12.193-7.222-22.996-18.4-27.523c-30.885-12.51-57.387-33.581-76.643-60.939c-2.382-3.383-7.054-4.196-10.437-1.814
			c-3.383,2.381-4.195,7.054-1.814,10.436c20.916,29.718,49.71,52.61,83.27,66.202c5.493,2.225,9.042,7.578,9.042,13.638v27.385
			c0,0.013,0.002,0.025,0.002,0.038c0,0.013-0.002,0.025-0.002,0.038v36.349c0,17.757,13.221,32.475,30.335,34.85v16.327
			c0,11.693,9.513,21.207,21.207,21.207h19.835c11.693,0,21.207-9.513,21.207-21.207v-16.327
			c17.114-2.374,30.336-17.093,30.336-34.85v-36.349c0-0.013-0.002-0.025-0.002-0.038c0-0.013,0.002-0.025,0.002-0.038v-27.387
			c0-6.058,3.561-11.415,9.072-13.648c34.275-13.889,63.494-37.402,84.497-67.999c21.513-31.338,32.884-68.069,32.884-106.222
			C443.909,151.886,433.67,116.861,414.3,86.648z M272.139,490.793c0,3.433-2.792,6.225-6.225,6.225h-19.835
			c-3.433,0-6.226-2.792-6.226-6.225v-15.785h32.286V490.793z M302.475,439.616c0,11.145-9.068,20.213-20.213,20.213h-52.531
			c-11.145,0-20.212-9.068-20.212-20.213v-28.859h92.956V439.616z"/>
	</g>
</g>
<g>
</g>
<g>
</g>
<g>
</g>
<g>
</g>
<g>
</g>
<g>
</g>
<g>
</g>
<g>
</g>
<g>
</g>
<g>
</g>
<g>
</g>
<g>
</g>
<g>
</g>
<g>
</g>
<g>
</g>
</svg>
