<svg id="Layer" enable-background="new 0 0 64 64" height="512" viewBox="0 0 64 64" width="512" xmlns="http://www.w3.org/2000/svg"><path d="m32 8c-13.233 0-24 10.766-24 24s10.767 24 24 24 24-10.766 24-24-10.767-24-24-24zm0 44c-11.028 0-20-8.972-20-20s8.972-20 20-20 20 8.972 20 20-8.972 20-20 20z"/><path d="m41.733 22.398c-1.399-.671-3.021-.487-4.182.443l-5.551 4.163v-1c0-1.552-.868-2.933-2.267-3.605-1.398-.671-3.021-.487-4.182.443l-8.05 6.035c-.953.763-1.501 1.901-1.501 3.123s.548 2.36 1.502 3.124c.017.013.033.026.05.038l7.95 5.958c.729.583 1.604.881 2.491.881.589 0 1.182-.132 1.74-.4 1.399-.672 2.267-2.053 2.267-3.605v-1l5.502 4.124c.729.583 1.604.881 2.491.881.589 0 1.182-.132 1.74-.4 1.399-.672 2.267-2.053 2.267-3.605v-11.992c0-1.552-.868-2.933-2.267-3.606zm-13.783 15.56-7.948-5.958 7.998-5.996zm12 0-7.948-5.958 7.998-5.996z"/></svg>