<svg xmlns="http://www.w3.org/2000/svg" viewBox="0 0 512 512"><title>Retail - Lineal</title><g id="_1_Shopping_cart" data-name="1 Shopping cart"><path d="M273,410.68a7.5,7.5,0,1,0-15,.64l1.25,29.08a21.95,21.95,0,0,1-21.93,22.9H99.5a22,22,0,0,1-21.93-22.9L86.8,226.23H250.08l3.82,88.64a7.5,7.5,0,0,0,7.49,7.18h.33a7.5,7.5,0,0,0,7.17-7.82L265,224.6a27.41,27.41,0,0,0,18.07-25.73v-7.5A27.39,27.39,0,0,0,255.73,164h-1.37a86.39,86.39,0,0,0-51-67.23A3.89,3.89,0,0,1,201,93.06c.39-9.12,3.61-19.62,8.87-35.8a43.64,43.64,0,1,0-82.92,0c5.26,16.21,8.49,26.71,8.88,35.83a3.89,3.89,0,0,1-2.36,3.73,86.83,86.83,0,0,0-15.38,8.75,7.5,7.5,0,0,0,8.71,12.21,71.78,71.78,0,0,1,12.72-7.24,18.8,18.8,0,0,0,11.3-18.09c-.47-11-3.94-22.4-9.6-39.85A28.64,28.64,0,0,1,170,15,28.62,28.62,0,0,1,195.64,52.6C190,70,186.51,81.39,186,92.42a18.8,18.8,0,0,0,11.3,18.09A71.46,71.46,0,0,1,239.19,164H97.7a71.61,71.61,0,0,1,10.46-26.76,7.5,7.5,0,1,0-12.59-8.16,86.66,86.66,0,0,0-13,34.91H81.15a27.39,27.39,0,0,0-27.36,27.36v7.5A27.4,27.4,0,0,0,71.86,224.6L62.59,439.76A37,37,0,0,0,99.5,478.3H237.38a36.95,36.95,0,0,0,36.91-38.54ZM68.79,191.37A12.37,12.37,0,0,1,81.15,179H255.73a12.37,12.37,0,0,1,12.36,12.36v7.5A12.37,12.37,0,0,1,257,211.17h-.06c-.39,0-.78.06-1.17.06H81.15c-.4,0-.79,0-1.17-.06h-.06a12.38,12.38,0,0,1-11.13-12.3Z"/><path d="M128.51,269.16h-18a7.5,7.5,0,0,0,0,15h18a7.5,7.5,0,1,0,0-15Z"/><path d="M128.51,310.65h-18a7.5,7.5,0,0,0,0,15h18a7.5,7.5,0,1,0,0-15Z"/><path d="M128.51,352.15h-18a7.5,7.5,0,0,0,0,15h18a7.5,7.5,0,0,0,0-15Z"/><path d="M445.09,349.47a256.94,256.94,0,0,0-43.6-15.84,52.13,52.13,0,0,0-21.1-40.5,54,54,0,1,0-71,0,52.13,52.13,0,0,0-21.1,40.5,256.85,256.85,0,0,0-43.59,15.84,22.72,22.72,0,1,0,19.22,41.18,208.53,208.53,0,0,1,46-15.5c4.57,20.88,2.29,32.23-11.53,70.77a7.29,7.29,0,0,0-.25.84,48.88,48.88,0,0,0-2.65,15.84,49.41,49.41,0,0,0,88.93,29.63,7.5,7.5,0,1,0-12-9A34.36,34.36,0,0,1,312.55,451a7.29,7.29,0,0,0,.24-.82c13.65-38.15,17.16-52.5,11.93-77.44a171.74,171.74,0,0,1,40.32,0c-5.23,24.94-1.72,39.29,11.93,77.43a7.45,7.45,0,0,0,.25.83,34.68,34.68,0,0,1,2,8.88,7.5,7.5,0,0,0,7.46,6.87l.64,0a7.5,7.5,0,0,0,6.84-8.11,49.6,49.6,0,0,0-2.49-11.85,7.39,7.39,0,0,0-.25-.85c-13.82-38.54-16.1-49.89-11.53-70.77a208.53,208.53,0,0,1,46,15.5,22.72,22.72,0,1,0,19.22-41.18ZM305.87,252.41a39,39,0,1,1,59.73,33.06,52,52,0,0,0-16.26-2.61h-8.9a52,52,0,0,0-16.26,2.61A38.87,38.87,0,0,1,305.87,252.41Zm34.57,45.45h8.9a37.24,37.24,0,0,1,36.86,32.31c-2.07-.39-4.14-.77-6.21-1.1a218.65,218.65,0,0,0-70.21,0c-2.07.33-4.14.71-6.21,1.1A37.24,37.24,0,0,1,340.44,297.86Zm102,75.47a7.72,7.72,0,0,1-10.27,3.73,218,218,0,0,0-58.9-18.32,186.74,186.74,0,0,0-56.85,0,218,218,0,0,0-58.89,18.32A7.73,7.73,0,0,1,247,367.42a7.66,7.66,0,0,1,4-4.36,232.76,232.76,0,0,1,61.15-19.18,203.62,203.62,0,0,1,65.42,0,232.71,232.71,0,0,1,61.15,19.18h0a7.72,7.72,0,0,1,3.72,10.27Z"/></g></svg>